<svg width="20" height="20" viewBox="0 0 20 20" fill="none" xmlns="http://www.w3.org/2000/svg">
<path fill-rule="evenodd" clip-rule="evenodd" d="M4.34127 0.302063C8.10224 -0.100688 11.8978 -0.100688 15.6587 0.302063C17.7411 0.52755 19.4211 2.11184 19.6654 4.13065C20.1115 7.81594 20.1115 11.5389 19.6654 15.2242C19.4211 17.243 17.7411 18.8273 15.6587 19.0528C11.8978 19.4556 8.10223 19.4556 4.34127 19.0528C2.25891 18.8273 0.578923 17.243 0.334583 15.2242C-0.111528 11.5393 -0.111528 7.81672 0.334583 4.13183C0.458172 3.15104 0.920974 2.23931 1.64798 1.54441C2.37499 0.849509 3.32359 0.412157 4.34006 0.303237M10 3.81356C10.2418 3.81356 10.4737 3.90636 10.6447 4.07155C10.8157 4.23673 10.9117 4.46077 10.9117 4.69437V8.79661H15.1579C15.3997 8.79661 15.6316 8.88941 15.8026 9.05459C15.9735 9.21977 16.0696 9.44381 16.0696 9.67742C16.0696 9.91102 15.9735 10.1351 15.8026 10.3002C15.6316 10.4654 15.3997 10.5582 15.1579 10.5582H10.9117V14.6605C10.9117 14.8941 10.8157 15.1181 10.6447 15.2833C10.4737 15.4485 10.2418 15.5413 10 15.5413C9.7582 15.5413 9.5263 15.4485 9.35532 15.2833C9.18434 15.1181 9.08828 14.8941 9.08828 14.6605V10.5582H4.84211C4.60031 10.5582 4.36841 10.4654 4.19743 10.3002C4.02645 10.1351 3.93039 9.91102 3.93039 9.67742C3.93039 9.44381 4.02645 9.21977 4.19743 9.05459C4.36841 8.88941 4.60031 8.79661 4.84211 8.79661H9.08828V4.69437C9.08828 4.46077 9.18434 4.23673 9.35532 4.07155C9.5263 3.90636 9.7582 3.81356 10 3.81356Z" fill="#FFA500"/>
</svg>
