<svg width="16" height="16" viewBox="0 0 16 16" fill="none" xmlns="http://www.w3.org/2000/svg">
<path d="M9.38207 1.15534L10.7899 3.9943C10.9819 4.38949 11.4938 4.76856 11.9258 4.84114L14.4775 5.2686C16.1094 5.54282 16.4933 6.73648 15.3174 7.914L13.3337 9.91416C12.9977 10.2529 12.8138 10.9062 12.9177 11.374L13.4857 13.85C13.9336 15.8098 12.9017 16.568 11.1819 15.5437L8.79015 14.1162C8.35823 13.8581 7.64632 13.8581 7.20632 14.1162L4.81461 15.5437C3.1028 16.568 2.06292 15.8018 2.51087 13.85L3.07881 11.374C3.18279 10.9062 2.99881 10.2529 2.66285 9.91416L0.679071 7.914C-0.4888 6.73648 -0.11284 5.54282 1.51897 5.2686L4.07069 4.84114C4.49465 4.76856 5.00659 4.38949 5.19856 3.9943L6.6064 1.15534C7.37432 -0.385114 8.62215 -0.385114 9.38207 1.15534Z" fill="#03A9F4"/>
</svg>
