<svg width="29" height="26" viewBox="0 0 29 26" fill="none" xmlns="http://www.w3.org/2000/svg">
<path fill-rule="evenodd" clip-rule="evenodd" d="M21.7017 5.10753C21.758 5.20581 21.8564 5.27601 21.9829 5.27601C25.3562 5.27601 28.1111 8.02784 28.1111 11.3974V19.7371C28.1111 23.1067 25.3562 25.8585 21.9829 25.8585H6.12821C2.74083 25.8585 0 23.1067 0 19.7371V11.3974C0 8.02784 2.74083 5.27601 6.12821 5.27601C6.24066 5.27601 6.3531 5.21985 6.39527 5.10753L6.4796 4.93905C6.52806 4.83706 6.57779 4.7323 6.62828 4.62595C6.98785 3.86857 7.38566 3.03067 7.63215 2.53822C8.27871 1.27463 9.37504 0.572634 10.7384 0.558594H17.3586C18.722 0.572634 19.8324 1.27463 20.4789 2.53822C20.7003 2.98052 21.0376 3.693 21.3627 4.37969C21.4298 4.52131 21.4963 4.66183 21.5612 4.79865L21.7017 5.10753ZM20.6759 10.4986C20.6759 11.2006 21.2381 11.7622 21.9409 11.7622C22.6436 11.7622 23.2199 11.2006 23.2199 10.4986C23.2199 9.79664 22.6436 9.221 21.9409 9.221C21.2381 9.221 20.6759 9.79664 20.6759 10.4986ZM11.6233 12.6752C12.2839 12.0153 13.1413 11.6643 14.0549 11.6643C14.9685 11.6643 15.8259 12.0153 16.4724 12.6612C17.119 13.307 17.4704 14.1635 17.4704 15.076C17.4563 16.9574 15.9383 18.4877 14.0549 18.4877C13.1413 18.4877 12.2839 18.1368 11.6373 17.4909C10.9908 16.8451 10.6394 15.9886 10.6394 15.076V15.062C10.6253 14.1775 10.9767 13.3211 11.6233 12.6752ZM17.9489 18.9791C16.9509 19.9759 15.5735 20.5937 14.0555 20.5937C12.5796 20.5937 11.2022 20.018 10.148 18.9791C9.10792 17.9261 8.53164 16.5502 8.53164 15.076C8.51759 13.6158 9.09386 12.2399 10.134 11.1869C11.1881 10.1339 12.5796 9.55827 14.0555 9.55827C15.5313 9.55827 16.9228 10.1339 17.9629 11.1729C19.003 12.2259 19.5793 13.6158 19.5793 15.076C19.5652 16.6063 18.9468 17.9822 17.9489 18.9791Z" fill="#4CAF50"/>
</svg>
