<svg width="11" height="11" viewBox="0 0 11 11" fill="none" xmlns="http://www.w3.org/2000/svg">
<path d="M1.64011 0.269981L5.5 4.1297L9.33989 0.289979C9.42471 0.199703 9.52688 0.127485 9.64029 0.0776566C9.7537 0.0278278 9.876 0.00141424 9.99987 0C10.2651 0 10.5194 0.105349 10.707 0.292872C10.8945 0.480395 10.9998 0.734731 10.9998 0.999928C11.0022 1.12252 10.9794 1.2443 10.933 1.35778C10.8866 1.47127 10.8174 1.57407 10.7298 1.65988L6.83996 5.4996L10.7298 9.38933C10.8947 9.55056 10.9913 9.76889 10.9998 9.99928C10.9998 10.2645 10.8945 10.5188 10.707 10.7063C10.5194 10.8939 10.2651 10.9992 9.99987 10.9992C9.87243 11.0045 9.74528 10.9832 9.6265 10.9367C9.50771 10.8903 9.3999 10.8196 9.30989 10.7292L5.5 6.86951L1.65011 10.7192C1.56562 10.8065 1.46468 10.8762 1.35312 10.9242C1.24157 10.9723 1.12159 10.9978 1.00013 10.9992C0.734924 10.9992 0.480578 10.8939 0.293047 10.7063C0.105516 10.5188 0.000162702 10.2645 0.000162702 9.99928C-0.00216872 9.87669 0.0205775 9.75491 0.0670057 9.64143C0.113434 9.52794 0.182564 9.42514 0.270155 9.33933L4.16004 5.4996L0.270155 1.60988C0.105345 1.44865 0.00870207 1.23032 0.000162702 0.999928C0.000162702 0.734731 0.105516 0.480395 0.293047 0.292872C0.480578 0.105349 0.734924 0 1.00013 0C1.24013 0.00299978 1.47012 0.0999928 1.64011 0.269981Z" fill="#616161"/>
</svg>
