<svg width="44" height="44" viewBox="0 0 44 44" fill="none" xmlns="http://www.w3.org/2000/svg">
<rect x="0.953857" y="0.863281" width="42.695" height="42.695" rx="21.3475" fill="#FFF3DC" fill-opacity="0.7"/>
<path d="M16.4916 14.3389L22.3007 20.148L28.0796 14.369C28.2073 14.2332 28.3611 14.1245 28.5317 14.0495C28.7024 13.9745 28.8865 13.9347 29.0729 13.9326C29.472 13.9326 29.8548 14.0912 30.137 14.3734C30.4193 14.6556 30.5778 15.0384 30.5778 15.4375C30.5813 15.6221 30.5471 15.8053 30.4772 15.9761C30.4073 16.1469 30.3033 16.3017 30.1715 16.4308L24.3173 22.2097L30.1715 28.0639C30.4195 28.3066 30.565 28.6352 30.5778 28.9819C30.5778 29.3811 30.4193 29.7639 30.137 30.0461C29.8548 30.3283 29.472 30.4869 29.0729 30.4869C28.8811 30.4948 28.6897 30.4628 28.511 30.3929C28.3322 30.3229 28.1699 30.2166 28.0345 30.0805L22.3007 24.2715L16.5067 30.0655C16.3795 30.1968 16.2276 30.3017 16.0597 30.374C15.8918 30.4463 15.7113 30.4847 15.5285 30.4869C15.1294 30.4869 14.7466 30.3283 14.4643 30.0461C14.1821 29.7639 14.0236 29.3811 14.0236 28.9819C14.0201 28.7974 14.0543 28.6142 14.1242 28.4434C14.194 28.2726 14.2981 28.1178 14.4299 27.9887L20.2841 22.2097L14.4299 16.3556C14.1819 16.1129 14.0364 15.7843 14.0236 15.4375C14.0236 15.0384 14.1821 14.6556 14.4643 14.3734C14.7466 14.0912 15.1294 13.9326 15.5285 13.9326C15.8897 13.9371 16.2358 14.0831 16.4916 14.3389Z" fill="#FFA500"/>
</svg>
