<svg width="21" height="22" viewBox="0 0 21 22" fill="none" xmlns="http://www.w3.org/2000/svg">
<path d="M6.19932 1.71631C6.19932 1.5174 6.1203 1.32663 5.97965 1.18598C5.839 1.04533 5.64823 0.966309 5.44932 0.966309C5.25041 0.966309 5.05964 1.04533 4.91899 1.18598C4.77834 1.32663 4.69932 1.5174 4.69932 1.71631V3.29631C3.25932 3.41131 2.31532 3.69331 1.62132 4.38831C0.92632 5.08231 0.64432 6.02731 0.52832 7.46631H20.3703C20.2543 6.02631 19.9723 5.08231 19.2773 4.38831C18.5833 3.69331 17.6383 3.41131 16.1993 3.29531V1.71631C16.1993 1.5174 16.1203 1.32663 15.9797 1.18598C15.839 1.04533 15.6482 0.966309 15.4493 0.966309C15.2504 0.966309 15.0596 1.04533 14.919 1.18598C14.7783 1.32663 14.6993 1.5174 14.6993 1.71631V3.22931C14.0343 3.21631 13.2883 3.21631 12.4493 3.21631H8.44932C7.61032 3.21631 6.86432 3.21631 6.19932 3.22931V1.71631Z" fill="#D0DFEB"/>
<path fill-rule="evenodd" clip-rule="evenodd" d="M20.4492 11.2163C20.4492 10.3773 20.4492 9.63131 20.4362 8.96631H0.462219C0.449219 9.63131 0.449219 10.3773 0.449219 11.2163V13.2163C0.449219 16.9873 0.449219 18.8733 1.62122 20.0443C2.79222 21.2163 4.67822 21.2163 8.44922 21.2163H12.4492C16.2202 21.2163 18.1062 21.2163 19.2772 20.0443C20.4492 18.8733 20.4492 16.9873 20.4492 13.2163V11.2163Z" fill="#D0DFEB"/>
<path d="M8.52863 14.0583C8.42221 13.4285 7.90279 12.9253 7.28202 12.9253L7.05905 12.9473C6.47882 13.0628 6.01514 13.6265 6.01514 14.3003C6.01844 14.6639 6.15297 15.0115 6.38985 15.2686C6.62672 15.5257 6.94704 15.6717 7.28202 15.6753L7.50499 15.6533C8.08522 15.5378 8.5489 14.974 8.5489 14.3003L8.52863 14.0583Z" fill="#D0DFEB"/>
<path d="M14.863 14.0583C14.7566 13.4285 14.2372 12.9253 13.6164 12.9253L13.3934 12.9473C12.8132 13.0628 12.3495 13.6265 12.3495 14.3003C12.3528 14.6639 12.4874 15.0115 12.7242 15.2686C12.9611 15.5257 13.2814 15.6717 13.6164 15.6753L13.8394 15.6533C14.4196 15.5378 14.8833 14.974 14.8833 14.3003L14.863 14.0583Z" fill="#D0DFEB"/>
</svg>
