<svg width="23" height="23" viewBox="0 0 23 23" fill="none" xmlns="http://www.w3.org/2000/svg">
<g opacity="0.85">
<rect x="0.126897" y="0.126897" width="22.7462" height="22.7462" rx="11.3731" fill="#FFEDCB" stroke="white" stroke-width="0.253794"/>
</g>
<path d="M12.8749 7.4894L13.6926 6.67171C14.1442 6.22011 14.8764 6.22011 15.328 6.67171C15.7796 7.12331 15.7796 7.85549 15.328 8.30709L14.5103 9.12479M12.8749 7.4894L8.07184 12.2925C7.46208 12.9023 7.15719 13.2071 6.94959 13.5786C6.74198 13.9502 6.53311 14.8274 6.33337 15.6663C7.17226 15.4666 8.04953 15.2577 8.42106 15.0501C8.79258 14.8425 9.09746 14.5376 9.70723 13.9279L14.5103 9.12479M12.8749 7.4894L14.5103 9.12479" stroke="#FFA500" stroke-width="0.75" stroke-linecap="round" stroke-linejoin="round"/>
<path d="M10.4166 15.667H13.9166" stroke="#FFA500" stroke-width="0.75" stroke-linecap="round"/>
</svg>
