<svg width="18" height="19" viewBox="0 0 18 19" fill="none" xmlns="http://www.w3.org/2000/svg">
<path d="M10.2366 2.10627L11.7536 5.16539C11.9605 5.59123 12.5121 5.99969 12.9776 6.0779L15.7272 6.53851C17.4856 6.834 17.8994 8.12023 16.6323 9.38906L14.4947 11.5443C14.1326 11.9093 13.9344 12.6133 14.0464 13.1174L14.6585 15.7854C15.1411 17.8972 14.0292 18.7142 12.176 17.6104L9.59879 16.0722C9.13338 15.7941 8.36625 15.7941 7.89213 16.0722L5.31494 17.6104C3.47038 18.7142 2.34985 17.8885 2.83254 15.7854L3.44452 13.1174C3.55657 12.6133 3.35833 11.9093 2.99631 11.5443L0.858687 9.38906C-0.399754 8.12023 0.00536194 6.834 1.76373 6.53851L4.51333 6.0779C4.97016 5.99969 5.52181 5.59123 5.72867 5.16539L7.24568 2.10627C8.07315 0.446348 9.41776 0.446348 10.2366 2.10627Z" fill="#4CAF50"/>
</svg>
