<svg width="150" height="147" viewBox="0 0 150 147" fill="none" xmlns="http://www.w3.org/2000/svg">
<rect x="0.357422" y="0.165039" width="148.992" height="146.615" rx="30.6748" fill="#FA4E4E" fill-opacity="0.15"/>
<g filter="url(#filter0_ii_814_5420)">
<path fill-rule="evenodd" clip-rule="evenodd" d="M51.4665 23.3379C41.512 23.3379 33.4424 31.4075 33.4424 41.362V105.583C33.4424 115.537 41.512 123.607 51.4665 123.607H98.2403C108.195 123.607 116.264 115.537 116.264 105.583V48.4044L90.7027 23.3379H51.4665Z" fill="#FA4E4E"/>
</g>
<path d="M91.4587 90.8667C88.0084 90.6154 84.6866 89.3589 82.0032 87.0972C76.7642 88.2277 71.7802 89.8609 66.7968 91.8719C62.8359 98.7823 59.13 102.3 55.9354 102.3C55.2963 102.3 54.5301 102.175 54.0188 101.798C52.6129 101.17 51.8467 99.7875 51.8467 98.4056C51.8467 97.2745 52.1023 94.1336 64.2412 88.9816C67.0531 83.9557 69.2246 78.8044 71.014 73.4017C69.4802 70.3862 66.1584 62.9725 68.4577 59.2037C69.2246 57.8212 70.7583 57.0673 72.4199 57.1933C73.6974 57.1933 74.9748 57.8212 75.7417 58.8264C77.4033 61.0881 77.2755 65.8628 75.1027 72.8992C77.1477 76.6632 79.8261 80.0616 83.0251 82.9511C85.7091 82.4479 88.3919 82.0712 91.0753 82.0712C97.0812 82.1966 97.9758 84.9609 97.848 86.5946C97.848 90.8667 93.6309 90.8667 91.4587 90.8667ZM55.6804 98.6563L56.0638 98.531C57.8525 97.903 59.2578 96.6466 60.2803 95.0128C58.3632 95.7667 56.8301 97.0232 55.6804 98.6569V98.6563ZM72.6749 60.9628H72.2914C72.1636 60.9628 71.908 60.9628 71.7802 61.0881C71.2689 63.2238 71.6524 65.4855 72.5471 67.4959C73.3139 65.3602 73.3139 63.0985 72.6749 60.9628ZM73.5696 79.1816L73.4417 79.4323L73.3139 79.3069C72.1636 82.1972 70.8855 85.0868 69.4802 87.8511L69.7358 87.7258V87.9764C72.5774 86.9661 75.4792 86.1269 78.4251 85.4634L78.2973 85.3381H78.6807C76.7636 83.4531 74.9748 81.3173 73.5696 79.1816ZM90.9475 85.8407C89.7972 85.8407 88.7753 85.8407 87.625 86.0914C88.9031 86.7199 90.1812 86.9712 91.4587 87.0972C92.3534 87.2225 93.2481 87.0972 94.0143 86.8459C94.0143 86.4686 93.5031 85.8407 90.9475 85.8407Z" fill="white"/>
<path d="M113.866 46.0557L93.0986 46.0557L116.264 68.7728L116.264 48.4057L113.866 46.0557Z" fill="url(#paint0_linear_814_5420)"/>
<path d="M108.726 48.4053L116.265 48.4053L90.7023 23.3381L90.7023 30.3812C90.7023 40.3356 98.772 48.4053 108.726 48.4053Z" fill="#FDB8B8"/>
<defs>
<filter id="filter0_ii_814_5420" x="33.4424" y="22.2114" width="82.8223" height="102.522" filterUnits="userSpaceOnUse" color-interpolation-filters="sRGB">
<feFlood flood-opacity="0" result="BackgroundImageFix"/>
<feBlend mode="normal" in="SourceGraphic" in2="BackgroundImageFix" result="shape"/>
<feColorMatrix in="SourceAlpha" type="matrix" values="0 0 0 0 0 0 0 0 0 0 0 0 0 0 0 0 0 0 127 0" result="hardAlpha"/>
<feOffset dy="-2.25301"/>
<feGaussianBlur stdDeviation="0.563253"/>
<feComposite in2="hardAlpha" operator="arithmetic" k2="-1" k3="1"/>
<feColorMatrix type="matrix" values="0 0 0 0 0 0 0 0 0 0 0 0 0 0 0 0 0 0 0.3 0"/>
<feBlend mode="normal" in2="shape" result="effect1_innerShadow_814_5420"/>
<feColorMatrix in="SourceAlpha" type="matrix" values="0 0 0 0 0 0 0 0 0 0 0 0 0 0 0 0 0 0 127 0" result="hardAlpha"/>
<feOffset dy="2.25301"/>
<feGaussianBlur stdDeviation="0.563253"/>
<feComposite in2="hardAlpha" operator="arithmetic" k2="-1" k3="1"/>
<feColorMatrix type="matrix" values="0 0 0 0 1 0 0 0 0 1 0 0 0 0 1 0 0 0 0.3 0"/>
<feBlend mode="normal" in2="effect1_innerShadow_814_5420" result="effect2_innerShadow_814_5420"/>
</filter>
<linearGradient id="paint0_linear_814_5420" x1="98.291" y1="40.9639" x2="121.004" y2="64.1253" gradientUnits="userSpaceOnUse">
<stop stop-opacity="0.2"/>
<stop offset="1" stop-opacity="0"/>
</linearGradient>
</defs>
</svg>
