<svg width="21" height="20" viewBox="0 0 21 20" fill="none" xmlns="http://www.w3.org/2000/svg">
<path d="M9.7301 5.04265V0.822636C9.7301 0.373926 10.0701 0 10.5001 0C10.8851 0 11.2113 0.314201 11.263 0.71219L11.2701 0.822636V5.04265L16.05 5.04297C18.43 5.04297 20.3853 7.09451 20.4951 9.65306L20.5 9.88009V15.1846C20.5 17.7611 18.6127 19.876 16.268 19.9947L16.06 20H4.94C2.56 20 0.61409 17.9587 0.504838 15.3908L0.5 15.1629L0.5 9.86922C0.5 7.29274 2.37791 5.16759 4.72199 5.04826L4.93 5.04297H9.73V11.7823L8.13 10.0431C7.83 9.71705 7.34 9.71705 7.04 10.0431C6.89 10.2062 6.82 10.4236 6.82 10.641C6.82 10.8062 6.8648 10.9784 6.95952 11.1241L7.04 11.228L9.95 14.402C10.09 14.565 10.29 14.652 10.5 14.652C10.6667 14.652 10.8333 14.5916 10.9653 14.4771L11.04 14.402L13.95 11.228C14.25 10.9019 14.25 10.3692 13.95 10.0431C13.6773 9.74669 13.2475 9.71974 12.9462 9.96229L12.86 10.0431L11.27 11.7823V5.04297L9.7301 5.04265Z" fill="white"/>
</svg>
