<svg width="35" height="35" viewBox="0 0 35 35" fill="none" xmlns="http://www.w3.org/2000/svg">
<g clip-path="url(#clip0_644_2443)">
<path d="M0 8.55556C0 3.83045 3.83045 0 8.55556 0H26.4444C31.1695 0 35 3.83045 35 8.55556V26.4444C35 31.1695 31.1695 35 26.4444 35H8.55556C3.83045 35 0 31.1695 0 26.4444V8.55556Z" fill="#CECDCD"/>
<path d="M22.2973 19.6314C22.3782 18.964 22.4389 18.2967 22.4389 17.6092C22.4389 16.9216 22.3782 16.2543 22.2973 15.5869H25.7149C25.8767 16.234 25.9778 16.9115 25.9778 17.6092C25.9778 18.3068 25.8767 18.9843 25.7149 19.6314M20.5077 25.2532C21.1143 24.1308 21.5794 22.9175 21.903 21.6536H24.8858C23.9062 23.3404 22.352 24.6182 20.5077 25.2532ZM20.2549 19.6314H15.5229C15.4218 18.964 15.3611 18.2967 15.3611 17.6092C15.3611 16.9216 15.4218 16.2442 15.5229 15.5869H20.2549C20.3459 16.2442 20.4167 16.9216 20.4167 17.6092C20.4167 18.2967 20.3459 18.964 20.2549 19.6314ZM17.8889 25.6576C17.0497 24.4443 16.3722 23.0995 15.9577 21.6536H19.8201C19.4055 23.0995 18.7281 24.4443 17.8889 25.6576ZM13.8444 13.5647H10.892C11.8613 11.8732 13.4144 10.5933 15.26 9.96516C14.6533 11.0875 14.1983 12.3008 13.8444 13.5647ZM10.892 21.6536H13.8444C14.1983 22.9175 14.6533 24.1308 15.26 25.2532C13.418 24.6185 11.867 23.3403 10.892 21.6536ZM10.0629 19.6314C9.9011 18.9843 9.79999 18.3068 9.79999 17.6092C9.79999 16.9115 9.9011 16.234 10.0629 15.5869H13.4804C13.3995 16.2543 13.3389 16.9216 13.3389 17.6092C13.3389 18.2967 13.3995 18.964 13.4804 19.6314M17.8889 9.5506C18.7281 10.7639 19.4055 12.1188 19.8201 13.5647H15.9577C16.3722 12.1188 17.0497 10.7639 17.8889 9.5506ZM24.8858 13.5647H21.903C21.5861 12.3126 21.1175 11.1038 20.5077 9.96516C22.3681 10.6022 23.9151 11.8863 24.8858 13.5647ZM17.8889 7.49805C12.2974 7.49805 7.77777 12.048 7.77777 17.6092C7.77777 20.2908 8.84305 22.8626 10.7392 24.7588C11.6781 25.6977 12.7928 26.4425 14.0195 26.9506C15.2463 27.4587 16.5611 27.7203 17.8889 27.7203C20.5705 27.7203 23.1423 26.655 25.0385 24.7588C26.9347 22.8626 28 20.2908 28 17.6092C28 16.2813 27.7385 14.9665 27.2303 13.7398C26.7222 12.5131 25.9774 11.3984 25.0385 10.4595C24.0996 9.52062 22.985 8.77584 21.7582 8.26771C20.5315 7.75958 19.2167 7.49805 17.8889 7.49805Z" fill="white"/>
</g>
<defs>
<clipPath id="clip0_644_2443">
<rect width="35" height="35" fill="white"/>
</clipPath>
</defs>
</svg>
