<svg width="27" height="18" viewBox="0 0 27 18" fill="none" xmlns="http://www.w3.org/2000/svg">
<path d="M25.4995 15.8087H24.6329V13.3801C24.6329 13.1654 24.5416 12.9595 24.379 12.8077C24.2165 12.6559 23.9961 12.5706 23.7662 12.5706H16.8329C16.603 12.5706 16.3826 12.6559 16.2201 12.8077C16.0575 12.9595 15.9662 13.1654 15.9662 13.3801V15.8087H3.83288V2.04678H22.8995V10.142C22.8995 10.3567 22.9909 10.5626 23.1534 10.7144C23.3159 10.8663 23.5364 10.9515 23.7662 10.9515C23.9961 10.9515 24.2165 10.8663 24.379 10.7144C24.5416 10.5626 24.6329 10.3567 24.6329 10.142V2.04678C24.6329 1.61738 24.4503 1.20557 24.1252 0.901942C23.8001 0.598312 23.3593 0.427734 22.8995 0.427734H3.83288C3.37317 0.427734 2.93229 0.598312 2.60723 0.901942C2.28216 1.20557 2.09954 1.61738 2.09954 2.04678V15.8087H1.23288C1.00302 15.8087 0.782583 15.894 0.620052 16.0458C0.45752 16.1976 0.366211 16.4035 0.366211 16.6182C0.366211 16.8329 0.45752 17.0388 0.620052 17.1906C0.782583 17.3424 1.00302 17.4277 1.23288 17.4277H25.4995C25.7294 17.4277 25.9498 17.3424 26.1124 17.1906C26.2749 17.0388 26.3662 16.8329 26.3662 16.6182C26.3662 16.4035 26.2749 16.1976 26.1124 16.0458C25.9498 15.894 25.7294 15.8087 25.4995 15.8087ZM17.6995 14.1896H22.8995V15.8087H17.6995V14.1896Z" fill="#BFBFBF" stroke="#BFBFBF" stroke-width="0.2"/>
</svg>
