<svg width="27" height="17" viewBox="0 0 27 17" fill="none" xmlns="http://www.w3.org/2000/svg">
<path d="M12.7579 1.7881C11.8256 2.10591 11.2006 2.72034 10.8934 3.59961C10.7133 4.13989 10.7345 4.93441 10.957 5.50646C11.1582 6.04674 11.7515 6.66117 12.3235 6.9472C12.7367 7.13788 12.7897 7.15907 13.51 7.15907C14.2198 7.15907 14.2834 7.14848 14.6965 6.9472C15.2686 6.66117 15.8618 6.04674 16.0631 5.50646C16.2856 4.93441 16.3067 4.13989 16.1266 3.59961C15.8724 2.83687 15.3851 2.286 14.6329 1.93641C14.2622 1.75632 14.1139 1.72454 13.616 1.71394C13.2452 1.70335 12.9274 1.73513 12.7579 1.7881Z" stroke="#BFBFBF" stroke-width="1.7"/>
<path d="M5.37402 3.62077C4.53713 3.82205 3.85914 4.37292 3.48836 5.14625C3.29767 5.5594 3.27649 5.63356 3.27649 6.31155C3.27649 7.01073 3.28708 7.04251 3.52014 7.52982C4.62188 9.76507 7.86353 9.50023 8.60508 7.11667C8.84874 6.31155 8.70043 5.3899 8.21312 4.70132C7.5775 3.79027 6.44398 3.35593 5.37402 3.62077Z" stroke="#BFBFBF" stroke-width="1.7"/>
<path d="M20.3959 3.62104C19.0399 3.96004 18.1925 5.12534 18.2878 6.54488C18.4149 8.46233 20.4913 9.63822 22.2498 8.78014C22.7477 8.53649 23.2668 8.0068 23.521 7.46653C23.7117 7.05338 23.7329 6.97922 23.7329 6.30123C23.7329 5.62324 23.7223 5.55967 23.521 5.13593C22.9596 3.96004 21.646 3.31382 20.3959 3.62104Z" stroke="#BFBFBF" stroke-width="1.7"/>
<path d="M12.5777 7.71056C11.709 7.86946 10.9463 8.17668 10.2683 8.66399C9.83392 8.96061 9.19831 9.62801 9.19831 9.76572C9.19831 9.8081 9.34662 9.94581 9.51612 10.0623C9.92927 10.3272 10.6179 11.037 10.9145 11.5349C11.2853 12.1387 11.4865 12.8591 11.5395 13.6324L11.5713 14.3104H13.5099H15.4485L15.4803 13.6324C15.5227 12.8591 15.7346 12.1387 16.1054 11.5349C16.402 11.0476 17.0694 10.3378 17.4931 10.0518C17.6732 9.92463 17.8215 9.7975 17.8215 9.75513C17.8215 9.62801 17.1647 8.96061 16.7516 8.66399C15.8193 7.99659 14.9189 7.71056 13.7112 7.67878C13.2557 7.66818 12.7472 7.67878 12.5777 7.71056Z" stroke="#BFBFBF" stroke-width="1.7"/>
<path d="M5.24688 9.54259C3.57309 9.76506 2.06879 10.7397 1.43318 12.0109C1.10477 12.6783 1.00943 13.0491 1.00943 13.7483C0.998836 15.1572 1.53911 15.7822 2.95866 16.0365C3.75318 16.1742 8.25547 16.1742 9.02881 16.0365C9.77036 15.9094 10.3424 15.6021 10.6073 15.189C10.8933 14.7758 10.978 14.4474 10.978 13.7483C10.9886 11.4918 8.95465 9.66971 6.25328 9.51081C5.95666 9.50021 5.50113 9.51081 5.24688 9.54259Z" stroke="#BFBFBF" stroke-width="1.7"/>
<path d="M20.3641 9.54292C18.2984 9.78657 16.6564 11.0472 16.1479 12.774C16.0102 13.2295 15.989 14.1935 16.1055 14.6173C16.3386 15.4012 16.953 15.8673 18.0335 16.0474C18.8598 16.1957 23.8706 16.1428 24.3897 15.9944C25.5868 15.6343 26.0105 15.0516 26 13.7592C26 12.1701 25.0783 10.8353 23.4575 10.062C22.8536 9.77598 22.3875 9.63826 21.6354 9.54292C21.0739 9.46877 20.9892 9.46877 20.3641 9.54292Z" stroke="#BFBFBF" stroke-width="1.7"/>
</svg>
