<svg width="26" height="27" viewBox="0 0 26 27" fill="none" xmlns="http://www.w3.org/2000/svg">
<path d="M12.9258 1.09668H5.48142C2.40193 1.09668 1.75923 1.73938 1.75923 4.81887V25.9112H16.648V4.81887C16.648 1.73938 16.0053 1.09668 12.9258 1.09668Z" stroke="#BFBFBF" stroke-width="1.94699" stroke-linejoin="round"/>
<path d="M20.3699 8.54102H16.6478V25.9112H24.0921V12.2632C24.0921 9.18371 23.4494 8.54102 20.3699 8.54102Z" stroke="#BFBFBF" stroke-width="1.94699" stroke-linejoin="round"/>
<path d="M7.96288 6.05957H10.4443M7.96288 9.78176H10.4443M7.96288 13.5039H10.4443" stroke="#BFBFBF" stroke-width="1.94699" stroke-linecap="round" stroke-linejoin="round"/>
<path d="M12.3053 25.9112V20.9483C12.3053 19.7785 12.3053 19.1936 11.9419 18.8302C11.5784 18.4668 10.9936 18.4668 9.82381 18.4668H8.58308C7.41331 18.4668 6.82843 18.4668 6.46502 18.8302C6.10162 19.1936 6.10162 19.7785 6.10162 20.9483V25.9112" stroke="#BFBFBF" stroke-width="1.94699" stroke-linejoin="round"/>
</svg>
