<svg width="28" height="21" viewBox="0 0 28 21" fill="none" xmlns="http://www.w3.org/2000/svg">
<path d="M26.8212 11.8951C26.7278 11.9656 26.6215 12.0169 26.5084 12.046C26.3954 12.0752 26.2777 12.0816 26.1621 12.065C26.0465 12.0484 25.9353 12.009 25.8349 11.9492C25.7344 11.8893 25.6467 11.8101 25.5766 11.7161C25.0408 10.9913 24.3434 10.4032 23.5405 9.99919C22.7376 9.59517 21.8516 9.38651 20.954 9.39001C20.7792 9.39 20.6082 9.33811 20.4626 9.24084C20.3169 9.14357 20.203 9.00524 20.135 8.84315C20.0889 8.73308 20.0651 8.61482 20.0651 8.49535C20.0651 8.37588 20.0889 8.25762 20.135 8.14755C20.203 7.98545 20.3169 7.84712 20.4626 7.74986C20.6082 7.65259 20.7792 7.6007 20.954 7.60068C21.4528 7.60064 21.9415 7.45982 22.3648 7.19422C22.7881 6.92862 23.1288 6.54888 23.3484 6.09814C23.5679 5.6474 23.6575 5.14373 23.6069 4.64434C23.5563 4.14494 23.3675 3.66984 23.062 3.273C22.7566 2.87615 22.3467 2.57348 21.8788 2.39935C21.411 2.22522 20.904 2.18662 20.4155 2.28793C19.927 2.38923 19.4765 2.62639 19.1151 2.97246C18.7538 3.31853 18.4962 3.75965 18.3715 4.24569C18.3423 4.35951 18.2911 4.46643 18.2209 4.56034C18.1506 4.65425 18.0627 4.73333 17.9621 4.79304C17.8615 4.85275 17.7502 4.89193 17.6345 4.90835C17.5189 4.92477 17.4011 4.91811 17.2881 4.88873C17.175 4.85936 17.0687 4.80786 16.9754 4.73717C16.8821 4.66647 16.8035 4.57798 16.7442 4.47673C16.6849 4.37547 16.6459 4.26345 16.6296 4.14706C16.6133 4.03067 16.6199 3.91218 16.6491 3.79836C16.8222 3.12436 17.1492 2.50031 17.6041 1.97588C18.059 1.45144 18.6292 1.04109 19.2694 0.777472C19.9096 0.513857 20.6021 0.404254 21.2918 0.457384C21.9815 0.510514 22.6494 0.724911 23.2423 1.08352C23.8352 1.44212 24.3367 1.93503 24.707 2.52304C25.0773 3.11104 25.3061 3.7779 25.3752 4.47056C25.4443 5.16322 25.3519 5.86257 25.1052 6.51294C24.8585 7.16331 24.4644 7.74677 23.9543 8.21689C25.163 8.74361 26.2139 9.57947 27.0023 10.6414C27.0724 10.7357 27.1233 10.8429 27.1521 10.9569C27.1809 11.071 27.187 11.1896 27.1702 11.3061C27.1534 11.4225 27.1139 11.5345 27.054 11.6356C26.9941 11.7366 26.915 11.8248 26.8212 11.8951ZM20.834 18.784C20.8983 18.8858 20.9415 18.9997 20.9609 19.1187C20.9804 19.2378 20.9757 19.3596 20.9472 19.4768C20.9187 19.594 20.8669 19.7042 20.7949 19.8007C20.723 19.8972 20.6324 19.9781 20.5286 20.0385C20.4248 20.0989 20.3099 20.1375 20.1909 20.1521C20.0719 20.1666 19.9512 20.1568 19.836 20.1232C19.7209 20.0896 19.6137 20.0329 19.5209 19.9565C19.4281 19.8801 19.3516 19.7856 19.296 19.6787C18.736 18.7243 17.9385 17.9335 16.9821 17.3841C16.0256 16.8347 14.9434 16.5457 13.8422 16.5457C12.7409 16.5457 11.6587 16.8347 10.7023 17.3841C9.74586 17.9335 8.94831 18.7243 8.3883 19.6787C8.33273 19.7856 8.25624 19.8801 8.16344 19.9565C8.07063 20.0329 7.96343 20.0896 7.84828 20.1232C7.73314 20.1568 7.61242 20.1666 7.4934 20.1521C7.37438 20.1375 7.25952 20.0989 7.15571 20.0385C7.05191 19.9781 6.96132 19.8972 6.88939 19.8007C6.81746 19.7042 6.76567 19.594 6.73715 19.4768C6.70862 19.3596 6.70395 19.2378 6.72341 19.1187C6.74287 18.9997 6.78606 18.8858 6.85038 18.784C7.71224 17.2937 9.02636 16.1209 10.5996 15.4379C9.71435 14.7558 9.06373 13.8116 8.73923 12.7381C8.41472 11.6646 8.43264 10.5157 8.79047 9.45298C9.1483 8.39024 9.82805 7.46708 10.7342 6.81324C11.6403 6.1594 12.7272 5.80777 13.8422 5.80777C14.9571 5.80777 16.0441 6.1594 16.9502 6.81324C17.8563 7.46708 18.536 8.39024 18.8939 9.45298C19.2517 10.5157 19.2696 11.6646 18.9451 12.7381C18.6206 13.8116 17.97 14.7558 17.0847 15.4379C18.658 16.1209 19.9721 17.2937 20.834 18.784ZM13.8422 14.758C14.5455 14.758 15.233 14.5481 15.8177 14.1549C16.4025 13.7617 16.8583 13.2027 17.1274 12.5488C17.3965 11.8949 17.4669 11.1754 17.3297 10.4812C17.1925 9.78699 16.8539 9.14933 16.3566 8.64885C15.8593 8.14837 15.2257 7.80753 14.5359 7.66945C13.8461 7.53136 13.1311 7.60223 12.4814 7.87309C11.8316 8.14395 11.2763 8.60264 10.8855 9.19115C10.4948 9.77965 10.2863 10.4715 10.2863 11.1793C10.2863 12.1285 10.6609 13.0387 11.3278 13.7098C11.9946 14.381 12.8991 14.758 13.8422 14.758ZM7.61934 8.49535C7.61934 8.25807 7.52568 8.03051 7.35896 7.86273C7.19225 7.69494 6.96614 7.60068 6.73036 7.60068C6.23157 7.60064 5.74278 7.45982 5.31953 7.19422C4.89627 6.92862 4.55551 6.54888 4.33595 6.09814C4.11638 5.6474 4.02682 5.14373 4.07744 4.64434C4.12805 4.14494 4.31681 3.66984 4.62228 3.273C4.92774 2.87615 5.33767 2.57348 5.8055 2.39935C6.27332 2.22522 6.78029 2.18662 7.26882 2.28793C7.75736 2.38923 8.20787 2.62639 8.56918 2.97246C8.9305 3.31853 9.18814 3.75965 9.31284 4.24569C9.37178 4.47556 9.51904 4.67244 9.72223 4.79304C9.92541 4.91363 10.1679 4.94805 10.3963 4.88873C10.6247 4.82941 10.8203 4.68121 10.9401 4.47673C11.06 4.27224 11.0942 4.02823 11.0352 3.79836C10.8621 3.12436 10.5352 2.50031 10.0803 1.97588C9.62536 1.45144 9.05513 1.04109 8.41492 0.777472C7.77471 0.513857 7.08221 0.404254 6.39251 0.457384C5.70281 0.510514 5.03494 0.724911 4.44206 1.08352C3.84918 1.44212 3.34764 1.93503 2.97736 2.52304C2.60707 3.11104 2.37826 3.7779 2.30912 4.47056C2.23999 5.16322 2.33244 5.86257 2.57912 6.51294C2.8258 7.16331 3.21991 7.74677 3.73007 8.21689C2.52249 8.74411 1.47287 9.57993 0.685334 10.6414C0.543724 10.8312 0.482842 11.0699 0.516081 11.3049C0.54932 11.5399 0.673957 11.752 0.862574 11.8945C1.05119 12.037 1.28834 12.0983 1.52184 12.0649C1.75535 12.0314 1.96608 11.906 2.10769 11.7161C2.64351 10.9913 3.34094 10.4032 4.14385 9.99919C4.94675 9.59517 5.8327 9.38651 6.73036 9.39001C6.96614 9.39001 7.19225 9.29575 7.35896 9.12797C7.52568 8.96019 7.61934 8.73263 7.61934 8.49535Z" fill="#BFBFBF"/>
</svg>
