<svg width="21" height="24" viewBox="0 0 21 24" fill="none" xmlns="http://www.w3.org/2000/svg">
<path d="M8.80735 0.993622C9.78506 0.168793 11.2149 0.168793 12.1927 0.993622L20.0677 7.63725C20.6589 8.13602 21 8.87014 21 9.64363V21.0804C21 22.208 20.0859 23.1221 18.9583 23.1221H15.4583C14.3308 23.1221 13.4167 22.208 13.4167 21.0804V15.2471C13.4167 14.7638 13.0249 14.3721 12.5417 14.3721H8.45834C7.97509 14.3721 7.58334 14.7638 7.58334 15.2471V21.0804C7.58334 22.208 6.66925 23.1221 5.54167 23.1221H2.04167C0.914085 23.1221 0 22.208 0 21.0804V9.64363C0 8.87014 0.34114 8.13602 0.932348 7.63725L8.80735 0.993622Z" fill="#FFA500"/>
</svg>
