<svg width="21" height="24" viewBox="0 0 21 24" fill="none" xmlns="http://www.w3.org/2000/svg">
<path d="M8.80735 1.2446C9.78506 0.419769 11.2149 0.419769 12.1927 1.2446L20.0677 7.88823C20.6589 8.38699 21 9.12111 21 9.89461V21.3314C21 22.459 20.0859 23.3731 18.9583 23.3731H15.4583C14.3308 23.3731 13.4167 22.459 13.4167 21.3314V15.4981C13.4167 15.0148 13.0249 14.6231 12.5417 14.6231H8.45834C7.97509 14.6231 7.58334 15.0148 7.58334 15.4981V21.3314C7.58334 22.459 6.66925 23.3731 5.54167 23.3731H2.04167C0.914085 23.3731 0 22.459 0 21.3314V9.89461C0 9.12111 0.34114 8.38699 0.932348 7.88823L8.80735 1.2446Z" fill="#616161"/>
</svg>
