<svg width="25" height="25" viewBox="0 0 25 25" fill="none" xmlns="http://www.w3.org/2000/svg">
<path d="M12.1226 6.4707V9.81089" stroke="#444750" stroke-width="1.50459" stroke-miterlimit="10" stroke-linecap="round"/>
<path d="M12.1424 2.0166C8.45114 2.0166 5.46202 5.00572 5.46202 8.69698V10.8034C5.46202 11.4855 5.18116 12.5086 4.83009 13.0904L3.55621 15.2169C2.77382 16.5309 3.31547 17.9953 4.75988 18.4768C9.5545 20.0717 14.7403 20.0717 19.5349 18.4768C20.8891 18.0254 21.4709 16.4406 20.7386 15.2169L19.4647 13.0904C19.1137 12.5086 18.8328 11.4755 18.8328 10.8034V8.69698C18.8228 5.02578 15.8136 2.0166 12.1424 2.0166Z" stroke="#444750" stroke-width="1.50459" stroke-miterlimit="10" stroke-linecap="round"/>
<path d="M15.4626 18.8887C15.4626 20.7243 13.958 22.2289 12.1224 22.2289C11.2096 22.2289 10.3671 21.8477 9.76522 21.2459C9.16339 20.644 8.78223 19.8015 8.78223 18.8887" stroke="#444750" stroke-width="1.50459" stroke-miterlimit="10"/>
<rect x="14.1285" y="1.0138" width="9.02754" height="9.02754" rx="4.51377" fill="#F57600"/>
<rect x="14.1285" y="1.0138" width="9.02754" height="9.02754" rx="4.51377" stroke="white" stroke-width="2.00612"/>
</svg>
