<svg width="25" height="25" viewBox="0 0 25 25" fill="none" xmlns="http://www.w3.org/2000/svg">
<path d="M21.3884 14.456C21.1932 14.1544 20.9158 13.8529 20.5563 13.6619C20.2686 13.5211 20.0837 13.2899 19.9193 13.0185C19.3954 12.1541 19.7036 11.0182 20.5768 10.5055C21.6041 9.93253 21.9328 8.6559 21.337 7.66074L20.6487 6.47459C20.0632 5.47942 18.779 5.1276 17.762 5.71062C16.858 6.19313 15.6972 5.87146 15.1733 5.01703C15.0089 4.73557 14.9164 4.434 14.937 4.13244C14.9678 3.7404 14.8445 3.36847 14.6596 3.06691C14.2795 2.44367 13.5912 2.02148 12.8311 2.02148H11.3826C10.6327 2.04159 9.94438 2.44367 9.56428 3.06691C9.3691 3.36847 9.2561 3.7404 9.27664 4.13244C9.29719 4.434 9.20473 4.73557 9.04037 5.01703C8.51645 5.87146 7.35562 6.19313 6.46188 5.71062C5.43459 5.1276 4.16075 5.47942 3.56493 6.47459L2.87665 7.66074C2.29109 8.6559 2.61982 9.93253 3.63684 10.5055C4.51003 11.0182 4.81822 12.1541 4.30457 13.0185C4.12994 13.2899 3.94502 13.5211 3.65738 13.6619C3.30811 13.8529 2.99992 14.1544 2.83555 14.456C2.45546 15.0792 2.476 15.8633 2.8561 16.5167L3.56493 17.7229C3.94502 18.3663 4.65385 18.7684 5.3935 18.7684C5.74278 18.7684 6.15369 18.6678 6.48242 18.4668C6.73924 18.2959 7.04743 18.2356 7.38644 18.2356C8.40345 18.2356 9.2561 19.0699 9.27664 20.0651C9.27664 21.2211 10.2217 22.1258 11.4134 22.1258H12.8105C13.9919 22.1258 14.937 21.2211 14.937 20.0651C14.9678 19.0699 15.8205 18.2356 16.8375 18.2356C17.1662 18.2356 17.4744 18.2959 17.7415 18.4668C18.0702 18.6678 18.4709 18.7684 18.8304 18.7684C19.5598 18.7684 20.2686 18.3663 20.6487 17.7229L21.3678 16.5167C21.7376 15.8432 21.7685 15.0792 21.3884 14.456" stroke="#444750" stroke-width="1.4073"/>
<path d="M12.1221 14.9187C10.5092 14.9187 9.20459 13.6622 9.20459 12.084C9.20459 10.5058 10.5092 9.23926 12.1221 9.23926C13.7349 9.23926 15.0088 10.5058 15.0088 12.084C15.0088 13.6622 13.7349 14.9187 12.1221 14.9187Z" fill="#444750"/>
</svg>
