<svg width="55" height="55" viewBox="0 0 55 55" fill="none" xmlns="http://www.w3.org/2000/svg">
<circle cx="27.4555" cy="27.6228" r="27.0495" fill="#E6F7FE" stroke="#03A9F4" stroke-width="0.644036"/>
<path d="M40.4336 35.2308L38.2198 35.754C37.9773 35.809 37.7553 35.9314 37.5795 36.1072C37.4037 36.283 37.2813 36.505 37.2263 36.7475L36.7562 38.7182C36.6995 38.9607 36.5766 39.1828 36.4012 39.3595C36.2257 39.5362 36.0046 39.6608 35.7625 39.7192C35.5204 39.7777 35.2668 39.7677 35.0301 39.6905C34.7933 39.6132 34.5826 39.4717 34.4216 39.2818L30.4076 34.6672C30.333 34.5811 30.2816 34.4773 30.2583 34.3658C30.235 34.2542 30.2405 34.1386 30.2744 34.0298C30.3082 33.921 30.3693 33.8226 30.4518 33.744C30.5342 33.6653 30.6354 33.609 30.7457 33.5804C33.1276 33.0011 35.2591 31.6691 36.8238 29.7822C36.8819 29.7089 36.9546 29.6486 37.0373 29.6052C37.1201 29.5617 37.211 29.536 37.3043 29.5298C37.3976 29.5236 37.4911 29.537 37.5789 29.5691C37.6667 29.6012 37.7468 29.6513 37.814 29.7162L40.7927 32.6949C41.8119 33.7141 41.4496 34.9893 40.4304 35.2308H40.4336Z" fill="#03A9F4"/>
<path d="M15.1814 32.695L18.16 29.7163C18.2274 29.6509 18.3078 29.6005 18.396 29.5682C18.4842 29.5359 18.5781 29.5225 18.6718 29.5289C18.7655 29.5353 18.8568 29.5613 18.9397 29.6052C19.0227 29.6491 19.0955 29.71 19.1535 29.7839C20.7184 31.6702 22.8499 33.0016 25.2315 33.5805C25.3416 33.6095 25.4424 33.6661 25.5245 33.7449C25.6066 33.8237 25.6673 33.9222 25.7008 34.0309C25.7343 34.1397 25.7396 34.2552 25.7161 34.3665C25.6926 34.4779 25.6411 34.5814 25.5664 34.6673L21.5557 39.2818C21.3947 39.4718 21.184 39.6133 20.9472 39.6906C20.7105 39.7678 20.4569 39.7778 20.2148 39.7193C19.9727 39.6609 19.7516 39.5363 19.5761 39.3596C19.4007 39.1828 19.2777 38.9608 19.2211 38.7183L18.7509 36.746C18.696 36.5035 18.5735 36.2815 18.3977 36.1057C18.2219 35.9299 18 35.8075 17.7575 35.7525L15.5404 35.2309C14.5244 34.9893 14.1622 33.7125 15.1814 32.695Z" fill="#03A9F4"/>
<path d="M37.415 22.5238C37.4245 24.7716 36.6222 26.9472 35.1555 28.6506C33.6888 30.3539 31.6564 31.4704 29.4321 31.7947C28.4998 31.9557 27.5468 31.9557 26.6145 31.7947C24.839 31.5239 23.1784 30.7492 21.83 29.5628C20.4816 28.3763 19.502 26.8279 19.0074 25.1013C18.5128 23.3747 18.524 21.5424 19.0398 19.822C19.5555 18.1015 20.554 16.5652 21.9169 15.3954C23.2797 14.2255 24.9496 13.4713 26.7283 13.2223C28.507 12.9732 30.3198 13.2398 31.9516 13.9903C33.5833 14.7408 34.9654 15.9438 35.9338 17.4564C36.9023 18.969 37.4163 20.7277 37.415 22.5238ZM31.6718 20.7672L30.2356 20.5257C30.1009 20.4977 29.9738 20.4412 29.8628 20.3602C29.7517 20.2791 29.6592 20.1752 29.5915 20.0555L28.7994 18.4728C28.3695 17.6146 27.6723 17.6146 27.2424 18.4728L26.4519 20.0555C26.385 20.1734 26.2943 20.276 26.1857 20.357C26.077 20.4379 25.9527 20.4953 25.8207 20.5257L24.3845 20.7672C23.4716 20.9153 23.2574 21.5722 23.9144 22.2292L25.0543 23.3433C25.1497 23.4548 25.2196 23.5857 25.2591 23.727C25.2986 23.8683 25.3067 24.0165 25.2829 24.1613L24.9609 25.5427C24.7065 26.6295 25.2829 27.0449 26.249 26.4814L27.5934 25.6909C27.7297 25.6181 27.8817 25.5801 28.0362 25.5801C28.1906 25.5801 28.3427 25.6181 28.479 25.6909L29.8202 26.483C30.7862 27.0594 31.3626 26.6312 31.1082 25.5443L30.7862 24.1629C30.7583 24.0182 30.7644 23.8689 30.804 23.7269C30.8437 23.585 30.9159 23.4542 31.0149 23.345L32.129 22.2308C32.786 21.5739 32.5718 20.9153 31.6734 20.7688L31.6718 20.7672Z" fill="#03A9F4"/>
</svg>
