<svg width="55" height="55" viewBox="0 0 55 55" fill="none" xmlns="http://www.w3.org/2000/svg">
<circle cx="27.4555" cy="27.6191" r="27.0495" fill="#FFF9F0" stroke="#FFA500" stroke-width="0.644036"/>
<path d="M40.4336 35.2271L38.2198 35.7504C37.9773 35.8053 37.7553 35.9278 37.5795 36.1036C37.4037 36.2794 37.2813 36.5013 37.2263 36.7438L36.7562 38.7146C36.6995 38.9571 36.5766 39.1791 36.4012 39.3558C36.2257 39.5326 36.0046 39.6571 35.7625 39.7156C35.5204 39.774 35.2668 39.764 35.0301 39.6868C34.7933 39.6095 34.5826 39.4681 34.4216 39.2781L30.4076 34.6636C30.333 34.5774 30.2816 34.4737 30.2583 34.3621C30.235 34.2506 30.2405 34.1349 30.2744 34.0261C30.3082 33.9173 30.3693 33.8189 30.4518 33.7403C30.5342 33.6617 30.6354 33.6054 30.7457 33.5768C33.1276 32.9974 35.2591 31.6654 36.8238 29.7786C36.8819 29.7053 36.9546 29.645 37.0373 29.6015C37.1201 29.558 37.211 29.5324 37.3043 29.5261C37.3976 29.5199 37.4911 29.5333 37.5789 29.5654C37.6667 29.5975 37.7468 29.6476 37.814 29.7125L40.7927 32.6912C41.8119 33.7104 41.4496 34.9856 40.4304 35.2271H40.4336Z" fill="#FFA500"/>
<path d="M15.1814 32.6913L18.16 29.7126C18.2274 29.6473 18.3078 29.5968 18.396 29.5645C18.4842 29.5322 18.5781 29.5189 18.6718 29.5252C18.7655 29.5316 18.8568 29.5576 18.9397 29.6015C19.0227 29.6455 19.0955 29.7064 19.1535 29.7803C20.7184 31.6666 22.8499 32.998 25.2315 33.5769C25.3416 33.6059 25.4424 33.6625 25.5245 33.7413C25.6066 33.8201 25.6673 33.9185 25.7008 34.0273C25.7343 34.136 25.7396 34.2515 25.7161 34.3629C25.6926 34.4742 25.6411 34.5777 25.5664 34.6637L21.5557 39.2782C21.3947 39.4682 21.184 39.6096 20.9472 39.6869C20.7105 39.7641 20.4569 39.7741 20.2148 39.7157C19.9727 39.6572 19.7516 39.5327 19.5761 39.3559C19.4007 39.1792 19.2777 38.9572 19.2211 38.7147L18.7509 36.7423C18.696 36.4998 18.5735 36.2779 18.3977 36.1021C18.2219 35.9263 18 35.8038 17.7575 35.7489L15.5404 35.2272C14.5244 34.9857 14.1622 33.7089 15.1814 32.6913Z" fill="#FFA500"/>
<path d="M37.415 22.5201C37.4245 24.7679 36.6222 26.9436 35.1555 28.6469C33.6888 30.3502 31.6564 31.4667 29.4321 31.791C28.4998 31.952 27.5468 31.952 26.6145 31.791C24.839 31.5202 23.1784 30.7456 21.83 29.5591C20.4816 28.3727 19.502 26.8242 19.0074 25.0976C18.5128 23.371 18.524 21.5387 19.0398 19.8183C19.5555 18.0979 20.554 16.5615 21.9169 15.3917C23.2797 14.2219 24.9496 13.4677 26.7283 13.2186C28.507 12.9695 30.3198 13.2361 31.9516 13.9866C33.5833 14.7372 34.9654 15.9401 35.9338 17.4527C36.9023 18.9654 37.4163 20.7241 37.415 22.5201ZM31.6718 20.7635L30.2356 20.522C30.1009 20.494 29.9738 20.4376 29.8628 20.3565C29.7517 20.2754 29.6592 20.1716 29.5915 20.0519L28.7994 18.4692C28.3695 17.611 27.6723 17.611 27.2424 18.4692L26.4519 20.0519C26.385 20.1697 26.2943 20.2724 26.1857 20.3533C26.077 20.4342 25.9527 20.4917 25.8207 20.522L24.3845 20.7635C23.4716 20.9117 23.2574 21.5686 23.9144 22.2255L25.0543 23.3397C25.1497 23.4511 25.2196 23.5821 25.2591 23.7233C25.2986 23.8646 25.3067 24.0128 25.2829 24.1576L24.9609 25.5391C24.7065 26.6259 25.2829 27.0413 26.249 26.4777L27.5934 25.6872C27.7297 25.6145 27.8817 25.5764 28.0362 25.5764C28.1906 25.5764 28.3427 25.6145 28.479 25.6872L29.8202 26.4794C30.7862 27.0558 31.3626 26.6275 31.1082 25.5407L30.7862 24.1592C30.7583 24.0145 30.7644 23.8652 30.804 23.7233C30.8437 23.5813 30.9159 23.4505 31.0149 23.3413L32.129 22.2271C32.786 21.5702 32.5718 20.9117 31.6734 20.7651L31.6718 20.7635Z" fill="#FFA500"/>
</svg>
