<svg width="38" height="19" viewBox="0 0 38 19" fill="none" xmlns="http://www.w3.org/2000/svg">
<path d="M20.491 1.2472L22.0108 4.31188C22.218 4.73849 22.7707 5.14769 23.237 5.22605L25.9915 5.68749C27.753 5.98351 28.1675 7.27207 26.8982 8.54321L24.7567 10.7024C24.394 11.0681 24.1955 11.7733 24.3077 12.2783L24.9208 14.9512C25.4043 17.0668 24.2904 17.8853 22.4339 16.7795L19.8521 15.2385C19.3858 14.9599 18.6173 14.9599 18.1424 15.2385L15.5606 16.7795C13.7127 17.8853 12.5902 17.0581 13.0737 14.9512L13.6868 12.2783C13.799 11.7733 13.6004 11.0681 13.2378 10.7024L11.0963 8.54321C9.83563 7.27207 10.2415 5.98351 12.003 5.68749L14.7575 5.22605C15.2152 5.14769 15.7678 4.73849 15.975 4.31188L17.4948 1.2472C18.3237 -0.415733 19.6707 -0.415733 20.491 1.2472Z" fill="#FFA500"/>
<path d="M32.9976 7.78075L34.0615 9.92603C34.2065 10.2247 34.5934 10.5111 34.9198 10.5659L36.8479 10.889C38.081 11.0962 38.3712 11.9982 37.4826 12.888L35.9836 14.3994C35.7297 14.6554 35.5907 15.149 35.6693 15.5025L36.0985 17.3735C36.4369 18.8545 35.6572 19.4274 34.3577 18.6534L32.5504 17.5747C32.224 17.3796 31.686 17.3796 31.3536 17.5747L29.5463 18.6534C28.2528 19.4274 27.467 18.8484 27.8055 17.3735L28.2347 15.5025C28.3132 15.149 28.1742 14.6554 27.9203 14.3994L26.4213 12.888C25.5388 11.9982 25.8229 11.0962 27.056 10.889L28.9842 10.5659C29.3045 10.5111 29.6914 10.2247 29.8364 9.92603L30.9002 7.78075C31.4805 6.6167 32.4234 6.6167 32.9976 7.78075Z" fill="#FFA500"/>
<path d="M7.08943 7.781L8.15325 9.92627C8.29833 10.2249 8.68515 10.5113 9.01159 10.5662L10.9397 10.8892C12.1728 11.0964 12.463 11.9984 11.5744 12.8882L10.0754 14.3996C9.82151 14.6556 9.68253 15.1493 9.76106 15.5028L10.1903 17.3738C10.5287 18.8547 9.74897 19.4276 8.44946 18.6536L6.64216 17.5749C6.31578 17.3799 5.77783 17.3799 5.44535 17.5749L3.63809 18.6536C2.34459 19.4276 1.55882 18.8486 1.8973 17.3738L2.32646 15.5028C2.40503 15.1493 2.26601 14.6556 2.01214 14.3996L0.513131 12.8882C-0.369355 11.9984 -0.0852662 11.0964 1.14779 10.8892L3.07596 10.5662C3.39632 10.5113 3.78316 10.2249 3.92822 9.92627L4.99203 7.781C5.5723 6.61695 6.51521 6.61695 7.08943 7.781Z" fill="#FFA500"/>
</svg>
