<svg width="55" height="55" viewBox="0 0 55 55" fill="none" xmlns="http://www.w3.org/2000/svg">
<circle cx="27.4555" cy="27.6269" r="27.0495" fill="#F6F6F6" stroke="#616161" stroke-width="0.644036"/>
<path d="M40.4336 35.2349L38.2198 35.7582C37.9773 35.8131 37.7553 35.9356 37.5795 36.1114C37.4037 36.2872 37.2813 36.5092 37.2263 36.7516L36.7562 38.7224C36.6995 38.9649 36.5766 39.1869 36.4012 39.3637C36.2257 39.5404 36.0046 39.6649 35.7625 39.7234C35.5204 39.7818 35.2668 39.7719 35.0301 39.6946C34.7933 39.6174 34.5826 39.4759 34.4216 39.2859L30.4076 34.6714C30.333 34.5852 30.2816 34.4815 30.2583 34.3699C30.235 34.2584 30.2405 34.1427 30.2744 34.0339C30.3082 33.9251 30.3693 33.8267 30.4518 33.7481C30.5342 33.6695 30.6354 33.6132 30.7457 33.5846C33.1276 33.0052 35.2591 31.6733 36.8238 29.7864C36.8819 29.7131 36.9546 29.6528 37.0373 29.6093C37.1201 29.5658 37.211 29.5402 37.3043 29.534C37.3976 29.5277 37.4911 29.5411 37.5789 29.5732C37.6667 29.6053 37.7468 29.6554 37.814 29.7204L40.7927 32.699C41.8119 33.7182 41.4496 34.9934 40.4304 35.2349H40.4336Z" fill="#616161"/>
<path d="M15.1814 32.6991L18.16 29.7204C18.2274 29.6551 18.3078 29.6046 18.396 29.5723C18.4842 29.5401 18.5781 29.5267 18.6718 29.533C18.7655 29.5394 18.8568 29.5654 18.9397 29.6094C19.0227 29.6533 19.0955 29.7142 19.1535 29.7881C20.7184 31.6744 22.8499 33.0058 25.2315 33.5847C25.3416 33.6137 25.4424 33.6703 25.5245 33.7491C25.6066 33.8279 25.6673 33.9263 25.7008 34.0351C25.7343 34.1438 25.7396 34.2593 25.7161 34.3707C25.6926 34.482 25.6411 34.5856 25.5664 34.6715L21.5557 39.286C21.3947 39.476 21.184 39.6175 20.9472 39.6947C20.7105 39.7719 20.4569 39.7819 20.2148 39.7235C19.9727 39.665 19.7516 39.5405 19.5761 39.3637C19.4007 39.187 19.2777 38.965 19.2211 38.7225L18.7509 36.7501C18.696 36.5076 18.5735 36.2857 18.3977 36.1099C18.2219 35.9341 18 35.8116 17.7575 35.7567L15.5404 35.235C14.5244 34.9935 14.1622 33.7167 15.1814 32.6991Z" fill="#616161"/>
<path d="M37.415 22.528C37.4245 24.7757 36.6222 26.9514 35.1555 28.6547C33.6888 30.3581 31.6564 31.4746 29.4321 31.7989C28.4998 31.9599 27.5468 31.9599 26.6145 31.7989C24.839 31.528 23.1784 30.7534 21.83 29.5669C20.4816 28.3805 19.502 26.8321 19.0074 25.1054C18.5128 23.3788 18.524 21.5465 19.0398 19.8261C19.5555 18.1057 20.554 16.5694 21.9169 15.3995C23.2797 14.2297 24.9496 13.4755 26.7283 13.2264C28.507 12.9774 30.3198 13.2439 31.9516 13.9944C33.5833 14.745 34.9654 15.9479 35.9338 17.4606C36.9023 18.9732 37.4163 20.7319 37.415 22.528ZM31.6718 20.7714L30.2356 20.5298C30.1009 20.5018 29.9738 20.4454 29.8628 20.3643C29.7517 20.2832 29.6592 20.1794 29.5915 20.0597L28.7994 18.477C28.3695 17.6188 27.6723 17.6188 27.2424 18.477L26.4519 20.0597C26.385 20.1775 26.2943 20.2802 26.1857 20.3611C26.077 20.442 25.9527 20.4995 25.8207 20.5298L24.3845 20.7714C23.4716 20.9195 23.2574 21.5764 23.9144 22.2333L25.0543 23.3475C25.1497 23.4589 25.2196 23.5899 25.2591 23.7312C25.2986 23.8724 25.3067 24.0207 25.2829 24.1654L24.9609 25.5469C24.7065 26.6337 25.2829 27.0491 26.249 26.4856L27.5934 25.695C27.7297 25.6223 27.8817 25.5842 28.0362 25.5842C28.1906 25.5842 28.3427 25.6223 28.479 25.695L29.8202 26.4872C30.7862 27.0636 31.3626 26.6353 31.1082 25.5485L30.7862 24.167C30.7583 24.0223 30.7644 23.8731 30.804 23.7311C30.8437 23.5891 30.9159 23.4584 31.0149 23.3491L32.129 22.2349C32.786 21.578 32.5718 20.9195 31.6734 20.773L31.6718 20.7714Z" fill="#616161"/>
</svg>
