<svg width="38" height="39" viewBox="0 0 38 39" fill="none" xmlns="http://www.w3.org/2000/svg">
<circle cx="19.4131" cy="19.5" r="18.3683" fill="#F4FAF4" stroke="#4CAF50" stroke-width="0.43734"/>
<path d="M28.224 24.6672L26.7206 25.0226C26.556 25.0599 26.4053 25.143 26.2859 25.2624C26.1665 25.3818 26.0833 25.5325 26.046 25.6972L25.7268 27.0354C25.6883 27.2001 25.6048 27.3509 25.4857 27.4709C25.3665 27.5909 25.2164 27.6755 25.052 27.7152C24.8876 27.7549 24.7154 27.7481 24.5546 27.6956C24.3938 27.6432 24.2508 27.5471 24.1414 27.4181L21.4157 24.2846C21.365 24.2261 21.3301 24.1556 21.3143 24.0799C21.2985 24.0041 21.3022 23.9256 21.3252 23.8517C21.3482 23.7778 21.3897 23.711 21.4457 23.6576C21.5017 23.6042 21.5704 23.566 21.6453 23.5465C23.2627 23.1531 24.7101 22.2486 25.7727 20.9673C25.8121 20.9176 25.8615 20.8766 25.9177 20.8471C25.9739 20.8176 26.0356 20.8002 26.099 20.7959C26.1623 20.7917 26.2258 20.8008 26.2854 20.8226C26.345 20.8444 26.3994 20.8784 26.4451 20.9225L28.4678 22.9452C29.1599 23.6373 28.9139 24.5032 28.2218 24.6672H28.224Z" fill="#4CAF50"/>
<path d="M11.0763 22.944L13.099 20.9213C13.1448 20.8769 13.1994 20.8426 13.2593 20.8207C13.3192 20.7988 13.383 20.7897 13.4466 20.794C13.5102 20.7983 13.5722 20.816 13.6285 20.8458C13.6849 20.8757 13.7343 20.917 13.7736 20.9672C14.8364 22.2481 16.2838 23.1522 17.901 23.5453C17.9758 23.565 18.0442 23.6035 18.1 23.657C18.1557 23.7105 18.1969 23.7773 18.2197 23.8512C18.2425 23.925 18.246 24.0035 18.2301 24.0791C18.2141 24.1547 18.1791 24.225 18.1285 24.2833L15.4049 27.4169C15.2956 27.5459 15.1525 27.642 14.9917 27.6944C14.8309 27.7469 14.6588 27.7536 14.4944 27.7139C14.33 27.6743 14.1798 27.5897 14.0607 27.4697C13.9415 27.3496 13.858 27.1989 13.8196 27.0342L13.5003 25.6948C13.463 25.5302 13.3798 25.3795 13.2605 25.2601C13.1411 25.1407 12.9904 25.0576 12.8257 25.0203L11.3202 24.666C10.6303 24.502 10.3843 23.635 11.0763 22.944Z" fill="#4CAF50"/>
<path d="M26.174 16.038C26.1805 17.5644 25.6356 19.0418 24.6397 20.1985C23.6437 21.3552 22.2636 22.1133 20.7532 22.3336C20.1201 22.4429 19.4729 22.4429 18.8398 22.3336C17.6341 22.1496 16.5065 21.6236 15.5909 20.818C14.6752 20.0123 14.01 18.9608 13.6741 17.7883C13.3383 16.6158 13.3459 15.3716 13.6961 14.2033C14.0463 13.035 14.7244 11.9918 15.6498 11.1974C16.5753 10.403 17.7093 9.89086 18.9171 9.72173C20.125 9.55261 21.356 9.73361 22.464 10.2433C23.5721 10.7529 24.5106 11.5698 25.1682 12.597C25.8258 13.6241 26.1749 14.8184 26.174 16.038ZM22.274 14.8452L21.2988 14.6812C21.2073 14.6622 21.121 14.6239 21.0456 14.5688C20.9702 14.5137 20.9074 14.4432 20.8614 14.3619L20.3235 13.2872C20.0316 12.7044 19.5581 12.7044 19.2662 13.2872L18.7294 14.3619C18.684 14.442 18.6224 14.5117 18.5486 14.5666C18.4749 14.6216 18.3905 14.6606 18.3008 14.6812L17.3255 14.8452C16.7056 14.9458 16.5602 15.3919 17.0063 15.838L17.7804 16.5946C17.8452 16.6702 17.8926 16.7591 17.9195 16.8551C17.9463 16.951 17.9518 17.0517 17.9356 17.15L17.7169 18.0881C17.5442 18.8261 17.9356 19.1082 18.5916 18.7255L19.5046 18.1887C19.5971 18.1393 19.7004 18.1134 19.8052 18.1134C19.9101 18.1134 20.0134 18.1393 20.1059 18.1887L21.0167 18.7266C21.6727 19.118 22.0641 18.8272 21.8914 18.0892L21.6727 17.1511C21.6537 17.0528 21.6578 16.9515 21.6848 16.8551C21.7117 16.7587 21.7607 16.6698 21.8279 16.5957L22.5845 15.8391C23.0306 15.393 22.8852 14.9458 22.2751 14.8463L22.274 14.8452Z" fill="#4CAF50"/>
</svg>
