<svg width="33" height="42" viewBox="0 0 33 42" fill="none" xmlns="http://www.w3.org/2000/svg">
<rect y="4.03809" width="31.7824" height="37.9623" fill="url(#paint0_linear_4515_18287)"/>
<path d="M4.66095 0.506836H27.3831L32.044 4.3216H0L4.66095 0.506836Z" fill="#36C0FF"/>
<path d="M15.0869 28.6261V19.5912L13.9465 20.7317C13.6086 21.0696 13.3509 21.3061 13.1735 21.4413C13.0045 21.568 12.8102 21.6694 12.5906 21.7454C12.2949 21.8468 11.9781 21.851 11.6402 21.7581C11.3023 21.6567 10.9982 21.4708 10.7279 21.2005C10.4575 20.9302 10.2717 20.6261 10.1703 20.2881C10.0774 19.9502 10.0816 19.6334 10.183 19.3378C10.259 19.1181 10.3646 18.9196 10.4998 18.7422C10.6349 18.5648 10.8672 18.3114 11.1967 17.9819L14.9349 14.2437C15.636 13.5426 16.371 13.192 17.1398 13.192C17.7564 13.192 18.2591 13.3863 18.6477 13.7749C18.9011 14.0283 19.0616 14.3155 19.1292 14.6366C19.2052 14.9491 19.2433 15.3419 19.2433 15.815V28.6261C19.2433 29.1499 19.2264 29.5258 19.1926 29.7539C19.1672 29.982 19.0996 30.2059 18.9898 30.4255C18.8378 30.7296 18.597 30.9746 18.2675 31.1605C17.9465 31.3463 17.579 31.4393 17.1651 31.4393C16.7512 31.4393 16.3794 31.3463 16.05 31.1605C15.729 30.9746 15.4924 30.7296 15.3404 30.4255C15.2305 30.2059 15.1587 29.982 15.1249 29.7539C15.0996 29.5258 15.0869 29.1499 15.0869 28.6261Z" fill="white"/>
<defs>
<linearGradient id="paint0_linear_4515_18287" x1="15.8912" y1="4.03809" x2="15.8912" y2="39.3519" gradientUnits="userSpaceOnUse">
<stop offset="0.464" stop-color="#03A9F4"/>
<stop offset="1" stop-color="#03A9F4" stop-opacity="0"/>
</linearGradient>
</defs>
</svg>
