<svg width="23" height="22" viewBox="0 0 23 22" fill="none" xmlns="http://www.w3.org/2000/svg">
<path d="M9.55927 1.07685C10.7664 0.40705 12.2336 0.407049 13.4407 1.07685L16.4738 2.75977L19.3809 4.35765C20.6623 5.06197 21.4573 6.40939 21.4542 7.87163L21.4475 11L21.4542 14.1284C21.4573 15.5906 20.6623 16.938 19.3809 17.6424L16.4738 19.2402L13.4407 20.9232C12.2336 21.593 10.7664 21.593 9.55927 20.9232L6.52625 19.2402L3.61909 17.6424C2.33766 16.938 1.54266 15.5906 1.54579 14.1284L1.5525 11L1.54579 7.87163C1.54266 6.40939 2.33765 5.06197 3.61909 4.35765L6.52625 2.75977L9.55927 1.07685Z" fill="#FFA500"/>
<g clip-path="url(#clip0_3234_26501)">
<path d="M11.5 8.25L13.4167 11L15.8125 9.16667L14.8542 13.75H8.14583L7.1875 9.16667L9.58333 11L11.5 8.25Z" fill="white" stroke="white" stroke-width="1.5" stroke-linecap="round" stroke-linejoin="round"/>
</g>
<defs>
<clipPath id="clip0_3234_26501">
<rect width="11.5" height="11" fill="white" transform="translate(5.75 5.5)"/>
</clipPath>
</defs>
</svg>
