<svg width="76" height="27" viewBox="0 0 76 27" fill="none" xmlns="http://www.w3.org/2000/svg">
<rect y="0.163086" width="76" height="26" rx="7.57396" fill="#4CAF50" fill-opacity="0.06"/>
<rect x="6.01172" y="6.2207" width="13.8857" height="13.8857" rx="4.38495" fill="#4CAF50"/>
<path d="M10.397 13.5284L11.8586 14.9901L15.5128 11.3359" stroke="white" stroke-width="1.09624" stroke-linecap="round" stroke-linejoin="round"/>
<path d="M36.8177 15.2899L35.6665 12.1442L34.5152 15.2899H36.8177ZM37.156 16.219H34.1769L33.8184 17.1834C33.7713 17.308 33.7326 17.3988 33.7023 17.4561C33.672 17.5099 33.6316 17.5571 33.5811 17.5974C33.4936 17.6681 33.3943 17.7035 33.2832 17.7035C33.1183 17.7035 32.9853 17.6496 32.8843 17.5419C32.8203 17.4746 32.7799 17.4005 32.7631 17.3197C32.7463 17.2356 32.7446 17.1598 32.7581 17.0925C32.7749 17.0218 32.8052 16.9309 32.849 16.8199L35.0505 10.9576C35.1144 10.7859 35.1868 10.6614 35.2676 10.584C35.3753 10.483 35.5083 10.4325 35.6665 10.4325C35.8247 10.4325 35.9576 10.483 36.0654 10.584C36.1462 10.6614 36.2185 10.7859 36.2825 10.9576L38.484 16.8199C38.5277 16.9309 38.5564 17.0218 38.5698 17.0925C38.5867 17.1598 38.5867 17.2356 38.5698 17.3197C38.553 17.4005 38.5126 17.4746 38.4486 17.5419C38.3477 17.6496 38.2147 17.7035 38.0497 17.7035C37.9387 17.7035 37.8394 17.6681 37.7518 17.5974C37.7013 17.5571 37.6609 17.5099 37.6306 17.4561C37.6004 17.3988 37.5616 17.308 37.5145 17.1834L37.156 16.219ZM39.5549 16.32C39.4304 15.9699 39.3681 15.5643 39.3681 15.1031C39.3681 14.6419 39.4304 14.238 39.5549 13.8913C39.6828 13.5412 39.8545 13.2668 40.0699 13.0682C40.2887 12.8696 40.5294 12.7232 40.792 12.6289C41.0546 12.5313 41.3373 12.4825 41.6403 12.4825C42.0543 12.4825 42.428 12.5902 42.7612 12.8057C42.9228 12.91 43.0457 13.0093 43.1298 13.1036C43.2173 13.1978 43.2611 13.3039 43.2611 13.4217C43.2611 13.5429 43.2123 13.6556 43.1147 13.76C43.0271 13.8475 42.9211 13.8913 42.7966 13.8913C42.6821 13.8913 42.5458 13.8256 42.3876 13.6943C42.1519 13.5058 41.9028 13.4116 41.6403 13.4116C41.2397 13.4116 40.9283 13.558 40.7061 13.8509C40.5008 14.1202 40.3981 14.5376 40.3981 15.1031C40.3981 15.6686 40.5008 16.0843 40.7061 16.3503C40.9283 16.6465 41.2397 16.7946 41.6403 16.7946C41.8927 16.7946 42.1418 16.6987 42.3876 16.5068C42.5525 16.3755 42.6888 16.3099 42.7966 16.3099C42.9177 16.3099 43.0238 16.3553 43.1147 16.4462C43.2123 16.5506 43.2611 16.6633 43.2611 16.7845C43.2611 16.9023 43.2157 17.01 43.1248 17.1077C43.0372 17.2019 42.9161 17.2995 42.7612 17.4005C42.4246 17.616 42.0509 17.7237 41.6403 17.7237C41.3373 17.7237 41.0546 17.6766 40.792 17.5823C40.5294 17.4847 40.2887 17.3366 40.0699 17.138C39.8545 16.9394 39.6828 16.6667 39.5549 16.32ZM44.7342 16.2442V13.3308H44.4969C44.332 13.3308 44.2125 13.3106 44.1384 13.2702C44.0172 13.2029 43.9566 13.0918 43.9566 12.9369C43.9566 12.7821 44.0172 12.671 44.1384 12.6037C44.2125 12.5633 44.332 12.5431 44.4969 12.5431H44.7342V11.7403C44.7342 11.5349 44.7595 11.3818 44.81 11.2808C44.8941 11.1192 45.0406 11.0384 45.2493 11.0384C45.458 11.0384 45.6044 11.1192 45.6886 11.2808C45.739 11.3818 45.7643 11.5349 45.7643 11.7403V12.5431H46.3197C46.4847 12.5431 46.6042 12.5633 46.6782 12.6037C46.7994 12.671 46.86 12.7821 46.86 12.9369C46.86 13.0918 46.7994 13.2029 46.6782 13.2702C46.6042 13.3106 46.4847 13.3308 46.3197 13.3308H45.7643V16.1988C45.7643 16.5825 45.9377 16.7795 46.2844 16.7896C46.4594 16.7963 46.584 16.8199 46.658 16.8602C46.796 16.9343 46.865 17.0555 46.865 17.2238C46.865 17.3887 46.796 17.5082 46.658 17.5823C46.5604 17.6362 46.4157 17.6631 46.2238 17.6631H46.1228C45.8131 17.6631 45.5505 17.5958 45.3351 17.4611C45.123 17.3265 44.9699 17.1565 44.8756 16.9511C44.7814 16.7424 44.7342 16.5068 44.7342 16.2442ZM49.1025 17.0016C49.1025 17.207 49.0773 17.3601 49.0268 17.4611C48.9426 17.6227 48.7962 17.7035 48.5875 17.7035C48.3788 17.7035 48.2323 17.6227 48.1482 17.4611C48.0977 17.3601 48.0725 17.207 48.0725 17.0016V13.2045C48.0725 12.9992 48.0977 12.846 48.1482 12.7451C48.2323 12.5835 48.3788 12.5027 48.5875 12.5027C48.7962 12.5027 48.9426 12.5835 49.0268 12.7451C49.0773 12.846 49.1025 12.9992 49.1025 13.2045V17.0016ZM48.1482 11.3111C48.027 11.1899 47.9664 11.0434 47.9664 10.8718C47.9664 10.7001 48.027 10.5537 48.1482 10.4325C48.2694 10.3113 48.4158 10.2507 48.5875 10.2507C48.7592 10.2507 48.9056 10.3113 49.0268 10.4325C49.148 10.5537 49.2085 10.7001 49.2085 10.8718C49.2085 11.0434 49.148 11.1899 49.0268 11.3111C48.9056 11.4322 48.7592 11.4928 48.5875 11.4928C48.4158 11.4928 48.2694 11.4322 48.1482 11.3111ZM52.5681 17.5722C52.4671 17.6597 52.3392 17.7035 52.1843 17.7035C52.0295 17.7035 51.9016 17.6597 51.8006 17.5722C51.6996 17.4813 51.6154 17.3332 51.5481 17.1279L50.2403 13.3055C50.1663 13.0867 50.1478 12.9218 50.1848 12.8107C50.2117 12.7299 50.2706 12.6592 50.3615 12.5986C50.4524 12.5347 50.5534 12.5027 50.6645 12.5027C50.8059 12.5027 50.9102 12.5448 50.9775 12.6289C51.0482 12.7097 51.1105 12.8326 51.1644 12.9975L52.1843 16.0726L53.2043 12.9975C53.2581 12.8326 53.3187 12.7097 53.3861 12.6289C53.4567 12.5448 53.5628 12.5027 53.7042 12.5027C53.8152 12.5027 53.9162 12.5347 54.0071 12.5986C54.098 12.6592 54.1569 12.7299 54.1838 12.8107C54.2209 12.9218 54.2024 13.0867 54.1283 13.3055L52.8205 17.1279C52.7498 17.3366 52.6657 17.4847 52.5681 17.5722ZM54.9105 15.1031C54.9105 14.2716 55.1057 13.627 55.4962 13.1692C55.8867 12.7114 56.4152 12.4825 57.0817 12.4825C57.7381 12.4825 58.2582 12.6979 58.6419 13.1288C59.029 13.5597 59.231 14.1202 59.2478 14.8102C59.2546 15.0156 59.2074 15.1687 59.1064 15.2697C59.0189 15.3572 58.8674 15.401 58.652 15.401H55.9304C55.9304 15.8453 56.0432 16.1971 56.2687 16.4563C56.4976 16.7155 56.8225 16.8451 57.2433 16.8451C57.6304 16.8451 57.9586 16.7374 58.2279 16.5219C58.3827 16.3974 58.5224 16.3351 58.647 16.3351C58.7547 16.3351 58.8523 16.3806 58.9398 16.4714C59.0273 16.559 59.0711 16.66 59.0711 16.7744C59.0711 16.9696 58.8994 17.1767 58.5561 17.3955C58.2228 17.6143 57.7768 17.7237 57.218 17.7237C56.8848 17.7237 56.5835 17.6782 56.3142 17.5873C56.0449 17.4931 55.8025 17.3467 55.5871 17.1481C55.3716 16.9495 55.205 16.6768 55.0872 16.3301C54.9694 15.9834 54.9105 15.5744 54.9105 15.1031ZM58.2329 14.684C58.2127 14.3844 58.1656 14.1521 58.0915 13.9872C58.004 13.7886 57.8727 13.6321 57.6977 13.5176C57.5226 13.3998 57.3173 13.3409 57.0817 13.3409C56.8427 13.3409 56.634 13.3998 56.4556 13.5176C56.2805 13.6321 56.1492 13.7886 56.0617 13.9872C55.9843 14.1589 55.9405 14.3911 55.9304 14.684H58.2329Z" fill="#4CAF50"/>
</svg>
