<svg width="98" height="33" viewBox="0 0 98 33" fill="none" xmlns="http://www.w3.org/2000/svg">
<g clip-path="url(#clip0_895_13768)">
<g filter="url(#filter0_ii_895_13768)">
<path fill-rule="evenodd" clip-rule="evenodd" d="M10.1925 3.46118C8.00001 3.46118 6.22266 5.23853 6.22266 7.431V25.5494C6.22266 27.7419 8.00001 29.5192 10.1925 29.5192H24.1717C26.3641 29.5192 28.1415 27.7419 28.1415 25.5494V9.97563L21.3765 3.46118H10.1925Z" fill="#4876F9"/>
</g>
<g filter="url(#filter1_dd_895_13768)">
<path d="M16.4112 16.2293C16.8865 16.2293 17.3343 16.3275 17.7578 16.5226C18.0752 16.6669 18.3619 16.8633 18.62 17.1105C18.8717 17.351 19.0782 17.6315 19.2306 17.9398C19.0268 18.1362 18.7815 18.2331 18.4948 18.2331C18.3917 18.2325 18.2892 18.2179 18.1903 18.1897C18.0166 17.9187 17.7796 17.6905 17.4982 17.5234C17.1718 17.33 16.7958 17.2284 16.4126 17.2301C16.1414 17.2301 15.8781 17.2797 15.6238 17.3792C15.3678 17.4797 15.1356 17.629 14.941 17.818L13.3789 19.3222C13.1825 19.5096 13.0275 19.7333 12.9231 19.9798C12.8209 20.2209 12.7683 20.4789 12.7682 20.7393C12.7682 21.0003 12.82 21.2539 12.9231 21.4989C13.0267 21.7458 13.1818 21.9697 13.3789 22.1565C13.5734 22.3457 13.8058 22.495 14.0619 22.5953C14.3122 22.6935 14.5807 22.7444 14.8519 22.7444C15.123 22.7444 15.3863 22.6948 15.6407 22.5953C15.8966 22.4948 16.1289 22.3456 16.3234 22.1565L17.417 21.1036C17.7642 21.1943 18.1231 21.2404 18.4948 21.2404C18.5542 21.2404 18.6381 21.2378 18.7465 21.2329C18.7055 21.2766 18.6637 21.3196 18.6214 21.3621L17.0593 22.8663C16.7586 23.156 16.4178 23.3747 16.0356 23.5239C15.2759 23.8225 14.4248 23.8221 13.6654 23.5226C13.282 23.372 12.9339 23.1488 12.6417 22.8663C12.341 22.5767 12.1139 22.2485 11.9589 21.8818C11.8053 21.5195 11.7264 21.1319 11.7266 20.7406C11.7266 20.3491 11.8052 19.9611 11.9589 19.5994C12.1139 19.2326 12.341 18.9045 12.6417 18.6149L14.2038 17.1107C14.2335 17.082 14.2787 17.0423 14.338 16.9889C14.6229 16.7439 14.9525 16.5521 15.3102 16.4232C15.6623 16.2962 16.0352 16.2305 16.4112 16.2294V16.2293ZM20.0556 12.7212C20.4623 12.7212 20.865 12.7971 21.2406 12.945C21.6215 13.0929 21.9623 13.3131 22.2643 13.6026C22.5652 13.8922 22.7937 14.2204 22.9473 14.5871C23.101 14.9493 23.1794 15.337 23.1783 15.7283C23.1783 16.1198 23.0997 16.5003 22.9447 16.8695C22.7887 17.2385 22.5569 17.5733 22.2632 17.854L20.7011 19.3582C20.6713 19.388 20.6262 19.4279 20.5668 19.48C20.2824 19.7255 19.9526 19.9173 19.5947 20.0456C19.2424 20.1737 18.8689 20.2394 18.4923 20.2394C18.0263 20.241 17.5659 20.1408 17.1459 19.9463C16.8283 19.802 16.5416 19.6056 16.2833 19.3584C16.0317 19.1179 15.8251 18.8373 15.6728 18.5291C15.8756 18.3326 16.121 18.2357 16.4087 18.2357C16.5095 18.2357 16.6115 18.2506 16.7134 18.2792C16.8865 18.5501 17.123 18.7783 17.404 18.9455C17.7305 19.1388 18.1065 19.2404 18.4898 19.2388C18.7607 19.2388 19.0242 19.1891 19.2784 19.0896C19.5346 18.9895 19.767 18.8402 19.9613 18.6509L21.5234 17.1467C21.7202 16.9596 21.8752 16.7358 21.979 16.489C22.081 16.248 22.134 15.9907 22.134 15.7296C22.134 15.4685 22.0824 15.215 21.979 14.97C21.875 14.7233 21.72 14.4996 21.5234 14.3124C21.3289 14.1232 21.0966 13.9739 20.8405 13.8736C20.59 13.7753 20.3221 13.7247 20.0517 13.7244C19.7806 13.7244 19.5172 13.7741 19.263 13.8736C19.0068 13.9738 18.7745 14.123 18.5801 14.3124L17.4853 15.3653C17.134 15.2738 16.7715 15.2278 16.4075 15.2285C16.348 15.2285 16.2641 15.2311 16.1557 15.236C16.1969 15.1925 16.2384 15.149 16.2822 15.1068L17.8442 13.6026C18.1357 13.3198 18.4834 13.0966 18.8666 12.9463C19.2527 12.7958 19.6476 12.7199 20.0556 12.7212Z" fill="white"/>
</g>
<path d="M27.5059 9.36475L22.0098 9.36475L28.1406 15.2685L28.1406 9.97548L27.5059 9.36475Z" fill="url(#paint0_linear_895_13768)"/>
<path d="M25.3454 9.97559L28.1406 9.97559L21.3756 3.46107L21.3756 6.00576C21.3756 8.19824 23.1529 9.97559 25.3454 9.97559Z" fill="#B5C8FC"/>
</g>
<g clip-path="url(#clip1_895_13768)">
<g filter="url(#filter2_ii_895_13768)">
<path fill-rule="evenodd" clip-rule="evenodd" d="M42.4698 3.46118C40.2773 3.46118 38.5 5.23853 38.5 7.431V25.5494C38.5 27.7419 40.2773 29.5192 42.4698 29.5192H55.6372C57.8297 29.5192 59.607 27.7419 59.607 25.5494V7.431C59.607 7.41389 59.6069 7.3968 59.6067 7.37973V9.9757L53.0922 3.46118H42.4698Z" fill="#32BD7A"/>
</g>
<g filter="url(#filter3_dd_895_13768)">
<path d="M46.1272 23.0047L49.0449 18.8168L51.9777 23.0047H53.3681L49.7194 17.9273L53.1054 13.2329H51.715L49.0449 17.0375L46.3878 13.2329H44.9979L48.3566 17.9273L44.7363 23.0047H46.1272Z" fill="white"/>
</g>
<path d="M58.9957 9.36475H53.7031L59.6069 15.2685L59.6069 9.97548L58.9957 9.36475Z" fill="url(#paint1_linear_895_13768)"/>
<path d="M57.0608 9.97559L59.6055 9.97559L53.091 3.46107L53.091 6.00576C53.091 8.19824 54.8683 9.97559 57.0608 9.97559Z" fill="#EBFFEC"/>
</g>
<g clip-path="url(#clip2_895_13768)">
<g filter="url(#filter4_ii_895_13768)">
<path fill-rule="evenodd" clip-rule="evenodd" d="M73.9347 3.46118C71.7422 3.46118 69.9648 5.23853 69.9648 7.431V25.5494C69.9648 27.7419 71.7422 29.5192 73.9347 29.5192H87.9139C90.1063 29.5192 91.8837 27.7419 91.8837 25.5494V9.97563L85.1187 3.46118H73.9347Z" fill="#F6AD00"/>
</g>
<g filter="url(#filter5_dd_895_13768)">
<path d="M74.7955 22.3446L77.2612 18.8548C77.2927 18.81 77.3341 18.7725 77.3824 18.7449C77.4307 18.7173 77.4847 18.7002 77.5406 18.6949C77.5965 18.6896 77.6529 18.6962 77.7058 18.7143C77.7588 18.7323 77.807 18.7613 77.847 18.7992L79.4765 20.3367L83.0519 14.9402C83.0873 14.8866 83.1364 14.8428 83.1946 14.8129C83.2527 14.7829 83.3179 14.768 83.3838 14.7694C83.4497 14.7708 83.5141 14.7886 83.5708 14.821C83.6275 14.8534 83.6746 14.8993 83.7074 14.9544L88.1497 22.3679C88.1834 22.424 88.2012 22.4877 88.2012 22.5526C88.2013 22.6174 88.1836 22.6811 88.1499 22.7373C88.1162 22.7935 88.0678 22.8401 88.0094 22.8725C87.9511 22.9049 87.8849 22.9219 87.8175 22.9218H75.1126C75.0428 22.9219 74.9743 22.9037 74.9144 22.8691C74.8546 22.8345 74.8057 22.7848 74.773 22.7254C74.7404 22.666 74.7252 22.5991 74.7291 22.532C74.733 22.4649 74.7559 22.4001 74.7953 22.3446H74.7955Z" fill="white"/>
<path d="M75.5339 14.4427C75.5339 14.9363 75.7375 15.4098 76.1 15.7588C76.4625 16.1079 76.9542 16.304 77.4668 16.304C77.9795 16.304 78.4711 16.1079 78.8336 15.7588C79.1961 15.4098 79.3998 14.9363 79.3998 14.4427C79.3998 13.949 79.1961 13.4756 78.8336 13.1265C78.4711 12.7774 77.9795 12.5813 77.4668 12.5813C76.9542 12.5813 76.4625 12.7774 76.1 13.1265C75.7375 13.4756 75.5339 13.949 75.5339 14.4427Z" fill="white"/>
</g>
<path d="M91.2481 9.36475L85.752 9.36475L91.8828 15.2685L91.8828 9.97548L91.2481 9.36475Z" fill="url(#paint2_linear_895_13768)"/>
<path d="M89.0876 9.97559L91.8828 9.97559L85.1177 3.46107L85.1177 6.00576C85.1177 8.19824 86.8951 9.97559 89.0876 9.97559Z" fill="#FBDE99"/>
</g>
<defs>
<filter id="filter0_ii_895_13768" x="6.22266" y="3.21307" width="21.918" height="26.5543" filterUnits="userSpaceOnUse" color-interpolation-filters="sRGB">
<feFlood flood-opacity="0" result="BackgroundImageFix"/>
<feBlend mode="normal" in="SourceGraphic" in2="BackgroundImageFix" result="shape"/>
<feColorMatrix in="SourceAlpha" type="matrix" values="0 0 0 0 0 0 0 0 0 0 0 0 0 0 0 0 0 0 127 0" result="hardAlpha"/>
<feOffset dy="-0.496227"/>
<feGaussianBlur stdDeviation="0.124057"/>
<feComposite in2="hardAlpha" operator="arithmetic" k2="-1" k3="1"/>
<feColorMatrix type="matrix" values="0 0 0 0 0 0 0 0 0 0 0 0 0 0 0 0 0 0 0.3 0"/>
<feBlend mode="normal" in2="shape" result="effect1_innerShadow_895_13768"/>
<feColorMatrix in="SourceAlpha" type="matrix" values="0 0 0 0 0 0 0 0 0 0 0 0 0 0 0 0 0 0 127 0" result="hardAlpha"/>
<feOffset dy="0.496227"/>
<feGaussianBlur stdDeviation="0.124057"/>
<feComposite in2="hardAlpha" operator="arithmetic" k2="-1" k3="1"/>
<feColorMatrix type="matrix" values="0 0 0 0 1 0 0 0 0 1 0 0 0 0 1 0 0 0 0.3 0"/>
<feBlend mode="normal" in2="effect1_innerShadow_895_13768" result="effect2_innerShadow_895_13768"/>
</filter>
<filter id="filter1_dd_895_13768" x="10.7266" y="11.7212" width="20.4512" height="22.0264" filterUnits="userSpaceOnUse" color-interpolation-filters="sRGB">
<feFlood flood-opacity="0" result="BackgroundImageFix"/>
<feColorMatrix in="SourceAlpha" type="matrix" values="0 0 0 0 0 0 0 0 0 0 0 0 0 0 0 0 0 0 127 0" result="hardAlpha"/>
<feOffset dx="4" dy="6"/>
<feGaussianBlur stdDeviation="2"/>
<feColorMatrix type="matrix" values="0 0 0 0 0 0 0 0 0 0 0 0 0 0 0 0 0 0 0.1 0"/>
<feBlend mode="normal" in2="BackgroundImageFix" result="effect1_dropShadow_895_13768"/>
<feColorMatrix in="SourceAlpha" type="matrix" values="0 0 0 0 0 0 0 0 0 0 0 0 0 0 0 0 0 0 127 0" result="hardAlpha"/>
<feOffset/>
<feGaussianBlur stdDeviation="0.5"/>
<feColorMatrix type="matrix" values="0 0 0 0 0 0 0 0 0 0 0 0 0 0 0 0 0 0 0.4 0"/>
<feBlend mode="normal" in2="effect1_dropShadow_895_13768" result="effect2_dropShadow_895_13768"/>
<feBlend mode="normal" in="SourceGraphic" in2="effect2_dropShadow_895_13768" result="shape"/>
</filter>
<filter id="filter2_ii_895_13768" x="38.5" y="3.21307" width="21.1074" height="26.5543" filterUnits="userSpaceOnUse" color-interpolation-filters="sRGB">
<feFlood flood-opacity="0" result="BackgroundImageFix"/>
<feBlend mode="normal" in="SourceGraphic" in2="BackgroundImageFix" result="shape"/>
<feColorMatrix in="SourceAlpha" type="matrix" values="0 0 0 0 0 0 0 0 0 0 0 0 0 0 0 0 0 0 127 0" result="hardAlpha"/>
<feOffset dy="-0.496227"/>
<feGaussianBlur stdDeviation="0.124057"/>
<feComposite in2="hardAlpha" operator="arithmetic" k2="-1" k3="1"/>
<feColorMatrix type="matrix" values="0 0 0 0 0 0 0 0 0 0 0 0 0 0 0 0 0 0 0.3 0"/>
<feBlend mode="normal" in2="shape" result="effect1_innerShadow_895_13768"/>
<feColorMatrix in="SourceAlpha" type="matrix" values="0 0 0 0 0 0 0 0 0 0 0 0 0 0 0 0 0 0 127 0" result="hardAlpha"/>
<feOffset dy="0.496227"/>
<feGaussianBlur stdDeviation="0.124057"/>
<feComposite in2="hardAlpha" operator="arithmetic" k2="-1" k3="1"/>
<feColorMatrix type="matrix" values="0 0 0 0 1 0 0 0 0 1 0 0 0 0 1 0 0 0 0.3 0"/>
<feBlend mode="normal" in2="effect1_innerShadow_895_13768" result="effect2_innerShadow_895_13768"/>
</filter>
<filter id="filter3_dd_895_13768" x="43.7363" y="12.2329" width="17.6309" height="20.7717" filterUnits="userSpaceOnUse" color-interpolation-filters="sRGB">
<feFlood flood-opacity="0" result="BackgroundImageFix"/>
<feColorMatrix in="SourceAlpha" type="matrix" values="0 0 0 0 0 0 0 0 0 0 0 0 0 0 0 0 0 0 127 0" result="hardAlpha"/>
<feOffset dx="4" dy="6"/>
<feGaussianBlur stdDeviation="2"/>
<feColorMatrix type="matrix" values="0 0 0 0 0 0 0 0 0 0 0 0 0 0 0 0 0 0 0.1 0"/>
<feBlend mode="normal" in2="BackgroundImageFix" result="effect1_dropShadow_895_13768"/>
<feColorMatrix in="SourceAlpha" type="matrix" values="0 0 0 0 0 0 0 0 0 0 0 0 0 0 0 0 0 0 127 0" result="hardAlpha"/>
<feOffset/>
<feGaussianBlur stdDeviation="0.5"/>
<feColorMatrix type="matrix" values="0 0 0 0 0 0 0 0 0 0 0 0 0 0 0 0 0 0 0.4 0"/>
<feBlend mode="normal" in2="effect1_dropShadow_895_13768" result="effect2_dropShadow_895_13768"/>
<feBlend mode="normal" in="SourceGraphic" in2="effect2_dropShadow_895_13768" result="shape"/>
</filter>
<filter id="filter4_ii_895_13768" x="69.9648" y="3.21307" width="21.918" height="26.5543" filterUnits="userSpaceOnUse" color-interpolation-filters="sRGB">
<feFlood flood-opacity="0" result="BackgroundImageFix"/>
<feBlend mode="normal" in="SourceGraphic" in2="BackgroundImageFix" result="shape"/>
<feColorMatrix in="SourceAlpha" type="matrix" values="0 0 0 0 0 0 0 0 0 0 0 0 0 0 0 0 0 0 127 0" result="hardAlpha"/>
<feOffset dy="-0.496227"/>
<feGaussianBlur stdDeviation="0.124057"/>
<feComposite in2="hardAlpha" operator="arithmetic" k2="-1" k3="1"/>
<feColorMatrix type="matrix" values="0 0 0 0 0 0 0 0 0 0 0 0 0 0 0 0 0 0 0.3 0"/>
<feBlend mode="normal" in2="shape" result="effect1_innerShadow_895_13768"/>
<feColorMatrix in="SourceAlpha" type="matrix" values="0 0 0 0 0 0 0 0 0 0 0 0 0 0 0 0 0 0 127 0" result="hardAlpha"/>
<feOffset dy="0.496227"/>
<feGaussianBlur stdDeviation="0.124057"/>
<feComposite in2="hardAlpha" operator="arithmetic" k2="-1" k3="1"/>
<feColorMatrix type="matrix" values="0 0 0 0 1 0 0 0 0 1 0 0 0 0 1 0 0 0 0.3 0"/>
<feBlend mode="normal" in2="effect1_innerShadow_895_13768" result="effect2_innerShadow_895_13768"/>
</filter>
<filter id="filter5_dd_895_13768" x="73.7285" y="11.5813" width="22.4727" height="21.3406" filterUnits="userSpaceOnUse" color-interpolation-filters="sRGB">
<feFlood flood-opacity="0" result="BackgroundImageFix"/>
<feColorMatrix in="SourceAlpha" type="matrix" values="0 0 0 0 0 0 0 0 0 0 0 0 0 0 0 0 0 0 127 0" result="hardAlpha"/>
<feOffset dx="4" dy="6"/>
<feGaussianBlur stdDeviation="2"/>
<feColorMatrix type="matrix" values="0 0 0 0 0 0 0 0 0 0 0 0 0 0 0 0 0 0 0.1 0"/>
<feBlend mode="normal" in2="BackgroundImageFix" result="effect1_dropShadow_895_13768"/>
<feColorMatrix in="SourceAlpha" type="matrix" values="0 0 0 0 0 0 0 0 0 0 0 0 0 0 0 0 0 0 127 0" result="hardAlpha"/>
<feOffset/>
<feGaussianBlur stdDeviation="0.5"/>
<feColorMatrix type="matrix" values="0 0 0 0 0 0 0 0 0 0 0 0 0 0 0 0 0 0 0.4 0"/>
<feBlend mode="normal" in2="effect1_dropShadow_895_13768" result="effect2_dropShadow_895_13768"/>
<feBlend mode="normal" in="SourceGraphic" in2="effect2_dropShadow_895_13768" result="shape"/>
</filter>
<linearGradient id="paint0_linear_895_13768" x1="23.3839" y1="8.04149" x2="29.2835" y2="14.168" gradientUnits="userSpaceOnUse">
<stop stop-opacity="0.2"/>
<stop offset="1" stop-opacity="0"/>
</linearGradient>
<linearGradient id="paint1_linear_895_13768" x1="55.0264" y1="8.04149" x2="60.9302" y2="13.9453" gradientUnits="userSpaceOnUse">
<stop stop-opacity="0.2"/>
<stop offset="1" stop-opacity="0"/>
</linearGradient>
<linearGradient id="paint2_linear_895_13768" x1="87.1261" y1="8.04149" x2="93.0257" y2="14.168" gradientUnits="userSpaceOnUse">
<stop stop-opacity="0.2"/>
<stop offset="1" stop-opacity="0"/>
</linearGradient>
<clipPath id="clip0_895_13768">
<rect width="32.4724" height="31.2697" fill="white" transform="translate(0.945312 0.855225)"/>
</clipPath>
<clipPath id="clip1_895_13768">
<rect width="31.2697" height="31.2697" fill="white" transform="translate(33.418 0.855225)"/>
</clipPath>
<clipPath id="clip2_895_13768">
<rect width="32.4724" height="31.2697" fill="white" transform="translate(64.6875 0.855225)"/>
</clipPath>
</defs>
</svg>
