<svg width="18" height="18" viewBox="0 0 18 18" fill="none" xmlns="http://www.w3.org/2000/svg">
<path d="M0.98999 8.6925C0.98999 4.91891 0.98999 3.03212 2.16229 1.8598C3.33461 0.6875 5.2214 0.6875 8.995 0.6875C12.7686 0.6875 14.6554 0.6875 15.8277 1.8598C17 3.03212 17 4.91891 17 8.6925C17 12.4661 17 14.3529 15.8277 15.5252C14.6554 16.6975 12.7686 16.6975 8.995 16.6975C5.2214 16.6975 3.33461 16.6975 2.16229 15.5252C0.98999 14.3529 0.98999 12.4661 0.98999 8.6925Z" fill="#616161" stroke="#616161" stroke-width="1.26395"/>
<path d="M10.7522 10.3956C11.6931 11.3025 13.1003 11.2946 14.0475 10.3877C14.4944 10.7545 14.8282 11.2117 14.9139 11.7808C14.9944 12.3148 14.9806 12.8639 14.9899 13.4068C14.993 13.596 14.8399 13.6975 14.6152 13.6982C14.0248 13.6996 13.4341 13.6989 12.8437 13.6989C11.9663 13.6989 11.0893 13.6992 10.212 13.6989C9.90027 13.6989 9.79499 13.5981 9.8005 13.2884C9.80875 12.825 9.79052 12.3574 9.84763 11.8995C9.92195 11.2998 10.3358 10.6664 10.7522 10.396V10.3956Z" fill="white"/>
<path d="M4.93327 5.87109C5.86429 6.78078 7.27113 6.78146 8.2018 5.87213C8.64254 6.23717 8.97524 6.68926 9.06332 7.25213C9.14486 7.77441 9.12972 8.31217 9.14314 8.84373C9.14727 9.00406 9.01721 9.11485 8.85585 9.13412C8.79908 9.141 8.74128 9.13962 8.68417 9.13962C7.27354 9.13962 5.86326 9.13997 4.45263 9.13962C4.07692 9.13962 3.97852 9.04879 3.98987 8.67171C4.00398 8.2031 3.994 7.72865 4.06866 7.26899C4.16052 6.70336 4.48703 6.24955 4.93362 5.87109H4.93327Z" fill="white"/>
<path d="M10.7654 8.81222C10.7671 7.93315 11.5048 7.20135 12.3921 7.19825C13.2763 7.19516 14.037 7.9476 14.0339 8.82185C14.0305 9.70298 13.2773 10.4365 12.3824 10.43C11.4903 10.4238 10.7637 9.69644 10.7654 8.81222Z" fill="white"/>
<path d="M8.18485 4.30177C8.18485 5.1767 7.4527 5.91367 6.57639 5.92021C5.69836 5.92709 4.95073 5.18221 4.95142 4.30108C4.95142 3.41342 5.68666 2.68437 6.57674 2.68849C7.45821 2.69262 8.18451 3.42133 8.18451 4.30177H8.18485Z" fill="white"/>
<path d="M5.91553 10.9838C5.76724 11.0083 5.62274 11.0716 5.49784 11.0444C5.28178 10.9973 5.19955 10.7299 5.34612 10.5655C5.56666 10.3181 5.8044 10.0848 6.04833 9.86015C6.18596 9.73354 6.34422 9.75625 6.4932 9.90006C6.69929 10.0986 6.90159 10.3012 7.10011 10.5077C7.24806 10.6618 7.25356 10.828 7.12764 10.9666C7.00068 11.1067 6.83725 11.1132 6.66867 10.9845C6.64321 10.9649 6.61843 10.9443 6.57095 10.9057C6.57095 11.0988 6.56098 11.2632 6.57371 11.4256C6.5885 11.6155 6.72372 11.7163 6.94976 11.7174C7.48821 11.7198 8.02631 11.7184 8.56476 11.7184C8.65077 11.7184 8.73678 11.7153 8.82245 11.7208C9.01857 11.7339 9.15206 11.8712 9.14724 12.0494C9.14243 12.2314 9.00893 12.3566 8.80697 12.3573C8.1715 12.3594 7.53569 12.3614 6.89987 12.3573C6.32805 12.3532 5.92895 11.9389 5.91587 11.3448C5.91278 11.2099 5.91553 11.0754 5.91553 10.9835V10.9838Z" fill="white"/>
<path d="M12.3905 5.43298C12.6651 5.23515 12.8282 5.22655 12.962 5.38412C13.0938 5.53861 13.0573 5.70823 12.8464 5.91982C12.6765 6.09013 12.5075 6.26147 12.3355 6.42971C12.1583 6.60277 11.9877 6.60346 11.8112 6.43109C11.6226 6.24702 11.4375 6.05951 11.2521 5.87234C11.0842 5.70272 11.0621 5.51211 11.1929 5.37243C11.3233 5.23274 11.4932 5.23721 11.6811 5.3855C11.6942 5.39582 11.709 5.40442 11.763 5.44089C11.7513 5.22345 11.763 5.03044 11.7245 4.84843C11.6856 4.66539 11.5232 4.61723 11.3484 4.61723C10.7236 4.61791 10.0991 4.6186 9.47433 4.61619C9.30368 4.6155 9.18635 4.51607 9.15504 4.36125C9.12649 4.22087 9.20424 4.06433 9.34049 4.00962C9.39726 3.98692 9.46297 3.97935 9.5249 3.979C10.1439 3.97694 10.7628 3.98141 11.3818 3.97659C11.9897 3.97212 12.4277 4.45345 12.3919 5.01392C12.3833 5.14638 12.3905 5.27988 12.3905 5.43264V5.43298Z" fill="white"/>
</svg>
