<svg width="18" height="18" viewBox="0 0 18 18" fill="none" xmlns="http://www.w3.org/2000/svg">
<path d="M5.36134 1.09866C5.36134 0.92849 5.29374 0.765289 5.17341 0.64496C5.05308 0.524631 4.88988 0.457031 4.71971 0.457031C4.54954 0.457031 4.38634 0.524631 4.26601 0.64496C4.14568 0.765289 4.07808 0.92849 4.07808 1.09866V2.45036C2.84615 2.54874 2.03856 2.79 1.44483 3.38457C0.850257 3.97829 0.609004 4.78675 0.509766 6.01782H17.4847C17.3855 4.78589 17.1442 3.97829 16.5497 3.38457C15.9559 2.79 15.1475 2.54874 13.9164 2.44951V1.09866C13.9164 0.92849 13.8488 0.765289 13.7285 0.64496C13.6081 0.524631 13.4449 0.457031 13.2748 0.457031C13.1046 0.457031 12.9414 0.524631 12.8211 0.64496C12.7007 0.765289 12.6331 0.92849 12.6331 1.09866V2.39304C12.0642 2.38192 11.426 2.38192 10.7083 2.38192H7.28623C6.56846 2.38192 5.93025 2.38192 5.36134 2.39304V1.09866Z" fill="#FF0000"/>
<path fill-rule="evenodd" clip-rule="evenodd" d="M17.5515 9.22567C17.5515 8.5079 17.5515 7.86969 17.5404 7.30078H0.452528C0.441406 7.86969 0.441406 8.5079 0.441406 9.22567V10.9367C0.441406 14.1628 0.441406 15.7763 1.44406 16.7781C2.44586 17.7807 4.05934 17.7807 7.28546 17.7807H10.7075C13.9336 17.7807 15.5471 17.7807 16.5489 16.7781C17.5515 15.7763 17.5515 14.1628 17.5515 10.9367V9.22567Z" fill="#FF0000"/>
</svg>
