<svg width="37" height="36" viewBox="0 0 37 36" fill="none" xmlns="http://www.w3.org/2000/svg">
<g opacity="0.75">
<rect x="0.524963" y="0.25" width="35.3507" height="35.3507" rx="17.6753" fill="#BFBFBF" stroke="white" stroke-width="0.5"/>
</g>
<path d="M26.7183 16.5858C25.9033 15.8048 24.5818 15.8048 23.7668 16.5858C22.9518 17.3668 22.9518 18.6332 23.7668 19.4142C24.5818 20.1953 25.9033 20.1953 26.7183 19.4142C27.5333 18.6332 27.5333 17.3669 26.7183 16.5858Z" fill="white"/>
<path d="M19.6406 16.5858C18.8255 15.8048 17.5041 15.8048 16.689 16.5858C15.874 17.3668 15.874 18.6332 16.689 19.4142C17.5041 20.1953 18.8255 20.1953 19.6406 19.4142C20.4556 18.6332 20.4556 17.3669 19.6406 16.5858Z" fill="white"/>
<path d="M12.5628 16.5858C11.7478 15.8048 10.4263 15.8048 9.61127 16.5858C8.79623 17.3668 8.79623 18.6332 9.61127 19.4142C10.4263 20.1953 11.7478 20.1953 12.5628 19.4142C13.3778 18.6332 13.3778 17.3669 12.5628 16.5858Z" fill="white"/>
</svg>
