<svg width="118" height="35" viewBox="0 0 118 35" fill="none" xmlns="http://www.w3.org/2000/svg">
<rect x="0.945312" y="0.199951" width="34.9094" height="33.8983" rx="7.19054" fill="#576A95" fill-opacity="0.15"/>
<g clip-path="url(#clip0_895_14120)">
<g filter="url(#filter0_ii_895_14120)">
<path fill-rule="evenodd" clip-rule="evenodd" d="M12.9219 5.63062C10.5898 5.63062 8.69922 7.52117 8.69922 9.8533V24.8989C8.69922 27.2311 10.5898 29.1216 12.9219 29.1216H23.8801C26.2122 29.1216 28.1028 27.2311 28.1028 24.8989V11.5032L22.1142 5.63062H12.9219Z" fill="#576A95"/>
</g>
<g filter="url(#filter1_dd_895_14120)">
<path d="M20.0477 20.3008V23.4909C20.0477 23.5957 20.0266 23.6994 19.9856 23.7962C19.9446 23.893 19.8846 23.9809 19.8089 24.0549C19.656 24.2045 19.4488 24.2885 19.2328 24.2884H17.5688C17.3528 24.2885 17.1457 24.2045 16.9927 24.055C16.917 23.981 16.857 23.893 16.816 23.7962C16.775 23.6994 16.7539 23.5956 16.7539 23.4908V20.3008H20.0477ZM19.2328 22.1284H17.5688V23.7302H19.2328V22.1284ZM20.0205 17.1108V18.7126H18.3839V17.1108H20.0205ZM18.4043 5.86548V7.48048H20.0477V9.09549H18.4041V10.5908H20.0477V12.2058H18.4043V13.801H20.0477V15.3962H18.4043V16.9913H16.7539V15.3961H18.3974V13.8009H16.7539V12.2058H18.3974V10.5908H16.7539V8.97583H18.3974V7.48048H16.7539V5.86548H18.4043Z" fill="white"/>
</g>
<path d="M27.5412 10.9529L22.6758 10.9529L28.1031 16.2751V11.5035L27.5412 10.9529Z" fill="url(#paint0_linear_895_14120)"/>
<path d="M26.3355 11.5034L28.1016 11.5034L22.1128 5.63067L22.1128 7.28073C22.1128 9.61285 24.0034 11.5034 26.3355 11.5034Z" fill="#BBC3D4"/>
</g>
<rect x="42.0176" y="0.199951" width="34.9094" height="33.8827" rx="7.19054" fill="#7C8EEE" fill-opacity="0.15"/>
<g clip-path="url(#clip1_895_14120)">
<g filter="url(#filter2_ii_895_14120)">
<path fill-rule="evenodd" clip-rule="evenodd" d="M54.0646 5.59131C51.6936 5.59131 49.7715 7.51338 49.7715 9.88438V24.3977C49.7715 26.7687 51.6936 28.6908 54.0646 28.6908H64.882C67.253 28.6908 69.1751 26.7687 69.1751 24.3977V9.88438C69.1751 9.87965 69.175 9.87493 69.175 9.87021V11.3662L63.1863 5.59131H54.0646Z" fill="#7C8EEE"/>
</g>
<g filter="url(#filter3_dd_895_14120)">
<path d="M64.043 18.6591L57.0585 22.6741C56.5918 22.9452 55.998 22.6196 55.998 22.0908V14.0609C55.998 13.5454 56.5918 13.22 57.0585 13.4776L64.0429 17.4926C64.4953 17.764 64.4953 18.4014 64.0429 18.6591H64.043Z" fill="white"/>
</g>
<path d="M68.6135 10.825H63.748L69.1754 16.0584V11.3663L68.6135 10.825Z" fill="url(#paint1_linear_895_14120)"/>
<path d="M67.4781 11.3662L69.1738 11.3662L63.1851 5.59134L63.1851 7.07314C63.1851 9.44414 65.1071 11.3662 67.4781 11.3662Z" fill="#CAD1F8"/>
</g>
<rect x="83.0898" y="0.199951" width="34.9094" height="34.3525" rx="7.19054" fill="#FA4E4E" fill-opacity="0.15"/>
<g filter="url(#filter4_ii_895_14120)">
<path fill-rule="evenodd" clip-rule="evenodd" d="M95.0664 5.63062C92.7343 5.63062 90.8438 7.52117 90.8438 9.8533V24.8989C90.8438 27.2311 92.7343 29.1216 95.0664 29.1216H106.025C108.357 29.1216 110.247 27.2311 110.247 24.8989V11.5032L104.259 5.63062H95.0664Z" fill="#FA4E4E"/>
</g>
<path d="M104.435 21.451C103.626 21.3922 102.848 21.0978 102.219 20.5679C100.992 20.8328 99.8243 21.2154 98.6568 21.6865C97.7289 23.3055 96.8606 24.1298 96.1122 24.1298C95.9625 24.1298 95.783 24.1004 95.6632 24.012C95.3338 23.8649 95.1543 23.541 95.1543 23.2173C95.1543 22.9523 95.2142 22.2164 98.0581 21.0094C98.7169 19.8319 99.2256 18.6251 99.6448 17.3593C99.2855 16.6529 98.5073 14.916 99.0459 14.033C99.2256 13.7091 99.5849 13.5325 99.9742 13.562C100.273 13.562 100.573 13.7091 100.752 13.9446C101.142 14.4745 101.112 15.5931 100.603 17.2416C101.082 18.1234 101.709 18.9196 102.459 19.5966C103.088 19.4787 103.716 19.3904 104.345 19.3904C105.752 19.4198 105.961 20.0674 105.932 20.4502C105.932 21.451 104.944 21.451 104.435 21.451ZM96.0525 23.276L96.1423 23.2466C96.5614 23.0995 96.8906 22.8052 97.1301 22.4224C96.681 22.599 96.3218 22.8934 96.0525 23.2761V23.276ZM100.034 14.4451H99.9441C99.9142 14.4451 99.8543 14.4451 99.8243 14.4745C99.7046 14.9749 99.7944 15.5047 100.004 15.9757C100.184 15.4754 100.184 14.9455 100.034 14.4451ZM100.244 18.7135L100.214 18.7722L100.184 18.7428C99.9142 19.42 99.6147 20.0969 99.2855 20.7445L99.3454 20.7152V20.7739C100.011 20.5372 100.691 20.3406 101.381 20.1852L101.351 20.1558H101.441C100.992 19.7142 100.573 19.2138 100.244 18.7135ZM104.315 20.2736C104.045 20.2736 103.806 20.2736 103.536 20.3323C103.836 20.4795 104.135 20.5384 104.435 20.5679C104.644 20.5973 104.854 20.5679 105.033 20.5091C105.033 20.4207 104.914 20.2736 104.315 20.2736Z" fill="white"/>
<path d="M109.686 10.9529L104.82 10.9529L110.248 16.2751V11.5035L109.686 10.9529Z" fill="url(#paint2_linear_895_14120)"/>
<path d="M108.48 11.5034L110.246 11.5034L104.257 5.63067L104.257 7.28073C104.257 9.61285 106.148 11.5034 108.48 11.5034Z" fill="#FDB8B8"/>
<defs>
<filter id="filter0_ii_895_14120" x="8.69922" y="5.3667" width="19.4043" height="24.0188" filterUnits="userSpaceOnUse" color-interpolation-filters="sRGB">
<feFlood flood-opacity="0" result="BackgroundImageFix"/>
<feBlend mode="normal" in="SourceGraphic" in2="BackgroundImageFix" result="shape"/>
<feColorMatrix in="SourceAlpha" type="matrix" values="0 0 0 0 0 0 0 0 0 0 0 0 0 0 0 0 0 0 127 0" result="hardAlpha"/>
<feOffset dy="-0.527836"/>
<feGaussianBlur stdDeviation="0.131959"/>
<feComposite in2="hardAlpha" operator="arithmetic" k2="-1" k3="1"/>
<feColorMatrix type="matrix" values="0 0 0 0 0 0 0 0 0 0 0 0 0 0 0 0 0 0 0.3 0"/>
<feBlend mode="normal" in2="shape" result="effect1_innerShadow_895_14120"/>
<feColorMatrix in="SourceAlpha" type="matrix" values="0 0 0 0 0 0 0 0 0 0 0 0 0 0 0 0 0 0 127 0" result="hardAlpha"/>
<feOffset dy="0.527836"/>
<feGaussianBlur stdDeviation="0.131959"/>
<feComposite in2="hardAlpha" operator="arithmetic" k2="-1" k3="1"/>
<feColorMatrix type="matrix" values="0 0 0 0 1 0 0 0 0 1 0 0 0 0 1 0 0 0 0.3 0"/>
<feBlend mode="normal" in2="effect1_innerShadow_895_14120" result="effect2_innerShadow_895_14120"/>
</filter>
<filter id="filter1_dd_895_14120" x="15.7539" y="4.86548" width="12.293" height="29.4229" filterUnits="userSpaceOnUse" color-interpolation-filters="sRGB">
<feFlood flood-opacity="0" result="BackgroundImageFix"/>
<feColorMatrix in="SourceAlpha" type="matrix" values="0 0 0 0 0 0 0 0 0 0 0 0 0 0 0 0 0 0 127 0" result="hardAlpha"/>
<feOffset dx="4" dy="6"/>
<feGaussianBlur stdDeviation="2"/>
<feColorMatrix type="matrix" values="0 0 0 0 0 0 0 0 0 0 0 0 0 0 0 0 0 0 0.1 0"/>
<feBlend mode="normal" in2="BackgroundImageFix" result="effect1_dropShadow_895_14120"/>
<feColorMatrix in="SourceAlpha" type="matrix" values="0 0 0 0 0 0 0 0 0 0 0 0 0 0 0 0 0 0 127 0" result="hardAlpha"/>
<feOffset/>
<feGaussianBlur stdDeviation="0.5"/>
<feColorMatrix type="matrix" values="0 0 0 0 0 0 0 0 0 0 0 0 0 0 0 0 0 0 0.4 0"/>
<feBlend mode="normal" in2="effect1_dropShadow_895_14120" result="effect2_dropShadow_895_14120"/>
<feBlend mode="normal" in="SourceGraphic" in2="effect2_dropShadow_895_14120" result="shape"/>
</filter>
<filter id="filter2_ii_895_14120" x="49.7715" y="5.32299" width="19.4043" height="23.6362" filterUnits="userSpaceOnUse" color-interpolation-filters="sRGB">
<feFlood flood-opacity="0" result="BackgroundImageFix"/>
<feBlend mode="normal" in="SourceGraphic" in2="BackgroundImageFix" result="shape"/>
<feColorMatrix in="SourceAlpha" type="matrix" values="0 0 0 0 0 0 0 0 0 0 0 0 0 0 0 0 0 0 127 0" result="hardAlpha"/>
<feOffset dy="-0.536634"/>
<feGaussianBlur stdDeviation="0.134158"/>
<feComposite in2="hardAlpha" operator="arithmetic" k2="-1" k3="1"/>
<feColorMatrix type="matrix" values="0 0 0 0 0 0 0 0 0 0 0 0 0 0 0 0 0 0 0.3 0"/>
<feBlend mode="normal" in2="shape" result="effect1_innerShadow_895_14120"/>
<feColorMatrix in="SourceAlpha" type="matrix" values="0 0 0 0 0 0 0 0 0 0 0 0 0 0 0 0 0 0 127 0" result="hardAlpha"/>
<feOffset dy="0.536634"/>
<feGaussianBlur stdDeviation="0.134158"/>
<feComposite in2="hardAlpha" operator="arithmetic" k2="-1" k3="1"/>
<feColorMatrix type="matrix" values="0 0 0 0 1 0 0 0 0 1 0 0 0 0 1 0 0 0 0.3 0"/>
<feBlend mode="normal" in2="effect1_innerShadow_895_14120" result="effect2_innerShadow_895_14120"/>
</filter>
<filter id="filter3_dd_895_14120" x="54.998" y="12.3875" width="17.3848" height="20.3843" filterUnits="userSpaceOnUse" color-interpolation-filters="sRGB">
<feFlood flood-opacity="0" result="BackgroundImageFix"/>
<feColorMatrix in="SourceAlpha" type="matrix" values="0 0 0 0 0 0 0 0 0 0 0 0 0 0 0 0 0 0 127 0" result="hardAlpha"/>
<feOffset dx="4" dy="6"/>
<feGaussianBlur stdDeviation="2"/>
<feColorMatrix type="matrix" values="0 0 0 0 0 0 0 0 0 0 0 0 0 0 0 0 0 0 0.1 0"/>
<feBlend mode="normal" in2="BackgroundImageFix" result="effect1_dropShadow_895_14120"/>
<feColorMatrix in="SourceAlpha" type="matrix" values="0 0 0 0 0 0 0 0 0 0 0 0 0 0 0 0 0 0 127 0" result="hardAlpha"/>
<feOffset/>
<feGaussianBlur stdDeviation="0.5"/>
<feColorMatrix type="matrix" values="0 0 0 0 0 0 0 0 0 0 0 0 0 0 0 0 0 0 0.4 0"/>
<feBlend mode="normal" in2="effect1_dropShadow_895_14120" result="effect2_dropShadow_895_14120"/>
<feBlend mode="normal" in="SourceGraphic" in2="effect2_dropShadow_895_14120" result="shape"/>
</filter>
<filter id="filter4_ii_895_14120" x="90.8438" y="5.3667" width="19.4043" height="24.0188" filterUnits="userSpaceOnUse" color-interpolation-filters="sRGB">
<feFlood flood-opacity="0" result="BackgroundImageFix"/>
<feBlend mode="normal" in="SourceGraphic" in2="BackgroundImageFix" result="shape"/>
<feColorMatrix in="SourceAlpha" type="matrix" values="0 0 0 0 0 0 0 0 0 0 0 0 0 0 0 0 0 0 127 0" result="hardAlpha"/>
<feOffset dy="-0.527836"/>
<feGaussianBlur stdDeviation="0.131959"/>
<feComposite in2="hardAlpha" operator="arithmetic" k2="-1" k3="1"/>
<feColorMatrix type="matrix" values="0 0 0 0 0 0 0 0 0 0 0 0 0 0 0 0 0 0 0.3 0"/>
<feBlend mode="normal" in2="shape" result="effect1_innerShadow_895_14120"/>
<feColorMatrix in="SourceAlpha" type="matrix" values="0 0 0 0 0 0 0 0 0 0 0 0 0 0 0 0 0 0 127 0" result="hardAlpha"/>
<feOffset dy="0.527836"/>
<feGaussianBlur stdDeviation="0.131959"/>
<feComposite in2="hardAlpha" operator="arithmetic" k2="-1" k3="1"/>
<feColorMatrix type="matrix" values="0 0 0 0 1 0 0 0 0 1 0 0 0 0 1 0 0 0 0.3 0"/>
<feBlend mode="normal" in2="effect1_innerShadow_895_14120" result="effect2_innerShadow_895_14120"/>
</filter>
<linearGradient id="paint0_linear_895_14120" x1="23.8922" y1="9.75998" x2="29.2134" y2="15.1862" gradientUnits="userSpaceOnUse">
<stop stop-opacity="0.2"/>
<stop offset="1" stop-opacity="0"/>
</linearGradient>
<linearGradient id="paint1_linear_895_14120" x1="64.9645" y1="9.65193" x2="70.1945" y2="15.0757" gradientUnits="userSpaceOnUse">
<stop stop-opacity="0.2"/>
<stop offset="1" stop-opacity="0"/>
</linearGradient>
<linearGradient id="paint2_linear_895_14120" x1="106.037" y1="9.75998" x2="111.358" y2="15.1862" gradientUnits="userSpaceOnUse">
<stop stop-opacity="0.2"/>
<stop offset="1" stop-opacity="0"/>
</linearGradient>
<clipPath id="clip0_895_14120">
<rect width="28.746" height="28.1892" fill="white" transform="translate(4.02734 3.28149)"/>
</clipPath>
<clipPath id="clip1_895_14120">
<rect width="28.746" height="27.7194" fill="white" transform="translate(45.0996 3.28149)"/>
</clipPath>
</defs>
</svg>
