<svg width="76" height="68" viewBox="0 0 76 68" fill="none" xmlns="http://www.w3.org/2000/svg">
<path fill-rule="evenodd" clip-rule="evenodd" d="M0.775818 57.4344L31.3804 4.45125C35.0995 -1.40893 40.9904 -1.5581 44.7734 4.45125L74.8882 56.7952C77.2943 61.6325 76.1019 68.1604 68.2662 67.997H6.88679C1.73399 68.1248 -1.58766 63.6001 0.775818 57.4344Z" fill="#FF0000"/>
<path d="M35.8021 48.9617C36.3214 48.4872 37.0049 48.1965 37.733 48.1404C38.1927 48.1108 38.6539 48.1747 39.084 48.3275C39.5067 48.4769 39.8904 48.7073 40.2099 49.0033C40.5742 49.3376 40.8439 49.7496 40.9951 50.2029C41.1463 50.6562 41.1743 51.1368 41.0768 51.6025C41.0271 51.844 40.9477 52.0794 40.8404 52.3043C40.585 52.8221 40.1702 53.259 39.6476 53.5604C39.125 53.8618 38.5178 54.0143 37.9018 53.9989C37.4599 53.9891 37.0249 53.8953 36.624 53.7234C35.9177 53.4125 35.3647 52.8666 35.0759 52.1951C34.9781 51.9839 34.91 51.7621 34.8733 51.5349C34.8343 51.3098 34.823 51.0814 34.8395 50.8539C34.8856 50.4938 34.9939 50.1428 35.1604 49.8143C35.3111 49.5058 35.5297 49.2297 35.8021 49.0033V48.9617ZM40.39 43.6386C40.2831 46.1286 35.712 46.1338 35.6107 43.6386C35.1491 39.3708 33.9669 28.3867 34.0007 24.3787C34.0401 23.1415 35.1266 22.4086 36.5677 22.1278C37.4968 21.9574 38.4532 21.9574 39.3824 22.1278C40.8516 22.4189 42 23.1675 42 24.4359V24.5607L40.39 43.6386Z" fill="white"/>
</svg>
