<svg width="16" height="16" viewBox="0 0 16 16" fill="none" xmlns="http://www.w3.org/2000/svg">
<path fill-rule="evenodd" clip-rule="evenodd" d="M13.1968 4.19811C13.4401 4.19811 13.6426 4.40011 13.6426 4.65715V4.89481C13.6426 5.14559 13.4401 5.35385 13.1968 5.35385H2.8317C2.5878 5.35385 2.38525 5.14559 2.38525 4.89481V4.65715C2.38525 4.40011 2.5878 4.19811 2.8317 4.19811H4.65522C5.02564 4.19811 5.34801 3.93481 5.43134 3.56332L5.52683 3.1368C5.67525 2.5558 6.16366 2.16992 6.72264 2.16992H9.30524C9.85814 2.16992 10.352 2.5558 10.495 3.10615L10.5972 3.5627C10.6799 3.93481 11.0022 4.19811 11.3733 4.19811H13.1968ZM12.2695 12.8856C12.4599 11.1113 12.7932 6.89612 12.7932 6.8536C12.8054 6.72476 12.7634 6.60281 12.6801 6.50462C12.5907 6.41269 12.4776 6.35828 12.3529 6.35828H3.6781C3.5528 6.35828 3.43359 6.41269 3.35087 6.50462C3.26693 6.60281 3.22557 6.72476 3.23165 6.8536C3.23277 6.86141 3.24473 7.00989 3.26472 7.25812C3.35355 8.36087 3.60095 11.4322 3.76082 12.8856C3.87395 13.9563 4.57648 14.6292 5.59407 14.6536C6.37931 14.6718 7.18828 14.678 8.01549 14.678C8.79465 14.678 9.58597 14.6718 10.3955 14.6536C11.4484 14.6355 12.1503 13.9744 12.2695 12.8856Z" fill="#E71D36"/>
</svg>
