<svg width="85" height="27" viewBox="0 0 85 27" fill="none" xmlns="http://www.w3.org/2000/svg">
<rect y="0.107422" width="85" height="26" rx="7.57396" fill="#FF0000" fill-opacity="0.06"/>
<rect x="6.67285" y="5.45312" width="15.3081" height="15.3081" rx="4.83414" fill="#FF0000"/>
<path d="M11.5886 10.1152L14.0449 12.5714L16.4885 10.1279C16.5425 10.0704 16.6075 10.0245 16.6797 9.99278C16.7518 9.96107 16.8297 9.94426 16.9085 9.94336C17.0772 9.94336 17.2391 10.0104 17.3584 10.1297C17.4778 10.2491 17.5448 10.4109 17.5448 10.5797C17.5463 10.6577 17.5318 10.7352 17.5023 10.8074C17.4727 10.8796 17.4287 10.945 17.373 10.9996L14.8976 13.4431L17.373 15.9184C17.4779 16.021 17.5394 16.1599 17.5448 16.3065C17.5448 16.4753 17.4778 16.6372 17.3584 16.7565C17.2391 16.8758 17.0772 16.9429 16.9085 16.9429C16.8274 16.9462 16.7465 16.9327 16.6709 16.9031C16.5953 16.8735 16.5267 16.8286 16.4694 16.7711L14.0449 14.3149L11.595 16.7647C11.5412 16.8202 11.477 16.8646 11.406 16.8951C11.335 16.9257 11.2587 16.9419 11.1814 16.9429C11.0126 16.9429 10.8507 16.8758 10.7314 16.7565C10.6121 16.6372 10.545 16.4753 10.545 16.3065C10.5435 16.2285 10.558 16.151 10.5876 16.0788C10.6171 16.0066 10.6611 15.9412 10.7168 15.8866L13.1922 13.4431L10.7168 10.9678C10.612 10.8652 10.5505 10.7263 10.545 10.5797C10.545 10.4109 10.6121 10.2491 10.7314 10.1297C10.8507 10.0104 11.0126 9.94336 11.1814 9.94336C11.3341 9.94527 11.4805 10.007 11.5886 10.1152Z" fill="white" stroke="white" stroke-width="0.4"/>
<path d="M39.6151 16.6985C40.0897 16.6985 40.455 16.6026 40.7108 16.4107C40.97 16.2155 41.0996 15.9412 41.0996 15.5877C41.0996 15.2511 41.0053 15.002 40.8168 14.8404C40.6451 14.6889 40.3843 14.5879 40.0342 14.5374L39.1808 14.4163C38.6019 14.3321 38.1491 14.1385 37.8226 13.8356C37.4691 13.5124 37.2924 13.0529 37.2924 12.4571C37.2924 11.8243 37.5078 11.316 37.9387 10.9322C38.3696 10.5485 38.9553 10.3566 39.6959 10.3566C40.0325 10.3566 40.322 10.3886 40.5644 10.4526C40.8101 10.5131 41.0844 10.6225 41.3874 10.7808C41.6803 10.9322 41.8267 11.1157 41.8267 11.3311C41.8267 11.4557 41.7846 11.5668 41.7004 11.6644C41.6129 11.7687 41.5018 11.8209 41.3672 11.8209C41.2426 11.8209 41.0962 11.7687 40.9279 11.6644C40.7158 11.5331 40.5139 11.4422 40.322 11.3917C40.1301 11.3379 39.9079 11.3109 39.6555 11.3109C39.2414 11.3109 38.92 11.4136 38.6911 11.6189C38.4655 11.8209 38.3528 12.0902 38.3528 12.4268C38.3528 12.7231 38.4403 12.9452 38.6153 13.0933C38.7971 13.2549 39.0597 13.3626 39.403 13.4165L40.2614 13.5478C40.5879 13.5983 40.8522 13.6656 41.0541 13.7498C41.2561 13.8305 41.4362 13.9416 41.5944 14.083C41.9849 14.4432 42.1801 14.9347 42.1801 15.5574C42.1801 16.2071 41.9411 16.7221 41.4631 17.1025C40.9885 17.4795 40.3658 17.668 39.5949 17.668C39.1775 17.668 38.819 17.6293 38.5194 17.5519C38.2232 17.4711 37.937 17.3482 37.661 17.1833C37.4691 17.0688 37.3362 16.9662 37.2621 16.8753C37.1881 16.7844 37.151 16.675 37.151 16.5471C37.151 16.4091 37.2015 16.2896 37.3025 16.1886C37.39 16.101 37.4961 16.0573 37.6206 16.0573C37.7553 16.0573 37.9101 16.1179 38.0851 16.2391C38.3275 16.404 38.5648 16.5218 38.7971 16.5925C39.0327 16.6632 39.3054 16.6985 39.6151 16.6985ZM43.7285 16.1886V13.2751H43.4911C43.3262 13.2751 43.2067 13.2549 43.1326 13.2145C43.0115 13.1472 42.9509 13.0361 42.9509 12.8813C42.9509 12.7264 43.0115 12.6153 43.1326 12.548C43.2067 12.5076 43.3262 12.4874 43.4911 12.4874H43.7285V11.6846C43.7285 11.4792 43.7537 11.3261 43.8042 11.2251C43.8884 11.0635 44.0348 10.9827 44.2435 10.9827C44.4522 10.9827 44.5986 11.0635 44.6828 11.2251C44.7333 11.3261 44.7585 11.4792 44.7585 11.6846V12.4874H45.3139C45.4789 12.4874 45.5984 12.5076 45.6724 12.548C45.7936 12.6153 45.8542 12.7264 45.8542 12.8813C45.8542 13.0361 45.7936 13.1472 45.6724 13.2145C45.5984 13.2549 45.4789 13.2751 45.3139 13.2751H44.7585V16.1431C44.7585 16.5269 44.9319 16.7238 45.2786 16.7339C45.4536 16.7406 45.5782 16.7642 45.6522 16.8046C45.7903 16.8786 45.8593 16.9998 45.8593 17.1681C45.8593 17.3331 45.7903 17.4526 45.6522 17.5266C45.5546 17.5805 45.4099 17.6074 45.218 17.6074H45.117C44.8073 17.6074 44.5448 17.5401 44.3293 17.4054C44.1173 17.2708 43.9641 17.1008 43.8698 16.8955C43.7756 16.6868 43.7285 16.4511 43.7285 16.1886ZM46.6185 16.1027C46.6185 15.6584 46.7716 15.2999 47.078 15.0272C47.3877 14.7546 47.8253 14.6182 48.3908 14.6182H49.749V14.3001C49.749 13.9601 49.6632 13.7094 49.4915 13.5478C49.3232 13.3828 49.0522 13.3004 48.6786 13.3004C48.3251 13.3004 47.9986 13.4148 47.699 13.6437C47.5812 13.7346 47.4567 13.78 47.3254 13.78C47.2008 13.78 47.1015 13.7346 47.0275 13.6437C46.9467 13.5528 46.9063 13.4468 46.9063 13.3256C46.9063 13.1169 47.0662 12.92 47.386 12.7348C47.7428 12.5295 48.177 12.4268 48.6887 12.4268C49.3754 12.4268 49.8955 12.5766 50.2489 12.8762C50.6057 13.1724 50.7842 13.6101 50.7842 14.189V16.946C50.7842 17.1648 50.7589 17.3196 50.7084 17.4105C50.6243 17.5687 50.4778 17.6478 50.2691 17.6478C50.1109 17.6478 49.9864 17.599 49.8955 17.5014C49.8248 17.4206 49.7861 17.2977 49.7793 17.1328C49.5774 17.3314 49.3754 17.4694 49.1734 17.5468C48.9748 17.6243 48.719 17.663 48.4059 17.663C47.7865 17.663 47.3271 17.5081 47.0275 17.1984C46.7548 16.919 46.6185 16.5538 46.6185 16.1027ZM47.6233 16.0876C47.6233 16.5689 47.9448 16.8096 48.5877 16.8096C48.7964 16.8096 48.9731 16.7911 49.1179 16.7541C49.266 16.7137 49.4006 16.6346 49.5218 16.5168C49.6733 16.3754 49.749 16.1212 49.749 15.7543V15.3504H48.5372C48.2376 15.3504 48.0104 15.4143 47.8556 15.5423C47.7007 15.6668 47.6233 15.8486 47.6233 16.0876ZM52.5845 16.1886V13.2751H52.3471C52.1822 13.2751 52.0627 13.2549 51.9886 13.2145C51.8675 13.1472 51.8069 13.0361 51.8069 12.8813C51.8069 12.7264 51.8675 12.6153 51.9886 12.548C52.0627 12.5076 52.1822 12.4874 52.3471 12.4874H52.5845V11.6846C52.5845 11.4792 52.6097 11.3261 52.6602 11.2251C52.7444 11.0635 52.8908 10.9827 53.0995 10.9827C53.3082 10.9827 53.4546 11.0635 53.5388 11.2251C53.5893 11.3261 53.6145 11.4792 53.6145 11.6846V12.4874H54.1699C54.3349 12.4874 54.4544 12.5076 54.5284 12.548C54.6496 12.6153 54.7102 12.7264 54.7102 12.8813C54.7102 13.0361 54.6496 13.1472 54.5284 13.2145C54.4544 13.2549 54.3349 13.2751 54.1699 13.2751H53.6145V16.1431C53.6145 16.5269 53.7879 16.7238 54.1346 16.7339C54.3096 16.7406 54.4342 16.7642 54.5082 16.8046C54.6463 16.8786 54.7153 16.9998 54.7153 17.1681C54.7153 17.3331 54.6463 17.4526 54.5082 17.5266C54.4106 17.5805 54.2659 17.6074 54.074 17.6074H53.973C53.6633 17.6074 53.4008 17.5401 53.1853 17.4054C52.9733 17.2708 52.8201 17.1008 52.7258 16.8955C52.6316 16.6868 52.5845 16.4511 52.5845 16.1886ZM58.9927 15.6079V13.1489C58.9927 12.9435 59.0179 12.7904 59.0684 12.6894C59.1526 12.5278 59.299 12.447 59.5077 12.447C59.7164 12.447 59.8628 12.5278 59.947 12.6894C59.9975 12.7904 60.0227 12.9435 60.0227 13.1489V16.9409C60.0227 17.1664 59.9924 17.3297 59.9318 17.4307C59.8409 17.5754 59.6996 17.6478 59.5077 17.6478C59.3226 17.6478 59.1829 17.5805 59.0886 17.4458C59.0347 17.3684 59.0044 17.2557 58.9977 17.1075C58.6443 17.4812 58.1949 17.668 57.6495 17.668C57.1278 17.668 56.707 17.5132 56.3872 17.2035C56.0439 16.8702 55.8722 16.3889 55.8722 15.7594V13.1489C55.8722 12.9435 55.8974 12.7904 55.9479 12.6894C56.0321 12.5278 56.1785 12.447 56.3872 12.447C56.5959 12.447 56.7424 12.5278 56.8265 12.6894C56.877 12.7904 56.9023 12.9435 56.9023 13.1489V15.6079C56.9023 15.9883 56.9965 16.2727 57.185 16.4612C57.3769 16.6464 57.626 16.7389 57.9323 16.7389C58.242 16.7389 58.4961 16.6447 58.6948 16.4562C58.8934 16.2643 58.9927 15.9815 58.9927 15.6079ZM63.3134 17.668C62.5796 17.668 61.9855 17.5132 61.531 17.2035C61.3425 17.0756 61.2483 16.9325 61.2483 16.7743C61.2483 16.6295 61.3038 16.5117 61.4149 16.4208C61.4957 16.3501 61.59 16.3148 61.6977 16.3148C61.802 16.3148 61.9299 16.3636 62.0814 16.4612C62.4349 16.6901 62.8472 16.8046 63.3185 16.8046C63.6618 16.8046 63.9345 16.744 64.1365 16.6228C64.3418 16.4983 64.4445 16.3182 64.4445 16.0825C64.4445 15.7223 64.2139 15.5204 63.7527 15.4766L62.9297 15.4009C61.9198 15.31 61.4149 14.8421 61.4149 13.9972C61.4149 13.5091 61.5984 13.1253 61.9653 12.8459C62.3322 12.5665 62.7934 12.4268 63.3488 12.4268C63.8638 12.4268 64.3233 12.5211 64.7273 12.7096C64.8821 12.7837 64.9932 12.856 65.0605 12.9267C65.1245 13.0041 65.1564 13.0984 65.1564 13.2095C65.1564 13.3206 65.1144 13.4215 65.0302 13.5124C64.9427 13.6 64.8417 13.6437 64.7273 13.6437C64.6532 13.6437 64.5421 13.6084 64.394 13.5377C64.0271 13.3593 63.6719 13.2701 63.3286 13.2701C63.0324 13.2701 62.8052 13.3323 62.6469 13.4569C62.4887 13.5781 62.4096 13.7397 62.4096 13.9416C62.4096 14.1268 62.4668 14.2665 62.5813 14.3607C62.6991 14.4516 62.8775 14.5071 63.1165 14.5273L63.9244 14.6031C64.9376 14.7007 65.4443 15.1821 65.4443 16.0472C65.4443 16.5656 65.2473 16.9662 64.8535 17.2489C64.4596 17.5283 63.9463 17.668 63.3134 17.668Z" fill="#FF0000"/>
</svg>
