<svg width="85" height="27" viewBox="0 0 85 27" fill="none" xmlns="http://www.w3.org/2000/svg">
<rect y="0.107422" width="85" height="26" rx="7.57396" fill="#FF0000" fill-opacity="0.06"/>
<rect x="6.67285" y="5.45312" width="15.3081" height="15.3081" rx="4.83414" fill="#FF0000"/>
<path d="M11.5886 10.1152L14.0449 12.5714L16.4885 10.1279C16.5425 10.0704 16.6075 10.0245 16.6797 9.99278C16.7518 9.96107 16.8297 9.94426 16.9085 9.94336C17.0772 9.94336 17.2391 10.0104 17.3584 10.1297C17.4778 10.2491 17.5448 10.4109 17.5448 10.5797C17.5463 10.6577 17.5318 10.7352 17.5023 10.8074C17.4727 10.8796 17.4287 10.945 17.373 10.9996L14.8976 13.4431L17.373 15.9184C17.4779 16.021 17.5394 16.1599 17.5448 16.3065C17.5448 16.4753 17.4778 16.6372 17.3584 16.7565C17.2391 16.8758 17.0772 16.9429 16.9085 16.9429C16.8274 16.9462 16.7465 16.9327 16.6709 16.9031C16.5953 16.8735 16.5267 16.8286 16.4694 16.7711L14.0449 14.3149L11.595 16.7647C11.5412 16.8202 11.477 16.8646 11.406 16.8951C11.335 16.9257 11.2587 16.9419 11.1814 16.9429C11.0126 16.9429 10.8507 16.8758 10.7314 16.7565C10.6121 16.6372 10.545 16.4753 10.545 16.3065C10.5435 16.2285 10.558 16.151 10.5876 16.0788C10.6171 16.0066 10.6611 15.9412 10.7168 15.8866L13.1922 13.4431L10.7168 10.9678C10.612 10.8652 10.5505 10.7263 10.545 10.5797C10.545 10.4109 10.6121 10.2491 10.7314 10.1297C10.8507 10.0104 11.0126 9.94336 11.1814 9.94336C11.3341 9.94527 11.4805 10.007 11.5886 10.1152Z" fill="white" stroke="white" stroke-width="0.4"/>
<path d="M34.7567 15.9056C34.7567 16.0469 34.7517 16.1479 34.7416 16.2085C34.7348 16.2691 34.7129 16.3331 34.6759 16.4004C34.585 16.5653 34.4302 16.6478 34.2114 16.6478C33.9926 16.6478 33.8377 16.5653 33.7468 16.4004C33.7098 16.3331 33.6863 16.2691 33.6762 16.2085C33.6694 16.1479 33.6661 16.0469 33.6661 15.9056V10.1191C33.6661 9.97768 33.6694 9.8767 33.6762 9.81611C33.6863 9.75551 33.7098 9.69156 33.7468 9.62423C33.8377 9.45929 33.9926 9.37682 34.2114 9.37682C34.4302 9.37682 34.585 9.45929 34.6759 9.62423C34.7129 9.69156 34.7348 9.75551 34.7416 9.81611C34.7517 9.8767 34.7567 9.97768 34.7567 10.1191V15.9056ZM37.5386 13.487V15.946C37.5386 16.1513 37.5133 16.3045 37.4628 16.4054C37.3787 16.567 37.2322 16.6478 37.0235 16.6478C36.8148 16.6478 36.6684 16.567 36.5842 16.4054C36.5337 16.3045 36.5085 16.1513 36.5085 15.946V12.1539C36.5085 11.9284 36.5388 11.7651 36.5994 11.6642C36.6903 11.5194 36.8317 11.447 37.0235 11.447C37.2087 11.447 37.3484 11.5144 37.4426 11.649C37.4965 11.7264 37.5268 11.8392 37.5335 11.9873C37.887 11.6137 38.3363 11.4268 38.8817 11.4268C39.4034 11.4268 39.8242 11.5817 40.144 11.8914C40.4874 12.2246 40.659 12.706 40.659 13.3355V15.946C40.659 16.1513 40.6338 16.3045 40.5833 16.4054C40.4991 16.567 40.3527 16.6478 40.144 16.6478C39.9353 16.6478 39.7889 16.567 39.7047 16.4054C39.6542 16.3045 39.629 16.1513 39.629 15.946V13.487C39.629 13.1066 39.533 12.8238 39.3412 12.6387C39.1527 12.4502 38.9052 12.3559 38.5989 12.3559C38.2892 12.3559 38.0351 12.4518 37.8365 12.6437C37.6379 12.8322 37.5386 13.1133 37.5386 13.487ZM44.4698 14.2696H42.7026C42.5073 14.2696 42.3676 14.246 42.2835 14.1989C42.1421 14.1147 42.0714 13.9835 42.0714 13.8051C42.0714 13.6266 42.1421 13.4954 42.2835 13.4112C42.3609 13.3641 42.5006 13.3405 42.7026 13.3405H44.4698C44.6718 13.3405 44.8115 13.3641 44.8889 13.4112C45.0303 13.4954 45.101 13.6266 45.101 13.8051C45.101 13.9835 45.0303 14.1147 44.8889 14.1989C44.8048 14.246 44.6651 14.2696 44.4698 14.2696ZM46.1589 15.1027C46.1589 14.6584 46.3121 14.2999 46.6184 14.0272C46.9281 13.7546 47.3657 13.6182 47.9312 13.6182H49.2895V13.3001C49.2895 12.9601 49.2036 12.7094 49.032 12.5478C48.8636 12.3828 48.5927 12.3004 48.219 12.3004C47.8656 12.3004 47.539 12.4148 47.2395 12.6437C47.1216 12.7346 46.9971 12.78 46.8658 12.78C46.7413 12.78 46.642 12.7346 46.5679 12.6437C46.4871 12.5528 46.4467 12.4468 46.4467 12.3256C46.4467 12.1169 46.6066 11.92 46.9264 11.7348C47.2832 11.5295 47.7175 11.4268 48.2291 11.4268C48.9158 11.4268 49.4359 11.5766 49.7894 11.8762C50.1462 12.1724 50.3246 12.6101 50.3246 13.189V15.946C50.3246 16.1648 50.2993 16.3196 50.2488 16.4105C50.1647 16.5687 50.0183 16.6478 49.8096 16.6478C49.6513 16.6478 49.5268 16.599 49.4359 16.5014C49.3652 16.4206 49.3265 16.2977 49.3198 16.1328C49.1178 16.3314 48.9158 16.4694 48.7139 16.5468C48.5152 16.6243 48.2594 16.663 47.9464 16.663C47.327 16.663 46.8675 16.5081 46.5679 16.1984C46.2952 15.919 46.1589 15.5538 46.1589 15.1027ZM47.1637 15.0876C47.1637 15.5689 47.4852 15.8096 48.1281 15.8096C48.3368 15.8096 48.5136 15.7911 48.6583 15.7541C48.8064 15.7137 48.9411 15.6346 49.0623 15.5168C49.2137 15.3754 49.2895 15.1212 49.2895 14.7543V14.3504H48.0776C47.778 14.3504 47.5508 14.4143 47.396 14.5423C47.2411 14.6668 47.1637 14.8486 47.1637 15.0876ZM51.8371 15.2643C51.7125 14.9142 51.6503 14.5086 51.6503 14.0474C51.6503 13.5863 51.7125 13.1823 51.8371 12.8356C51.965 12.4855 52.1367 12.2112 52.3521 12.0126C52.5709 11.8139 52.8116 11.6675 53.0742 11.5733C53.3367 11.4756 53.6195 11.4268 53.9224 11.4268C54.3365 11.4268 54.7101 11.5346 55.0434 11.75C55.205 11.8543 55.3278 11.9536 55.412 12.0479C55.4995 12.1422 55.5433 12.2482 55.5433 12.366C55.5433 12.4872 55.4945 12.6 55.3968 12.7043C55.3093 12.7918 55.2033 12.8356 55.0787 12.8356C54.9643 12.8356 54.828 12.7699 54.6697 12.6387C54.4341 12.4502 54.185 12.3559 53.9224 12.3559C53.5219 12.3559 53.2105 12.5023 52.9883 12.7952C52.783 13.0645 52.6803 13.4819 52.6803 14.0474C52.6803 14.6129 52.783 15.0287 52.9883 15.2946C53.2105 15.5908 53.5219 15.7389 53.9224 15.7389C54.1749 15.7389 54.424 15.643 54.6697 15.4511C54.8347 15.3198 54.971 15.2542 55.0787 15.2542C55.1999 15.2542 55.306 15.2997 55.3968 15.3905C55.4945 15.4949 55.5433 15.6077 55.5433 15.7288C55.5433 15.8467 55.4978 15.9544 55.4069 16.052C55.3194 16.1463 55.1982 16.2439 55.0434 16.3449C54.7068 16.5603 54.3331 16.668 53.9224 16.668C53.6195 16.668 53.3367 16.6209 53.0742 16.5266C52.8116 16.429 52.5709 16.2809 52.3521 16.0823C52.1367 15.8837 51.965 15.611 51.8371 15.2643ZM57.0164 15.1886V12.2751H56.7791C56.6141 12.2751 56.4946 12.2549 56.4206 12.2145C56.2994 12.1472 56.2388 12.0361 56.2388 11.8813C56.2388 11.7264 56.2994 11.6153 56.4206 11.548C56.4946 11.5076 56.6141 11.4874 56.7791 11.4874H57.0164V10.6846C57.0164 10.4792 57.0417 10.3261 57.0921 10.2251C57.1763 10.0635 57.3227 9.98273 57.5314 9.98273C57.7401 9.98273 57.8866 10.0635 57.9707 10.2251C58.0212 10.3261 58.0465 10.4792 58.0465 10.6846V11.4874H58.6019C58.7668 11.4874 58.8863 11.5076 58.9604 11.548C59.0816 11.6153 59.1422 11.7264 59.1422 11.8813C59.1422 12.0361 59.0816 12.1472 58.9604 12.2145C58.8863 12.2549 58.7668 12.2751 58.6019 12.2751H58.0465V15.1431C58.0465 15.5269 58.2198 15.7238 58.5665 15.7339C58.7416 15.7406 58.8661 15.7642 58.9402 15.8046C59.0782 15.8786 59.1472 15.9998 59.1472 16.1681C59.1472 16.3331 59.0782 16.4526 58.9402 16.5266C58.8426 16.5805 58.6978 16.6074 58.506 16.6074H58.405C58.0953 16.6074 57.8327 16.5401 57.6173 16.4054C57.4052 16.2708 57.252 16.1008 57.1578 15.8955C57.0635 15.6868 57.0164 15.4511 57.0164 15.1886ZM61.3847 15.946C61.3847 16.1513 61.3594 16.3045 61.309 16.4054C61.2248 16.567 61.0784 16.6478 60.8697 16.6478C60.661 16.6478 60.5145 16.567 60.4304 16.4054C60.3799 16.3045 60.3546 16.1513 60.3546 15.946V12.1489C60.3546 11.9435 60.3799 11.7904 60.4304 11.6894C60.5145 11.5278 60.661 11.447 60.8697 11.447C61.0784 11.447 61.2248 11.5278 61.309 11.6894C61.3594 11.7904 61.3847 11.9435 61.3847 12.1489V15.946ZM60.4304 10.2554C60.3092 10.1342 60.2486 9.98778 60.2486 9.81611C60.2486 9.64443 60.3092 9.498 60.4304 9.37682C60.5516 9.25563 60.698 9.19504 60.8697 9.19504C61.0413 9.19504 61.1878 9.25563 61.309 9.37682C61.4301 9.498 61.4907 9.64443 61.4907 9.81611C61.4907 9.98778 61.4301 10.1342 61.309 10.2554C61.1878 10.3766 61.0413 10.4372 60.8697 10.4372C60.698 10.4372 60.5516 10.3766 60.4304 10.2554ZM64.8502 16.5165C64.7493 16.6041 64.6213 16.6478 64.4665 16.6478C64.3117 16.6478 64.1837 16.6041 64.0828 16.5165C63.9818 16.4256 63.8976 16.2775 63.8303 16.0722L62.5225 12.2499C62.4485 12.0311 62.4299 11.8661 62.467 11.755C62.4939 11.6743 62.5528 11.6036 62.6437 11.543C62.7346 11.479 62.8356 11.447 62.9467 11.447C63.088 11.447 63.1924 11.4891 63.2597 11.5733C63.3304 11.6541 63.3927 11.7769 63.4465 11.9419L64.4665 15.0169L65.4865 11.9419C65.5403 11.7769 65.6009 11.6541 65.6682 11.5733C65.7389 11.4891 65.845 11.447 65.9863 11.447C66.0974 11.447 66.1984 11.479 66.2893 11.543C66.3802 11.6036 66.4391 11.6743 66.466 11.755C66.5031 11.8661 66.4845 12.0311 66.4105 12.2499L65.1027 16.0722C65.032 16.2809 64.9479 16.429 64.8502 16.5165ZM67.1927 14.0474C67.1927 13.216 67.3879 12.5713 67.7784 12.1135C68.1689 11.6557 68.6973 11.4268 69.3639 11.4268C70.0203 11.4268 70.5403 11.6423 70.9241 12.0731C71.3112 12.504 71.5132 13.0645 71.53 13.7546C71.5367 13.9599 71.4896 14.1131 71.3886 14.2141C71.3011 14.3016 71.1496 14.3453 70.9342 14.3453H68.2126C68.2126 14.7897 68.3254 15.1414 68.5509 15.4006C68.7798 15.6598 69.1047 15.7894 69.5254 15.7894C69.9125 15.7894 70.2408 15.6817 70.51 15.4663C70.6649 15.3417 70.8046 15.2795 70.9291 15.2795C71.0369 15.2795 71.1345 15.3249 71.222 15.4158C71.3095 15.5033 71.3533 15.6043 71.3533 15.7187C71.3533 15.914 71.1816 16.121 70.8383 16.3398C70.505 16.5586 70.059 16.668 69.5002 16.668C69.1669 16.668 68.8657 16.6226 68.5964 16.5317C68.3271 16.4374 68.0847 16.291 67.8693 16.0924C67.6538 15.8938 67.4872 15.6211 67.3694 15.2744C67.2516 14.9277 67.1927 14.5187 67.1927 14.0474ZM70.5151 13.6283C70.4949 13.3287 70.4478 13.0965 70.3737 12.9315C70.2862 12.7329 70.1549 12.5764 69.9799 12.4619C69.8048 12.3441 69.5995 12.2852 69.3639 12.2852C69.1249 12.2852 68.9161 12.3441 68.7377 12.4619C68.5627 12.5764 68.4314 12.7329 68.3439 12.9315C68.2665 13.1032 68.2227 13.3355 68.2126 13.6283H70.5151Z" fill="#FF0000"/>
</svg>
