<svg width="21" height="20" viewBox="0 0 21 20" fill="none" xmlns="http://www.w3.org/2000/svg">
<path d="M1.5 10C1.5 5.75736 1.5 3.63604 2.81802 2.31802C4.13604 1 6.25736 1 10.5 1C14.7426 1 16.8639 1 18.182 2.31802C19.5 3.63604 19.5 5.75736 19.5 10C19.5 14.2426 19.5 16.3639 18.182 17.682C16.8639 19 14.7426 19 10.5 19C6.25736 19 4.13604 19 2.81802 17.682C1.5 16.3639 1.5 14.2426 1.5 10Z" fill="#616161" stroke="#616161" stroke-width="1.5"/>
<path d="M10.7295 14.7369V10.0001C10.7295 9.55351 10.7295 9.33022 10.5907 9.19143C10.452 9.05273 10.2287 9.05273 9.7821 9.05273" stroke="white" stroke-width="1.5" stroke-linecap="round" stroke-linejoin="round"/>
<path d="M10.4924 6.20996H10.5014" stroke="white" stroke-width="2" stroke-linecap="round" stroke-linejoin="round"/>
</svg>
