<svg width="16" height="16" viewBox="0 0 16 16" fill="none" xmlns="http://www.w3.org/2000/svg">
<path d="M1.98999 11.804C1.98999 10.7938 1.98999 10.2888 2.30951 9.97492C2.62903 9.66113 3.14329 9.66113 4.17181 9.66113H4.53544C5.22112 9.66113 5.56396 9.66113 5.77698 9.87035C5.98999 10.0796 5.98999 10.4163 5.98999 11.0897V14.6611H1.98999V11.804Z" fill="#FF9800" stroke="#FF9800" stroke-linecap="round" stroke-linejoin="round"/>
<path d="M9.98999 12.2611C9.98999 11.5069 9.98999 11.1298 10.203 10.8955C10.416 10.6611 10.7589 10.6611 11.4445 10.6611H11.8082C12.8367 10.6611 13.3509 10.6611 13.6705 11.0126C13.99 11.3641 13.99 11.9298 13.99 13.0611V14.6611H9.98999V12.2611Z" fill="#FF9800" stroke="#FF9800" stroke-linecap="round" stroke-linejoin="round"/>
<path d="M1.32324 14.6611H14.6566H1.32324Z" fill="#FF9800"/>
<path d="M1.32324 14.6611H14.6566" stroke="#FF9800" stroke-linecap="round" stroke-linejoin="round"/>
<path d="M5.98999 10.6611C5.98999 9.71833 5.98999 9.24693 6.28288 8.954C6.57578 8.66113 7.04719 8.66113 7.98999 8.66113C8.93279 8.66113 9.40419 8.66113 9.69712 8.954C9.98999 9.24693 9.98999 9.71833 9.98999 10.6611V14.6611H5.98999V10.6611Z" fill="#FF9800" stroke="#FF9800" stroke-linecap="round" stroke-linejoin="round"/>
<path d="M8.45064 1.37926L8.91991 2.32558C8.98391 2.45731 9.15451 2.58366 9.29851 2.60786L10.1491 2.75034C10.693 2.84175 10.821 3.23964 10.429 3.63214L9.76777 4.29887C9.65584 4.41178 9.59451 4.62954 9.62917 4.78547L9.81844 5.61081C9.96777 6.26409 9.62384 6.51681 9.05057 6.17537L8.25331 5.69953C8.10931 5.61349 7.87204 5.61349 7.72537 5.69953L6.92811 6.17537C6.35751 6.51681 6.01088 6.2614 6.16019 5.61081L6.34951 4.78547C6.38417 4.62954 6.32285 4.41178 6.21086 4.29887L5.5496 3.63214C5.16031 3.23964 5.28563 2.84175 5.82957 2.75034L6.68011 2.60786C6.82144 2.58366 6.99211 2.45731 7.05611 2.32558L7.52537 1.37926C7.78137 0.865769 8.19731 0.865769 8.45064 1.37926Z" fill="#FF9800" stroke="#FF9800" stroke-linecap="round" stroke-linejoin="round"/>
</svg>
