<svg width="31" height="27" viewBox="0 0 31 27" fill="none" xmlns="http://www.w3.org/2000/svg">
<rect width="31" height="26.4444" rx="7.57396" fill="#FFA500" fill-opacity="0.1"/>
<path d="M12.6108 11.0556V8.88889C12.6108 8.12271 12.9152 7.38791 13.457 6.84614C13.9987 6.30436 14.7335 6 15.4997 6C16.2659 6 17.0007 6.30436 17.5425 6.84614C18.0843 7.38791 18.3886 8.12271 18.3886 8.88889V11.0556" stroke="#FFA500" stroke-width="1.625" stroke-linecap="round" stroke-linejoin="round"/>
<path fill-rule="evenodd" clip-rule="evenodd" d="M9 13.2223C9 12.6477 9.22827 12.0966 9.6346 11.6903C10.0409 11.2839 10.592 11.0557 11.1667 11.0557H19.8333C20.408 11.0557 20.9591 11.2839 21.3654 11.6903C21.7717 12.0966 22 12.6477 22 13.2223V18.2779C22 18.8525 21.7717 19.4036 21.3654 19.81C20.9591 20.2163 20.408 20.4446 19.8333 20.4446H11.1667C10.592 20.4446 10.0409 20.2163 9.6346 19.81C9.22827 19.4036 9 18.8525 9 18.2779V13.2223ZM16.2222 14.6668C16.2222 14.4752 16.1461 14.2915 16.0107 14.1561C15.8752 14.0206 15.6915 13.9446 15.5 13.9446C15.3085 13.9446 15.1248 14.0206 14.9893 14.1561C14.8539 14.2915 14.7778 14.4752 14.7778 14.6668V16.8334C14.7778 17.025 14.8539 17.2087 14.9893 17.3441C15.1248 17.4796 15.3085 17.5557 15.5 17.5557C15.6915 17.5557 15.8752 17.4796 16.0107 17.3441C16.1461 17.2087 16.2222 17.025 16.2222 16.8334V14.6668Z" fill="#FFA500"/>
</svg>
