<svg width="196" height="163" viewBox="0 0 196 163" fill="none" xmlns="http://www.w3.org/2000/svg">
<path d="M0.377304 48.6986C2.68612 15.5297 50.081 4.02351 73.4898 2.4165C159.686 -2.59739 182.197 38.8958 182.677 60.2691C183.96 74.2501 182.1 108.672 164.399 134.513C142.273 166.814 55.2102 160.612 29.7186 146.631C11.5358 136.659 -2.50872 90.1596 0.377304 48.6986Z" fill="#F7F7F7"/>
<circle cx="176.772" cy="129.635" r="3.64577" fill="#BBC0C3"/>
<circle cx="23.1905" cy="19.1422" r="3.57576" stroke="#BABABA" stroke-width="0.950201"/>
<path d="M191.76 65.2261V71.7075" stroke="#D0D0D0" stroke-width="1.08594" stroke-linecap="round"/>
<path d="M188.519 68.4668L195 68.4668" stroke="#D0D0D0" stroke-width="1.08594" stroke-linecap="round"/>
<rect x="44.3027" y="24.0078" width="128.817" height="65.6239" rx="9.50201" fill="#E5E9EC"/>
<rect x="58.8867" y="48.313" width="42.1289" height="4.86103" rx="2.43052" fill="#C6D0D2"/>
<rect x="58.8867" y="61.2759" width="83.4477" height="4.86103" rx="2.43052" fill="#E2E6E9"/>
<g filter="url(#filter0_d_3407_9515)">
<rect x="22.4277" y="57.2251" width="128.817" height="65.6239" rx="9.50201" fill="white"/>
</g>
<rect x="37.0107" y="81.5303" width="42.1289" height="4.86103" rx="2.43052" fill="#C5CACD"/>
<rect x="37.0107" y="94.4927" width="83.4477" height="4.86103" rx="2.43052" fill="#E2E6E9"/>
<path d="M138.612 156.91C136.902 154.68 134.532 153.57 131.702 152.82C136.932 151.16 140.502 147.99 141.702 142.37C142.952 147.95 146.432 151.22 152.142 152.69C149.672 153.58 147.452 154.06 145.932 155.83C143.572 157.52 142.652 160.08 141.722 162.74C140.962 160.57 140.282 158.48 138.612 156.91Z" fill="#BEBEBE"/>
<path d="M104.198 135.029C103.286 133.639 102.051 132.498 101.226 131.04C100.187 129.269 99.3796 127.371 98.8251 125.394C98.3817 123.564 98.128 121.693 98.0682 119.81C98.0284 118.389 98.1977 116.97 98.5707 115.598C99.0463 113.56 99.8043 111.6 100.823 109.772C102.358 107.097 104.436 104.773 106.922 102.947C108.913 101.442 111.185 100.348 113.603 99.7275C116.847 98.8647 120.249 98.7839 123.53 99.4918C127.757 100.363 131.602 102.545 134.518 105.727C136.227 107.678 137.606 109.895 138.6 112.291C140.163 115.771 140.269 119.413 139.959 123.092C139.792 124.553 139.425 125.983 138.867 127.342C138.758 127.594 138.693 127.863 138.674 128.136C138.198 128.74 137.809 129.409 137.52 130.122C133.593 136.909 127.755 140.619 119.888 140.967C117.13 141.126 114.368 140.713 111.778 139.751C109.187 138.79 106.824 137.303 104.837 135.383C104.764 135.28 104.668 135.195 104.558 135.133C104.447 135.072 104.324 135.037 104.198 135.029ZM125.602 129.967C126.257 130.042 126.918 129.896 127.48 129.552C128.042 129.207 128.473 128.685 128.704 128.068C129.011 127.488 129.127 126.825 129.033 126.175C128.939 125.525 128.642 124.921 128.183 124.451C126.998 123.21 125.795 121.938 124.56 120.729C124.076 120.257 124.008 119.965 124.56 119.488C125.757 118.365 126.893 117.18 128.047 116.013C129.604 114.456 129.672 112.458 128.227 110.988C126.781 109.518 124.783 109.636 123.263 111.131C122.072 112.297 120.875 113.47 119.733 114.686C119.255 115.194 118.989 115.101 118.561 114.655C117.413 113.414 116.246 112.235 115.037 111.087C114.717 110.75 114.332 110.482 113.906 110.298C113.479 110.115 113.019 110.02 112.555 110.02C112.09 110.02 111.631 110.115 111.204 110.298C110.777 110.482 110.393 110.75 110.073 111.087C109.454 111.772 109.131 112.675 109.177 113.597C109.222 114.52 109.632 115.386 110.315 116.007C111.469 117.174 112.617 118.346 113.808 119.475C114.311 119.953 114.292 120.257 113.808 120.716C112.567 121.957 111.283 123.198 110.123 124.507C109.83 124.831 109.605 125.21 109.462 125.623C109.319 126.035 109.261 126.473 109.291 126.908C109.321 127.344 109.439 127.769 109.638 128.158C109.836 128.547 110.111 128.892 110.445 129.172C111.097 129.732 111.936 130.025 112.794 129.996C113.653 129.966 114.468 129.614 115.08 129.011C116.29 127.814 117.5 126.616 118.685 125.394C119.082 124.985 119.355 124.991 119.746 125.394C120.93 126.635 122.147 127.808 123.344 129.024C123.627 129.338 123.976 129.586 124.367 129.749C124.757 129.913 125.179 129.987 125.602 129.967Z" fill="#BEBEBE"/>
<path d="M23.7718 49.4197C22.4934 49.6518 21.3007 50.2222 20.3176 51.0717C19.3345 51.9211 18.597 53.0185 18.1818 54.2497C18.0818 54.5097 17.9518 54.8697 17.5918 54.8297C17.2318 54.7897 17.2118 54.3997 17.1218 54.1397C16.8303 53.0824 16.2671 52.1199 15.4881 51.348C14.7092 50.576 13.7416 50.0215 12.6818 49.7397C12.4118 49.6697 12.0318 49.6197 12.0018 49.2597C11.9718 48.8997 12.3218 48.7897 12.5918 48.6897C14.1627 48.0526 15.5167 46.9763 16.4918 45.5897C17.0018 44.8997 16.7518 43.4697 17.7718 43.5297C18.5618 43.5297 18.5218 44.9097 18.9918 45.5997C19.7316 46.7862 20.8169 47.718 22.1018 48.2697C22.7678 48.4632 23.3535 48.8665 23.7718 49.4197Z" fill="#BEBEBE"/>
<path d="M125.602 129.967C125.17 129.997 124.736 129.928 124.334 129.766C123.932 129.604 123.572 129.352 123.282 129.03C122.084 127.789 120.868 126.623 119.683 125.4C119.292 124.997 119.019 124.991 118.622 125.4C117.437 126.641 116.228 127.82 115.018 129.017C114.406 129.621 113.59 129.972 112.732 130.002C111.874 130.032 111.035 129.738 110.383 129.179C110.048 128.898 109.774 128.553 109.575 128.164C109.377 127.775 109.259 127.35 109.229 126.915C109.199 126.479 109.257 126.042 109.4 125.629C109.543 125.217 109.768 124.837 110.061 124.513C111.221 123.186 112.486 121.951 113.746 120.723C114.242 120.239 114.261 119.935 113.746 119.482C112.555 118.353 111.407 117.18 110.253 116.014C109.569 115.393 109.16 114.526 109.115 113.604C109.069 112.681 109.392 111.779 110.011 111.094C110.33 110.756 110.715 110.488 111.142 110.304C111.569 110.121 112.028 110.026 112.493 110.026C112.957 110.026 113.417 110.121 113.843 110.304C114.27 110.488 114.655 110.756 114.974 111.094C116.184 112.241 117.351 113.445 118.498 114.661C118.926 115.108 119.193 115.201 119.671 114.692C120.812 113.451 122.01 112.303 123.201 111.137C124.727 109.642 126.787 109.592 128.164 110.994C129.542 112.397 129.542 114.463 127.984 116.02C126.83 117.186 125.695 118.371 124.498 119.494C123.977 119.99 124.045 120.282 124.498 120.735C125.739 121.939 126.936 123.217 128.121 124.457C128.58 124.928 128.877 125.531 128.971 126.181C129.064 126.831 128.949 127.494 128.642 128.074C128.413 128.679 127.991 129.192 127.442 129.534C126.892 129.876 126.246 130.028 125.602 129.967Z" fill="#FEFEFE"/>
<path d="M150.522 2.92001C151.522 2.21001 151.742 1.07 152.222 0C153.222 1 153.102 2.69 154.502 3.31C155.412 4.94 157.052 5.54 158.882 6.31C157.313 6.69829 155.88 7.50676 154.737 8.6485C153.593 9.79023 152.782 11.2221 152.392 12.79C151.012 9.60001 149.312 7.20001 145.762 6.39001C147.772 5.30001 149.572 4.68001 150.522 2.92001Z" fill="#BEBEBE"/>
<defs>
<filter id="filter0_d_3407_9515" x="8.03898" y="48.2661" width="157.595" height="94.4015" filterUnits="userSpaceOnUse" color-interpolation-filters="sRGB">
<feFlood flood-opacity="0" result="BackgroundImageFix"/>
<feColorMatrix in="SourceAlpha" type="matrix" values="0 0 0 0 0 0 0 0 0 0 0 0 0 0 0 0 0 0 127 0" result="hardAlpha"/>
<feMorphology radius="2.71486" operator="dilate" in="SourceAlpha" result="effect1_dropShadow_3407_9515"/>
<feOffset dy="5.42972"/>
<feGaussianBlur stdDeviation="5.83695"/>
<feComposite in2="hardAlpha" operator="out"/>
<feColorMatrix type="matrix" values="0 0 0 0 0.380392 0 0 0 0 0.380392 0 0 0 0 0.380392 0 0 0 0.15 0"/>
<feBlend mode="normal" in2="BackgroundImageFix" result="effect1_dropShadow_3407_9515"/>
<feBlend mode="normal" in="SourceGraphic" in2="effect1_dropShadow_3407_9515" result="shape"/>
</filter>
</defs>
</svg>
