<svg width="85" height="26" viewBox="0 0 85 26" fill="none" xmlns="http://www.w3.org/2000/svg">
<rect width="85" height="26" rx="7.57396" fill="white" fill-opacity="0.2"/>
<path d="M34.0248 15.7981C34.0248 15.9395 34.0197 16.0405 34.0096 16.1011C34.0029 16.1617 33.981 16.2257 33.944 16.293C33.8531 16.4579 33.6982 16.5404 33.4794 16.5404C33.2606 16.5404 33.1058 16.4579 33.0149 16.293C32.9779 16.2257 32.9543 16.1617 32.9442 16.1011C32.9375 16.0405 32.9341 15.9395 32.9341 15.7981V10.0116C32.9341 9.87026 32.9375 9.76928 32.9442 9.70868C32.9543 9.64809 32.9779 9.58414 33.0149 9.51681C33.1058 9.35187 33.2606 9.2694 33.4794 9.2694C33.6982 9.2694 33.8531 9.35187 33.944 9.51681C33.981 9.58414 34.0029 9.64809 34.0096 9.70868C34.0197 9.76928 34.0248 9.87026 34.0248 10.0116V15.7981ZM36.8066 13.3795V15.8385C36.8066 16.0439 36.7814 16.197 36.7309 16.298C36.6467 16.4596 36.5003 16.5404 36.2916 16.5404C36.0829 16.5404 35.9365 16.4596 35.8523 16.298C35.8018 16.197 35.7766 16.0439 35.7766 15.8385V12.0465C35.7766 11.821 35.8069 11.6577 35.8675 11.5567C35.9583 11.412 36.0997 11.3396 36.2916 11.3396C36.4767 11.3396 36.6164 11.4069 36.7107 11.5416C36.7645 11.619 36.7948 11.7318 36.8016 11.8799C37.155 11.5062 37.6044 11.3194 38.1497 11.3194C38.6715 11.3194 39.0923 11.4743 39.4121 11.7839C39.7554 12.1172 39.9271 12.5986 39.9271 13.2281V15.8385C39.9271 16.0439 39.9018 16.197 39.8514 16.298C39.7672 16.4596 39.6208 16.5404 39.4121 16.5404C39.2034 16.5404 39.0569 16.4596 38.9728 16.298C38.9223 16.197 38.897 16.0439 38.897 15.8385V13.3795C38.897 12.9991 38.8011 12.7164 38.6092 12.5312C38.4207 12.3427 38.1733 12.2485 37.867 12.2485C37.5573 12.2485 37.3031 12.3444 37.1045 12.5363C36.9059 12.7248 36.8066 13.0059 36.8066 13.3795ZM43.7379 14.1622H41.9706C41.7754 14.1622 41.6357 14.1386 41.5516 14.0915C41.4102 14.0073 41.3395 13.876 41.3395 13.6976C41.3395 13.5192 41.4102 13.3879 41.5516 13.3038C41.629 13.2567 41.7687 13.2331 41.9706 13.2331H43.7379C43.9399 13.2331 44.0796 13.2567 44.157 13.3038C44.2984 13.3879 44.3691 13.5192 44.3691 13.6976C44.3691 13.876 44.2984 14.0073 44.157 14.0915C44.0728 14.1386 43.9331 14.1622 43.7379 14.1622ZM45.427 14.9953C45.427 14.551 45.5801 14.1925 45.8865 13.9198C46.1961 13.6471 46.6338 13.5108 47.1993 13.5108H48.5575V13.1927C48.5575 12.8527 48.4717 12.6019 48.3 12.4404C48.1317 12.2754 47.8607 12.1929 47.4871 12.1929C47.1336 12.1929 46.8071 12.3074 46.5075 12.5363C46.3897 12.6272 46.2652 12.6726 46.1339 12.6726C46.0093 12.6726 45.91 12.6272 45.836 12.5363C45.7552 12.4454 45.7148 12.3394 45.7148 12.2182C45.7148 12.0095 45.8747 11.8126 46.1945 11.6274C46.5513 11.4221 46.9855 11.3194 47.4972 11.3194C48.1839 11.3194 48.704 11.4692 49.0574 11.7688C49.4142 12.065 49.5926 12.5026 49.5926 13.0816V15.8385C49.5926 16.0573 49.5674 16.2122 49.5169 16.3031C49.4328 16.4613 49.2863 16.5404 49.0776 16.5404C48.9194 16.5404 48.7949 16.4916 48.704 16.394C48.6333 16.3132 48.5946 16.1903 48.5878 16.0254C48.3859 16.224 48.1839 16.362 47.9819 16.4394C47.7833 16.5168 47.5275 16.5555 47.2144 16.5555C46.595 16.5555 46.1356 16.4007 45.836 16.091C45.5633 15.8116 45.427 15.4464 45.427 14.9953ZM46.4318 14.9802C46.4318 15.4615 46.7533 15.7022 47.3962 15.7022C47.6049 15.7022 47.7816 15.6837 47.9264 15.6467C48.0745 15.6063 48.2091 15.5272 48.3303 15.4094C48.4818 15.268 48.5575 15.0138 48.5575 14.6469V14.243H47.3457C47.0461 14.243 46.8189 14.3069 46.664 14.4348C46.5092 14.5594 46.4318 14.7412 46.4318 14.9802ZM51.1052 15.1569C50.9806 14.8068 50.9183 14.4012 50.9183 13.94C50.9183 13.4788 50.9806 13.0749 51.1052 12.7282C51.2331 12.3781 51.4047 12.1037 51.6202 11.9051C51.839 11.7065 52.0797 11.5601 52.3422 11.4658C52.6048 11.3682 52.8876 11.3194 53.1905 11.3194C53.6046 11.3194 53.9782 11.4271 54.3115 11.6426C54.473 11.7469 54.5959 11.8462 54.6801 11.9405C54.7676 12.0347 54.8113 12.1408 54.8113 12.2586C54.8113 12.3798 54.7625 12.4925 54.6649 12.5969C54.5774 12.6844 54.4714 12.7282 54.3468 12.7282C54.2324 12.7282 54.096 12.6625 53.9378 12.5312C53.7022 12.3427 53.4531 12.2485 53.1905 12.2485C52.7899 12.2485 52.4786 12.3949 52.2564 12.6878C52.0511 12.9571 51.9484 13.3745 51.9484 13.94C51.9484 14.5055 52.0511 14.9213 52.2564 15.1872C52.4786 15.4834 52.7899 15.6315 53.1905 15.6315C53.443 15.6315 53.6921 15.5356 53.9378 15.3437C54.1028 15.2124 54.2391 15.1468 54.3468 15.1468C54.468 15.1468 54.574 15.1922 54.6649 15.2831C54.7625 15.3875 54.8113 15.5002 54.8113 15.6214C54.8113 15.7392 54.7659 15.847 54.675 15.9446C54.5875 16.0388 54.4663 16.1365 54.3115 16.2374C53.9748 16.4529 53.6012 16.5606 53.1905 16.5606C52.8876 16.5606 52.6048 16.5135 52.3422 16.4192C52.0797 16.3216 51.839 16.1735 51.6202 15.9749C51.4047 15.7763 51.2331 15.5036 51.1052 15.1569ZM56.2845 15.0811V12.1677H56.0472C55.8822 12.1677 55.7627 12.1475 55.6887 12.1071C55.5675 12.0398 55.5069 11.9287 55.5069 11.7739C55.5069 11.619 55.5675 11.5079 55.6887 11.4406C55.7627 11.4002 55.8822 11.38 56.0472 11.38H56.2845V10.5772C56.2845 10.3718 56.3097 10.2187 56.3602 10.1177C56.4444 9.9561 56.5908 9.87531 56.7995 9.87531C57.0082 9.87531 57.1546 9.9561 57.2388 10.1177C57.2893 10.2187 57.3145 10.3718 57.3145 10.5772V11.38H57.87C58.0349 11.38 58.1544 11.4002 58.2285 11.4406C58.3496 11.5079 58.4102 11.619 58.4102 11.7739C58.4102 11.9287 58.3496 12.0398 58.2285 12.1071C58.1544 12.1475 58.0349 12.1677 57.87 12.1677H57.3145V15.0357C57.3145 15.4194 57.4879 15.6164 57.8346 15.6265C58.0097 15.6332 58.1342 15.6568 58.2083 15.6972C58.3463 15.7712 58.4153 15.8924 58.4153 16.0607C58.4153 16.2257 58.3463 16.3452 58.2083 16.4192C58.1106 16.4731 57.9659 16.5 57.774 16.5H57.673C57.3633 16.5 57.1008 16.4327 56.8853 16.298C56.6733 16.1634 56.5201 15.9934 56.4259 15.788C56.3316 15.5793 56.2845 15.3437 56.2845 15.0811ZM60.6528 15.8385C60.6528 16.0439 60.6275 16.197 60.577 16.298C60.4929 16.4596 60.3464 16.5404 60.1377 16.5404C59.929 16.5404 59.7826 16.4596 59.6984 16.298C59.6479 16.197 59.6227 16.0439 59.6227 15.8385V12.0415C59.6227 11.8361 59.6479 11.683 59.6984 11.582C59.7826 11.4204 59.929 11.3396 60.1377 11.3396C60.3464 11.3396 60.4929 11.4204 60.577 11.582C60.6275 11.683 60.6528 11.8361 60.6528 12.0415V15.8385ZM59.6984 10.148C59.5773 10.0268 59.5167 9.88036 59.5167 9.70868C59.5167 9.53701 59.5773 9.39058 59.6984 9.2694C59.8196 9.14821 59.9661 9.08762 60.1377 9.08762C60.3094 9.08762 60.4558 9.14821 60.577 9.2694C60.6982 9.39058 60.7588 9.53701 60.7588 9.70868C60.7588 9.88036 60.6982 10.0268 60.577 10.148C60.4558 10.2692 60.3094 10.3297 60.1377 10.3297C59.9661 10.3297 59.8196 10.2692 59.6984 10.148ZM64.1183 16.4091C64.0173 16.4966 63.8894 16.5404 63.7346 16.5404C63.5797 16.5404 63.4518 16.4966 63.3508 16.4091C63.2498 16.3182 63.1657 16.1701 63.0984 15.9648L61.7906 12.1424C61.7165 11.9236 61.698 11.7587 61.735 11.6476C61.762 11.5668 61.8209 11.4961 61.9118 11.4355C62.0027 11.3716 62.1036 11.3396 62.2147 11.3396C62.3561 11.3396 62.4605 11.3817 62.5278 11.4658C62.5985 11.5466 62.6607 11.6695 62.7146 11.8344L63.7346 14.9095L64.7545 11.8344C64.8084 11.6695 64.869 11.5466 64.9363 11.4658C65.007 11.3817 65.113 11.3396 65.2544 11.3396C65.3655 11.3396 65.4665 11.3716 65.5574 11.4355C65.6483 11.4961 65.7072 11.5668 65.7341 11.6476C65.7711 11.7587 65.7526 11.9236 65.6785 12.1424L64.3708 15.9648C64.3001 16.1735 64.2159 16.3216 64.1183 16.4091ZM66.4607 13.94C66.4607 13.1086 66.656 12.4639 67.0464 12.0061C67.4369 11.5483 67.9654 11.3194 68.6319 11.3194C69.2883 11.3194 69.8084 11.5348 70.1922 11.9657C70.5793 12.3966 70.7812 12.9571 70.7981 13.6471C70.8048 13.8525 70.7577 14.0056 70.6567 14.1066C70.5692 14.1942 70.4177 14.2379 70.2023 14.2379H67.4807C67.4807 14.6823 67.5934 15.034 67.819 15.2932C68.0479 15.5524 68.3727 15.682 68.7935 15.682C69.1806 15.682 69.5088 15.5743 69.7781 15.3589C69.933 15.2343 70.0727 15.172 70.1972 15.172C70.3049 15.172 70.4025 15.2175 70.4901 15.3084C70.5776 15.3959 70.6213 15.4969 70.6213 15.6113C70.6213 15.8066 70.4497 16.0136 70.1063 16.2324C69.7731 16.4512 69.327 16.5606 68.7683 16.5606C68.435 16.5606 68.1337 16.5151 67.8644 16.4243C67.5951 16.33 67.3528 16.1836 67.1373 15.985C66.9219 15.7864 66.7553 15.5137 66.6374 15.167C66.5196 14.8203 66.4607 14.4113 66.4607 13.94ZM69.7832 13.5209C69.763 13.2213 69.7158 12.989 69.6418 12.8241C69.5543 12.6255 69.423 12.469 69.2479 12.3545C69.0729 12.2367 68.8676 12.1778 68.6319 12.1778C68.3929 12.1778 68.1842 12.2367 68.0058 12.3545C67.8308 12.469 67.6995 12.6255 67.612 12.8241C67.5345 12.9958 67.4908 13.2281 67.4807 13.5209H69.7832Z" fill="white"/>
<rect x="6.67285" y="5.3457" width="15.3081" height="15.3081" rx="4.83414" fill="white"/>
<path d="M11 13.5263L12.6842 15.2105L16.8947 11" stroke="#4CAF50" stroke-width="1.4" stroke-linecap="round" stroke-linejoin="round"/>
</svg>
