<svg width="24" height="24" viewBox="0 0 24 24" fill="none" xmlns="http://www.w3.org/2000/svg">
<circle cx="12" cy="12" r="12" fill="#FFA500"/>
<path d="M12.3 17.0003L11.2999 14H7.2998L8.29984 17.0003H12.3ZM12.3 17.0003H14.3" stroke="white" stroke-linecap="round" stroke-linejoin="round"/>
<path d="M12.3002 12.4983V12.2482C12.3002 11.3053 12.3002 10.8339 12.0073 10.541C11.7144 10.248 11.243 10.248 10.3001 10.248C9.35727 10.248 8.88585 10.248 8.59295 10.541C8.30005 10.8339 8.30005 11.3053 8.30005 12.2482V12.4983" stroke="white" stroke-linecap="round" stroke-linejoin="round"/>
<path d="M15.8001 12.5001C15.8001 13.0524 15.3524 13.5002 14.8001 13.5002C14.2478 13.5002 13.8 13.0524 13.8 12.5001C13.8 11.9477 14.2478 11.5 14.8001 11.5C15.3524 11.5 15.8001 11.9477 15.8001 12.5001Z" stroke="white"/>
<path d="M11.3001 8.00009C11.3001 8.55243 10.8524 9.00018 10.3001 9.00018C9.74778 9.00018 9.30005 8.55243 9.30005 8.00009C9.30005 7.44776 9.74778 7 10.3001 7C10.8524 7 11.3001 7.44776 11.3001 8.00009Z" stroke="white"/>
<path d="M13.3 14.748H16.3001C16.8525 14.748 17.3002 15.1958 17.3002 15.7481V15.9982C17.3002 16.5505 16.8525 16.9983 16.3001 16.9983H15.8001" stroke="white" stroke-linecap="round"/>
</svg>
