<svg width="24" height="24" viewBox="0 0 24 24" fill="none" xmlns="http://www.w3.org/2000/svg">
<circle cx="12" cy="12" r="12" fill="white"/>
<path d="M12.2117 13.666C10.9385 16.9997 7.37336 13.666 6.1001 16.9997" stroke="#4CAF50" stroke-linecap="round" stroke-linejoin="round"/>
<path d="M13.6006 13.6674H14.4348C15.7443 13.6674 16.3991 13.6674 16.806 13.2606C17.2128 12.8537 17.2128 12.1989 17.2128 10.8893V9.77807C17.2128 8.46848 17.2128 7.81368 16.806 7.40684C16.3991 7 15.7443 7 14.4348 7H12.2124C10.9028 7 10.248 7 9.84117 7.40684C9.49647 7.75155 9.44383 8.27427 9.43579 9.22246" stroke="#4CAF50" stroke-linecap="round" stroke-linejoin="round"/>
<path d="M9.15585 13.6648C9.92298 13.6648 10.5449 13.0429 10.5449 12.2758C10.5449 11.5086 9.92298 10.8867 9.15585 10.8867C8.38873 10.8867 7.76685 11.5086 7.76685 12.2758C7.76685 13.0429 8.38873 13.6648 9.15585 13.6648Z" stroke="#4CAF50" stroke-linecap="round" stroke-linejoin="round"/>
<path d="M11.6562 9.2207H14.9899M14.9899 11.4432H13.3231" stroke="#4CAF50" stroke-linecap="round" stroke-linejoin="round"/>
</svg>
