<svg width="20" height="20" viewBox="0 0 20 20" fill="none" xmlns="http://www.w3.org/2000/svg">
<path d="M9.48828 18.5C14.1827 18.5 17.9883 14.6944 17.9883 10C17.9883 5.30558 14.1827 1.5 9.48828 1.5C4.79386 1.5 0.988281 5.30558 0.988281 10C0.988281 14.6944 4.79386 18.5 9.48828 18.5Z" stroke="#FFA500" stroke-width="1.275"/>
<path d="M10.03 8.73183C9.28156 8.73183 8.6748 9.30269 8.6748 10.0068C8.6748 10.711 9.28156 11.2818 10.03 11.2818C10.7784 11.2818 11.3851 10.711 11.3851 10.0068C11.3851 9.30269 10.7784 8.73183 10.03 8.73183ZM10.03 8.73183V5.74902M12.7465 12.5667L10.9861 10.9104" stroke="#FFA500" stroke-width="1.275" stroke-linecap="round" stroke-linejoin="round"/>
</svg>
