<svg width="21" height="5" viewBox="0 0 21 5" fill="none" xmlns="http://www.w3.org/2000/svg">
<path fill-rule="evenodd" clip-rule="evenodd" d="M4.56522 2.28261C4.56522 3.54326 3.54326 4.56522 2.28261 4.56522C1.02196 4.56522 0 3.54326 0 2.28261C0 1.02196 1.02196 0 2.28261 0C3.54326 0 4.56522 1.02196 4.56522 2.28261ZM12.7826 2.28271C12.7826 3.54337 11.7606 4.56532 10.5 4.56532C9.23935 4.56532 8.21739 3.54337 8.21739 2.28271C8.21739 1.02206 9.23935 0.000106148 10.5 0.000106148C11.7606 0.000106148 12.7826 1.02206 12.7826 2.28271ZM18.7174 4.56532C19.978 4.56532 21 3.54337 21 2.28271C21 1.02206 19.978 0.000106148 18.7174 0.000106148C17.4567 0.000106148 16.4348 1.02206 16.4348 2.28271C16.4348 3.54337 17.4567 4.56532 18.7174 4.56532Z" fill="#F6FBFF"/>
</svg>
