<svg width="98" height="33" viewBox="0 0 98 33" fill="none" xmlns="http://www.w3.org/2000/svg">
<g clip-path="url(#clip0_895_13716)">
<g filter="url(#filter0_ii_895_13716)">
<path fill-rule="evenodd" clip-rule="evenodd" d="M10.0675 3.44263C7.87501 3.44263 6.09766 5.21998 6.09766 7.41245V25.5309C6.09766 27.7233 7.87501 29.5007 10.0675 29.5007H24.0467C26.2391 29.5007 28.0165 27.7233 28.0165 25.5309V9.95707L21.2515 3.44263H10.0675Z" fill="#AFAFAF"/>
</g>
<g filter="url(#filter1_dd_895_13716)">
<path d="M16.2862 16.2107C16.7615 16.2107 17.2093 16.3089 17.6328 16.504C17.9502 16.6483 18.2369 16.8447 18.495 17.092C18.7467 17.3324 18.9532 17.613 19.1056 17.9213C18.9018 18.1177 18.6565 18.2146 18.3698 18.2146C18.2667 18.214 18.1642 18.1993 18.0653 18.1711C17.8916 17.9001 17.6546 17.672 17.3732 17.5048C17.0468 17.3114 16.6708 17.2098 16.2876 17.2115C16.0164 17.2115 15.7531 17.2612 15.4988 17.3607C15.2428 17.4612 15.0106 17.6104 14.816 17.7994L13.2539 19.3036C13.0575 19.491 12.9025 19.7147 12.7981 19.9613C12.6959 20.2024 12.6433 20.4603 12.6432 20.7207C12.6432 20.9818 12.695 21.2354 12.7981 21.4803C12.9017 21.7273 13.0568 21.9511 13.2539 22.138C13.4484 22.3272 13.6808 22.4764 13.9369 22.5767C14.1872 22.6749 14.4557 22.7259 14.7269 22.7259C14.998 22.7259 15.2613 22.6762 15.5157 22.5767C15.7716 22.4762 16.0039 22.327 16.1984 22.138L17.292 21.085C17.6392 21.1758 17.9981 21.2218 18.3698 21.2218C18.4292 21.2218 18.5131 21.2192 18.6215 21.2144C18.5805 21.258 18.5387 21.3011 18.4964 21.3435L16.9343 22.8477C16.6336 23.1374 16.2928 23.3562 15.9106 23.5053C15.1509 23.804 14.2998 23.8035 13.5404 23.504C13.157 23.3535 12.8089 23.1303 12.5167 22.8477C12.216 22.5581 11.9889 22.23 11.8339 21.8632C11.6803 21.5009 11.6014 21.1133 11.6016 20.722C11.6016 20.3305 11.6802 19.9426 11.8339 19.5808C11.9889 19.2141 12.216 18.8859 12.5167 18.5963L14.0788 17.0921C14.1085 17.0635 14.1537 17.0237 14.213 16.9703C14.4979 16.7254 14.8275 16.5336 15.1852 16.4047C15.5373 16.2776 15.9102 16.212 16.2862 16.2109V16.2107ZM19.9306 12.7027C20.3373 12.7027 20.74 12.7785 21.1156 12.9264C21.4965 13.0743 21.8373 13.2945 22.1393 13.5841C22.4402 13.8736 22.6687 14.2018 22.8223 14.5686C22.976 14.9308 23.0544 15.3185 23.0533 15.7098C23.0533 16.1013 22.9747 16.4817 22.8197 16.8509C22.6637 17.2199 22.4319 17.5548 22.1382 17.8354L20.5761 19.3396C20.5463 19.3694 20.5012 19.4093 20.4418 19.4615C20.1574 19.7069 19.8276 19.8988 19.4697 20.0271C19.1174 20.1552 18.7439 20.2208 18.3673 20.2209C17.9013 20.2225 17.4409 20.1222 17.0209 19.9277C16.7033 19.7834 16.4166 19.587 16.1583 19.3398C15.9067 19.0994 15.7001 18.8188 15.5478 18.5105C15.7506 18.3141 15.996 18.2172 16.2837 18.2172C16.3845 18.2172 16.4865 18.232 16.5884 18.2607C16.7615 18.5316 16.998 18.7597 17.279 18.9269C17.6055 19.1202 17.9815 19.2218 18.3648 19.2203C18.6357 19.2203 18.8992 19.1706 19.1534 19.0711C19.4096 18.9709 19.642 18.8217 19.8363 18.6323L21.3984 17.1281C21.5952 16.941 21.7502 16.7173 21.854 16.4705C21.956 16.2294 22.009 15.9721 22.009 15.7111C22.009 15.45 21.9574 15.1964 21.854 14.9515C21.75 14.7048 21.595 14.481 21.3984 14.2938C21.2039 14.1046 20.9716 13.9554 20.7155 13.8551C20.465 13.7568 20.1971 13.7061 19.9267 13.7059C19.6556 13.7059 19.3922 13.7556 19.138 13.8551C18.8818 13.9552 18.6495 14.1045 18.4551 14.2938L17.3603 15.3467C17.009 15.2552 16.6465 15.2092 16.2825 15.2099C16.223 15.2099 16.1391 15.2125 16.0307 15.2174C16.0719 15.1739 16.1134 15.1305 16.1572 15.0883L17.7192 13.5841C18.0107 13.3013 18.3584 13.078 18.7416 12.9277C19.1277 12.7772 19.5226 12.7014 19.9306 12.7027Z" fill="white"/>
</g>
<path d="M27.3809 9.34619L21.8848 9.34619L28.0156 15.25L28.0156 9.95693L27.3809 9.34619Z" fill="url(#paint0_linear_895_13716)"/>
<path d="M25.2204 9.95703L28.0156 9.95703L21.2506 3.44252L21.2506 5.98721C21.2506 8.17968 23.0279 9.95703 25.2204 9.95703Z" fill="#AFAFAF"/>
</g>
<g clip-path="url(#clip1_895_13716)">
<g filter="url(#filter2_ii_895_13716)">
<path fill-rule="evenodd" clip-rule="evenodd" d="M42.3448 3.44263C40.1523 3.44263 38.375 5.21998 38.375 7.41245V25.5309C38.375 27.7233 40.1523 29.5007 42.3448 29.5007H55.5122C57.7047 29.5007 59.482 27.7233 59.482 25.5309V7.41245C59.482 7.39533 59.4819 7.37824 59.4817 7.36118V9.95714L52.9672 3.44263H42.3448Z" fill="#AFAFAF"/>
</g>
<g filter="url(#filter3_dd_895_13716)">
<path d="M46.0022 22.9861L48.9199 18.7983L51.8527 22.9861H53.2431L49.5944 17.9087L52.9804 13.2144H51.59L48.9199 17.019L46.2628 13.2144H44.8729L48.2316 17.9087L44.6113 22.9861H46.0022Z" fill="white"/>
</g>
<path d="M58.8707 9.34619H53.5781L59.4819 15.25L59.4819 9.95693L58.8707 9.34619Z" fill="url(#paint1_linear_895_13716)"/>
<path d="M56.9358 9.95703L59.4805 9.95703L52.966 3.44252L52.966 5.98721C52.966 8.17968 54.7433 9.95703 56.9358 9.95703Z" fill="#AFAFAF"/>
</g>
<g clip-path="url(#clip2_895_13716)">
<g filter="url(#filter4_ii_895_13716)">
<path fill-rule="evenodd" clip-rule="evenodd" d="M73.8097 3.44263C71.6172 3.44263 69.8398 5.21998 69.8398 7.41245V25.5309C69.8398 27.7233 71.6172 29.5007 73.8097 29.5007H87.7889C89.9813 29.5007 91.7587 27.7233 91.7587 25.5309V9.95707L84.9937 3.44263H73.8097Z" fill="#AFAFAF"/>
</g>
<g filter="url(#filter5_dd_895_13716)">
<path d="M74.6705 22.326L77.1362 18.8362C77.1677 18.7915 77.2091 18.754 77.2574 18.7264C77.3057 18.6987 77.3597 18.6817 77.4156 18.6764C77.4715 18.6711 77.5279 18.6777 77.5808 18.6957C77.6338 18.7137 77.682 18.7427 77.722 18.7807L79.3515 20.3181L82.9269 14.9217C82.9623 14.8681 83.0114 14.8242 83.0696 14.7943C83.1277 14.7644 83.1929 14.7494 83.2588 14.7508C83.3247 14.7523 83.3891 14.77 83.4458 14.8024C83.5025 14.8348 83.5496 14.8808 83.5824 14.9358L88.0247 22.3493C88.0584 22.4055 88.0762 22.4692 88.0762 22.534C88.0763 22.5989 88.0586 22.6626 88.0249 22.7187C87.9912 22.7749 87.9428 22.8215 87.8844 22.8539C87.8261 22.8863 87.7599 22.9033 87.6925 22.9032H74.9876C74.9178 22.9034 74.8493 22.8852 74.7894 22.8505C74.7296 22.8159 74.6807 22.7662 74.648 22.7068C74.6154 22.6474 74.6002 22.5806 74.6041 22.5135C74.608 22.4464 74.6309 22.3816 74.6703 22.326H74.6705Z" fill="white"/>
<path d="M75.4089 14.4241C75.4089 14.9178 75.6125 15.3912 75.975 15.7403C76.3375 16.0894 76.8292 16.2855 77.3418 16.2855C77.8545 16.2855 78.3461 16.0894 78.7086 15.7403C79.0711 15.3912 79.2748 14.9178 79.2748 14.4241C79.2748 13.9304 79.0711 13.457 78.7086 13.1079C78.3461 12.7589 77.8545 12.5627 77.3418 12.5627C76.8292 12.5627 76.3375 12.7589 75.975 13.1079C75.6125 13.457 75.4089 13.9304 75.4089 14.4241Z" fill="white"/>
</g>
<path d="M91.1231 9.34619L85.627 9.34619L91.7578 15.25L91.7578 9.95693L91.1231 9.34619Z" fill="url(#paint2_linear_895_13716)"/>
<path d="M88.9626 9.95703L91.7578 9.95703L84.9927 3.44252L84.9927 5.98721C84.9927 8.17968 86.7701 9.95703 88.9626 9.95703Z" fill="#AFAFAF"/>
</g>
<defs>
<filter id="filter0_ii_895_13716" x="6.09766" y="3.19451" width="21.918" height="26.5543" filterUnits="userSpaceOnUse" color-interpolation-filters="sRGB">
<feFlood flood-opacity="0" result="BackgroundImageFix"/>
<feBlend mode="normal" in="SourceGraphic" in2="BackgroundImageFix" result="shape"/>
<feColorMatrix in="SourceAlpha" type="matrix" values="0 0 0 0 0 0 0 0 0 0 0 0 0 0 0 0 0 0 127 0" result="hardAlpha"/>
<feOffset dy="-0.496227"/>
<feGaussianBlur stdDeviation="0.124057"/>
<feComposite in2="hardAlpha" operator="arithmetic" k2="-1" k3="1"/>
<feColorMatrix type="matrix" values="0 0 0 0 0 0 0 0 0 0 0 0 0 0 0 0 0 0 0.3 0"/>
<feBlend mode="normal" in2="shape" result="effect1_innerShadow_895_13716"/>
<feColorMatrix in="SourceAlpha" type="matrix" values="0 0 0 0 0 0 0 0 0 0 0 0 0 0 0 0 0 0 127 0" result="hardAlpha"/>
<feOffset dy="0.496227"/>
<feGaussianBlur stdDeviation="0.124057"/>
<feComposite in2="hardAlpha" operator="arithmetic" k2="-1" k3="1"/>
<feColorMatrix type="matrix" values="0 0 0 0 1 0 0 0 0 1 0 0 0 0 1 0 0 0 0.3 0"/>
<feBlend mode="normal" in2="effect1_innerShadow_895_13716" result="effect2_innerShadow_895_13716"/>
</filter>
<filter id="filter1_dd_895_13716" x="10.6016" y="11.7026" width="20.4512" height="22.0264" filterUnits="userSpaceOnUse" color-interpolation-filters="sRGB">
<feFlood flood-opacity="0" result="BackgroundImageFix"/>
<feColorMatrix in="SourceAlpha" type="matrix" values="0 0 0 0 0 0 0 0 0 0 0 0 0 0 0 0 0 0 127 0" result="hardAlpha"/>
<feOffset dx="4" dy="6"/>
<feGaussianBlur stdDeviation="2"/>
<feColorMatrix type="matrix" values="0 0 0 0 0 0 0 0 0 0 0 0 0 0 0 0 0 0 0.1 0"/>
<feBlend mode="normal" in2="BackgroundImageFix" result="effect1_dropShadow_895_13716"/>
<feColorMatrix in="SourceAlpha" type="matrix" values="0 0 0 0 0 0 0 0 0 0 0 0 0 0 0 0 0 0 127 0" result="hardAlpha"/>
<feOffset/>
<feGaussianBlur stdDeviation="0.5"/>
<feColorMatrix type="matrix" values="0 0 0 0 0 0 0 0 0 0 0 0 0 0 0 0 0 0 0.4 0"/>
<feBlend mode="normal" in2="effect1_dropShadow_895_13716" result="effect2_dropShadow_895_13716"/>
<feBlend mode="normal" in="SourceGraphic" in2="effect2_dropShadow_895_13716" result="shape"/>
</filter>
<filter id="filter2_ii_895_13716" x="38.375" y="3.19451" width="21.1074" height="26.5543" filterUnits="userSpaceOnUse" color-interpolation-filters="sRGB">
<feFlood flood-opacity="0" result="BackgroundImageFix"/>
<feBlend mode="normal" in="SourceGraphic" in2="BackgroundImageFix" result="shape"/>
<feColorMatrix in="SourceAlpha" type="matrix" values="0 0 0 0 0 0 0 0 0 0 0 0 0 0 0 0 0 0 127 0" result="hardAlpha"/>
<feOffset dy="-0.496227"/>
<feGaussianBlur stdDeviation="0.124057"/>
<feComposite in2="hardAlpha" operator="arithmetic" k2="-1" k3="1"/>
<feColorMatrix type="matrix" values="0 0 0 0 0 0 0 0 0 0 0 0 0 0 0 0 0 0 0.3 0"/>
<feBlend mode="normal" in2="shape" result="effect1_innerShadow_895_13716"/>
<feColorMatrix in="SourceAlpha" type="matrix" values="0 0 0 0 0 0 0 0 0 0 0 0 0 0 0 0 0 0 127 0" result="hardAlpha"/>
<feOffset dy="0.496227"/>
<feGaussianBlur stdDeviation="0.124057"/>
<feComposite in2="hardAlpha" operator="arithmetic" k2="-1" k3="1"/>
<feColorMatrix type="matrix" values="0 0 0 0 1 0 0 0 0 1 0 0 0 0 1 0 0 0 0.3 0"/>
<feBlend mode="normal" in2="effect1_innerShadow_895_13716" result="effect2_innerShadow_895_13716"/>
</filter>
<filter id="filter3_dd_895_13716" x="43.6113" y="12.2144" width="17.6309" height="20.7717" filterUnits="userSpaceOnUse" color-interpolation-filters="sRGB">
<feFlood flood-opacity="0" result="BackgroundImageFix"/>
<feColorMatrix in="SourceAlpha" type="matrix" values="0 0 0 0 0 0 0 0 0 0 0 0 0 0 0 0 0 0 127 0" result="hardAlpha"/>
<feOffset dx="4" dy="6"/>
<feGaussianBlur stdDeviation="2"/>
<feColorMatrix type="matrix" values="0 0 0 0 0 0 0 0 0 0 0 0 0 0 0 0 0 0 0.1 0"/>
<feBlend mode="normal" in2="BackgroundImageFix" result="effect1_dropShadow_895_13716"/>
<feColorMatrix in="SourceAlpha" type="matrix" values="0 0 0 0 0 0 0 0 0 0 0 0 0 0 0 0 0 0 127 0" result="hardAlpha"/>
<feOffset/>
<feGaussianBlur stdDeviation="0.5"/>
<feColorMatrix type="matrix" values="0 0 0 0 0 0 0 0 0 0 0 0 0 0 0 0 0 0 0.4 0"/>
<feBlend mode="normal" in2="effect1_dropShadow_895_13716" result="effect2_dropShadow_895_13716"/>
<feBlend mode="normal" in="SourceGraphic" in2="effect2_dropShadow_895_13716" result="shape"/>
</filter>
<filter id="filter4_ii_895_13716" x="69.8398" y="3.19451" width="21.918" height="26.5543" filterUnits="userSpaceOnUse" color-interpolation-filters="sRGB">
<feFlood flood-opacity="0" result="BackgroundImageFix"/>
<feBlend mode="normal" in="SourceGraphic" in2="BackgroundImageFix" result="shape"/>
<feColorMatrix in="SourceAlpha" type="matrix" values="0 0 0 0 0 0 0 0 0 0 0 0 0 0 0 0 0 0 127 0" result="hardAlpha"/>
<feOffset dy="-0.496227"/>
<feGaussianBlur stdDeviation="0.124057"/>
<feComposite in2="hardAlpha" operator="arithmetic" k2="-1" k3="1"/>
<feColorMatrix type="matrix" values="0 0 0 0 0 0 0 0 0 0 0 0 0 0 0 0 0 0 0.3 0"/>
<feBlend mode="normal" in2="shape" result="effect1_innerShadow_895_13716"/>
<feColorMatrix in="SourceAlpha" type="matrix" values="0 0 0 0 0 0 0 0 0 0 0 0 0 0 0 0 0 0 127 0" result="hardAlpha"/>
<feOffset dy="0.496227"/>
<feGaussianBlur stdDeviation="0.124057"/>
<feComposite in2="hardAlpha" operator="arithmetic" k2="-1" k3="1"/>
<feColorMatrix type="matrix" values="0 0 0 0 1 0 0 0 0 1 0 0 0 0 1 0 0 0 0.3 0"/>
<feBlend mode="normal" in2="effect1_innerShadow_895_13716" result="effect2_innerShadow_895_13716"/>
</filter>
<filter id="filter5_dd_895_13716" x="73.6035" y="11.5627" width="22.4727" height="21.3406" filterUnits="userSpaceOnUse" color-interpolation-filters="sRGB">
<feFlood flood-opacity="0" result="BackgroundImageFix"/>
<feColorMatrix in="SourceAlpha" type="matrix" values="0 0 0 0 0 0 0 0 0 0 0 0 0 0 0 0 0 0 127 0" result="hardAlpha"/>
<feOffset dx="4" dy="6"/>
<feGaussianBlur stdDeviation="2"/>
<feColorMatrix type="matrix" values="0 0 0 0 0 0 0 0 0 0 0 0 0 0 0 0 0 0 0.1 0"/>
<feBlend mode="normal" in2="BackgroundImageFix" result="effect1_dropShadow_895_13716"/>
<feColorMatrix in="SourceAlpha" type="matrix" values="0 0 0 0 0 0 0 0 0 0 0 0 0 0 0 0 0 0 127 0" result="hardAlpha"/>
<feOffset/>
<feGaussianBlur stdDeviation="0.5"/>
<feColorMatrix type="matrix" values="0 0 0 0 0 0 0 0 0 0 0 0 0 0 0 0 0 0 0.4 0"/>
<feBlend mode="normal" in2="effect1_dropShadow_895_13716" result="effect2_dropShadow_895_13716"/>
<feBlend mode="normal" in="SourceGraphic" in2="effect2_dropShadow_895_13716" result="shape"/>
</filter>
<linearGradient id="paint0_linear_895_13716" x1="23.2589" y1="8.02293" x2="29.1585" y2="14.1494" gradientUnits="userSpaceOnUse">
<stop stop-opacity="0.2"/>
<stop offset="1" stop-opacity="0"/>
</linearGradient>
<linearGradient id="paint1_linear_895_13716" x1="54.9014" y1="8.02293" x2="60.8052" y2="13.9267" gradientUnits="userSpaceOnUse">
<stop stop-opacity="0.2"/>
<stop offset="1" stop-opacity="0"/>
</linearGradient>
<linearGradient id="paint2_linear_895_13716" x1="87.0011" y1="8.02293" x2="92.9007" y2="14.1494" gradientUnits="userSpaceOnUse">
<stop stop-opacity="0.2"/>
<stop offset="1" stop-opacity="0"/>
</linearGradient>
<clipPath id="clip0_895_13716">
<rect width="32.4724" height="31.2697" fill="white" transform="translate(0.820312 0.83667)"/>
</clipPath>
<clipPath id="clip1_895_13716">
<rect width="31.2697" height="31.2697" fill="white" transform="translate(33.293 0.83667)"/>
</clipPath>
<clipPath id="clip2_895_13716">
<rect width="32.4724" height="31.2697" fill="white" transform="translate(64.5625 0.83667)"/>
</clipPath>
</defs>
</svg>
