<svg width="118" height="35" viewBox="0 0 118 35" fill="none" xmlns="http://www.w3.org/2000/svg">
<rect x="0.820312" y="0.580322" width="34.9094" height="33.8983" rx="7.19054" fill="#AFAFAF" fill-opacity="0.15"/>
<g clip-path="url(#clip0_895_14145)">
<g filter="url(#filter0_ii_895_14145)">
<path fill-rule="evenodd" clip-rule="evenodd" d="M12.7969 6.01099C10.4648 6.01099 8.57422 7.90155 8.57422 10.2337V25.2793C8.57422 27.6114 10.4648 29.502 12.7969 29.502H23.7551C26.0872 29.502 27.9778 27.6114 27.9778 25.2793V11.8836L21.9892 6.01099H12.7969Z" fill="#AFAFAF"/>
</g>
<g filter="url(#filter1_dd_895_14145)">
<path d="M19.9227 20.6812V23.8713C19.9227 23.9761 19.9016 24.0798 19.8606 24.1766C19.8196 24.2734 19.7596 24.3612 19.6839 24.4352C19.531 24.5848 19.3238 24.6688 19.1078 24.6688H17.4438C17.2278 24.6689 17.0207 24.5849 16.8677 24.4354C16.792 24.3614 16.732 24.2734 16.691 24.1766C16.65 24.0798 16.6289 23.976 16.6289 23.8711V20.6812H19.9227ZM19.1078 22.5088H17.4438V24.1106H19.1078V22.5088ZM19.8955 17.4911V19.0929H18.2589V17.4911H19.8955ZM18.2793 6.24585V7.86086H19.9227V9.47586H18.2791V10.9712H19.9227V12.5862H18.2793V14.1814H19.9227V15.7766H18.2793V17.3716H16.6289V15.7764H18.2724V14.1813H16.6289V12.5862H18.2724V10.9712H16.6289V9.35621H18.2724V7.86086H16.6289V6.24585H18.2793Z" fill="white"/>
</g>
<path d="M27.4162 11.3333L22.5508 11.3333L27.9781 16.6554V11.8838L27.4162 11.3333Z" fill="url(#paint0_linear_895_14145)"/>
<path d="M26.2105 11.8838L27.9766 11.8838L21.9878 6.01104L21.9878 7.6611C21.9878 9.99323 23.8784 11.8838 26.2105 11.8838Z" fill="#AFAFAF"/>
</g>
<rect x="41.8926" y="0.580322" width="34.9094" height="33.8827" rx="7.19054" fill="#AFAFAF" fill-opacity="0.15"/>
<g clip-path="url(#clip1_895_14145)">
<g filter="url(#filter2_ii_895_14145)">
<path fill-rule="evenodd" clip-rule="evenodd" d="M53.9396 5.97168C51.5686 5.97168 49.6465 7.89375 49.6465 10.2647V24.7781C49.6465 27.1491 51.5686 29.0712 53.9396 29.0712H64.757C67.128 29.0712 69.0501 27.1491 69.0501 24.7781V10.2647C69.0501 10.26 69.05 10.2553 69.05 10.2506V11.7466L63.0613 5.97168H53.9396Z" fill="#AFAFAF"/>
</g>
<g filter="url(#filter3_dd_895_14145)">
<path d="M63.918 19.0395L56.9335 23.0544C56.4668 23.3256 55.873 23 55.873 22.4712V14.4412C55.873 13.9258 56.4668 13.6004 56.9335 13.858L63.9179 17.8729C64.3703 18.1444 64.3703 18.7818 63.9179 19.0395H63.918Z" fill="white"/>
</g>
<path d="M68.4885 11.2053H63.623L69.0504 16.4388V11.7467L68.4885 11.2053Z" fill="url(#paint1_linear_895_14145)"/>
<path d="M67.3531 11.7466L69.0488 11.7466L63.0601 5.97171L63.0601 7.45351C63.0601 9.82451 64.9821 11.7466 67.3531 11.7466Z" fill="#AFAFAF"/>
</g>
<rect x="82.9648" y="0.580322" width="34.9094" height="34.3525" rx="7.19054" fill="#AFAFAF" fill-opacity="0.15"/>
<g filter="url(#filter4_ii_895_14145)">
<path fill-rule="evenodd" clip-rule="evenodd" d="M94.9414 6.01099C92.6093 6.01099 90.7188 7.90155 90.7188 10.2337V25.2793C90.7188 27.6114 92.6093 29.502 94.9414 29.502H105.9C108.232 29.502 110.122 27.6114 110.122 25.2793V11.8836L104.134 6.01099H94.9414Z" fill="#AFAFAF"/>
</g>
<path d="M104.31 21.8314C103.501 21.7725 102.723 21.4782 102.094 20.9483C100.867 21.2132 99.6993 21.5958 98.5318 22.0669C97.6039 23.6859 96.7356 24.5101 95.9872 24.5101C95.8375 24.5101 95.658 24.4808 95.5382 24.3924C95.2088 24.2453 95.0293 23.9214 95.0293 23.5976C95.0293 23.3326 95.0892 22.5968 97.9331 21.3898C98.5919 20.2123 99.1006 19.0054 99.5198 17.7397C99.1605 17.0332 98.3823 15.2964 98.9209 14.4134C99.1006 14.0895 99.4599 13.9129 99.8492 13.9424C100.148 13.9424 100.448 14.0895 100.627 14.325C101.017 14.8549 100.987 15.9735 100.478 17.622C100.957 18.5038 101.584 19.3 102.334 19.9769C102.963 19.859 103.591 19.7708 104.22 19.7708C105.627 19.8002 105.836 20.4478 105.807 20.8305C105.807 21.8314 104.819 21.8314 104.31 21.8314ZM95.9275 23.6564L96.0173 23.627C96.4364 23.4799 96.7656 23.1855 97.0051 22.8028C96.556 22.9794 96.1968 23.2738 95.9275 23.6565V23.6564ZM99.9089 14.8255H99.8191C99.7892 14.8255 99.7293 14.8255 99.6993 14.8549C99.5796 15.3552 99.6694 15.8851 99.879 16.3561C100.059 15.8557 100.059 15.3259 99.9089 14.8255ZM100.119 19.0938L100.089 19.1526L100.059 19.1232C99.7892 19.8003 99.4897 20.4773 99.1605 21.1249L99.2204 21.0956V21.1543C99.8861 20.9176 100.566 20.721 101.256 20.5655L101.226 20.5362H101.316C100.867 20.0945 100.448 19.5942 100.119 19.0938ZM104.19 20.6539C103.92 20.6539 103.681 20.6539 103.411 20.7127C103.711 20.8599 104.01 20.9188 104.31 20.9483C104.519 20.9777 104.729 20.9483 104.908 20.8894C104.908 20.801 104.789 20.6539 104.19 20.6539Z" fill="white"/>
<path d="M109.561 11.3333L104.695 11.3333L110.123 16.6554V11.8838L109.561 11.3333Z" fill="url(#paint2_linear_895_14145)"/>
<path d="M108.355 11.8838L110.121 11.8838L104.132 6.01104L104.132 7.6611C104.132 9.99323 106.023 11.8838 108.355 11.8838Z" fill="#AFAFAF"/>
<defs>
<filter id="filter0_ii_895_14145" x="8.57422" y="5.74707" width="19.4043" height="24.0188" filterUnits="userSpaceOnUse" color-interpolation-filters="sRGB">
<feFlood flood-opacity="0" result="BackgroundImageFix"/>
<feBlend mode="normal" in="SourceGraphic" in2="BackgroundImageFix" result="shape"/>
<feColorMatrix in="SourceAlpha" type="matrix" values="0 0 0 0 0 0 0 0 0 0 0 0 0 0 0 0 0 0 127 0" result="hardAlpha"/>
<feOffset dy="-0.527836"/>
<feGaussianBlur stdDeviation="0.131959"/>
<feComposite in2="hardAlpha" operator="arithmetic" k2="-1" k3="1"/>
<feColorMatrix type="matrix" values="0 0 0 0 0 0 0 0 0 0 0 0 0 0 0 0 0 0 0.3 0"/>
<feBlend mode="normal" in2="shape" result="effect1_innerShadow_895_14145"/>
<feColorMatrix in="SourceAlpha" type="matrix" values="0 0 0 0 0 0 0 0 0 0 0 0 0 0 0 0 0 0 127 0" result="hardAlpha"/>
<feOffset dy="0.527836"/>
<feGaussianBlur stdDeviation="0.131959"/>
<feComposite in2="hardAlpha" operator="arithmetic" k2="-1" k3="1"/>
<feColorMatrix type="matrix" values="0 0 0 0 1 0 0 0 0 1 0 0 0 0 1 0 0 0 0.3 0"/>
<feBlend mode="normal" in2="effect1_innerShadow_895_14145" result="effect2_innerShadow_895_14145"/>
</filter>
<filter id="filter1_dd_895_14145" x="15.6289" y="5.24585" width="12.293" height="29.4229" filterUnits="userSpaceOnUse" color-interpolation-filters="sRGB">
<feFlood flood-opacity="0" result="BackgroundImageFix"/>
<feColorMatrix in="SourceAlpha" type="matrix" values="0 0 0 0 0 0 0 0 0 0 0 0 0 0 0 0 0 0 127 0" result="hardAlpha"/>
<feOffset dx="4" dy="6"/>
<feGaussianBlur stdDeviation="2"/>
<feColorMatrix type="matrix" values="0 0 0 0 0 0 0 0 0 0 0 0 0 0 0 0 0 0 0.1 0"/>
<feBlend mode="normal" in2="BackgroundImageFix" result="effect1_dropShadow_895_14145"/>
<feColorMatrix in="SourceAlpha" type="matrix" values="0 0 0 0 0 0 0 0 0 0 0 0 0 0 0 0 0 0 127 0" result="hardAlpha"/>
<feOffset/>
<feGaussianBlur stdDeviation="0.5"/>
<feColorMatrix type="matrix" values="0 0 0 0 0 0 0 0 0 0 0 0 0 0 0 0 0 0 0.4 0"/>
<feBlend mode="normal" in2="effect1_dropShadow_895_14145" result="effect2_dropShadow_895_14145"/>
<feBlend mode="normal" in="SourceGraphic" in2="effect2_dropShadow_895_14145" result="shape"/>
</filter>
<filter id="filter2_ii_895_14145" x="49.6465" y="5.70336" width="19.4043" height="23.6362" filterUnits="userSpaceOnUse" color-interpolation-filters="sRGB">
<feFlood flood-opacity="0" result="BackgroundImageFix"/>
<feBlend mode="normal" in="SourceGraphic" in2="BackgroundImageFix" result="shape"/>
<feColorMatrix in="SourceAlpha" type="matrix" values="0 0 0 0 0 0 0 0 0 0 0 0 0 0 0 0 0 0 127 0" result="hardAlpha"/>
<feOffset dy="-0.536634"/>
<feGaussianBlur stdDeviation="0.134158"/>
<feComposite in2="hardAlpha" operator="arithmetic" k2="-1" k3="1"/>
<feColorMatrix type="matrix" values="0 0 0 0 0 0 0 0 0 0 0 0 0 0 0 0 0 0 0.3 0"/>
<feBlend mode="normal" in2="shape" result="effect1_innerShadow_895_14145"/>
<feColorMatrix in="SourceAlpha" type="matrix" values="0 0 0 0 0 0 0 0 0 0 0 0 0 0 0 0 0 0 127 0" result="hardAlpha"/>
<feOffset dy="0.536634"/>
<feGaussianBlur stdDeviation="0.134158"/>
<feComposite in2="hardAlpha" operator="arithmetic" k2="-1" k3="1"/>
<feColorMatrix type="matrix" values="0 0 0 0 1 0 0 0 0 1 0 0 0 0 1 0 0 0 0.3 0"/>
<feBlend mode="normal" in2="effect1_innerShadow_895_14145" result="effect2_innerShadow_895_14145"/>
</filter>
<filter id="filter3_dd_895_14145" x="54.873" y="12.7678" width="17.3848" height="20.3843" filterUnits="userSpaceOnUse" color-interpolation-filters="sRGB">
<feFlood flood-opacity="0" result="BackgroundImageFix"/>
<feColorMatrix in="SourceAlpha" type="matrix" values="0 0 0 0 0 0 0 0 0 0 0 0 0 0 0 0 0 0 127 0" result="hardAlpha"/>
<feOffset dx="4" dy="6"/>
<feGaussianBlur stdDeviation="2"/>
<feColorMatrix type="matrix" values="0 0 0 0 0 0 0 0 0 0 0 0 0 0 0 0 0 0 0.1 0"/>
<feBlend mode="normal" in2="BackgroundImageFix" result="effect1_dropShadow_895_14145"/>
<feColorMatrix in="SourceAlpha" type="matrix" values="0 0 0 0 0 0 0 0 0 0 0 0 0 0 0 0 0 0 127 0" result="hardAlpha"/>
<feOffset/>
<feGaussianBlur stdDeviation="0.5"/>
<feColorMatrix type="matrix" values="0 0 0 0 0 0 0 0 0 0 0 0 0 0 0 0 0 0 0.4 0"/>
<feBlend mode="normal" in2="effect1_dropShadow_895_14145" result="effect2_dropShadow_895_14145"/>
<feBlend mode="normal" in="SourceGraphic" in2="effect2_dropShadow_895_14145" result="shape"/>
</filter>
<filter id="filter4_ii_895_14145" x="90.7188" y="5.74707" width="19.4043" height="24.0188" filterUnits="userSpaceOnUse" color-interpolation-filters="sRGB">
<feFlood flood-opacity="0" result="BackgroundImageFix"/>
<feBlend mode="normal" in="SourceGraphic" in2="BackgroundImageFix" result="shape"/>
<feColorMatrix in="SourceAlpha" type="matrix" values="0 0 0 0 0 0 0 0 0 0 0 0 0 0 0 0 0 0 127 0" result="hardAlpha"/>
<feOffset dy="-0.527836"/>
<feGaussianBlur stdDeviation="0.131959"/>
<feComposite in2="hardAlpha" operator="arithmetic" k2="-1" k3="1"/>
<feColorMatrix type="matrix" values="0 0 0 0 0 0 0 0 0 0 0 0 0 0 0 0 0 0 0.3 0"/>
<feBlend mode="normal" in2="shape" result="effect1_innerShadow_895_14145"/>
<feColorMatrix in="SourceAlpha" type="matrix" values="0 0 0 0 0 0 0 0 0 0 0 0 0 0 0 0 0 0 127 0" result="hardAlpha"/>
<feOffset dy="0.527836"/>
<feGaussianBlur stdDeviation="0.131959"/>
<feComposite in2="hardAlpha" operator="arithmetic" k2="-1" k3="1"/>
<feColorMatrix type="matrix" values="0 0 0 0 1 0 0 0 0 1 0 0 0 0 1 0 0 0 0.3 0"/>
<feBlend mode="normal" in2="effect1_innerShadow_895_14145" result="effect2_innerShadow_895_14145"/>
</filter>
<linearGradient id="paint0_linear_895_14145" x1="23.7672" y1="10.1403" x2="29.0884" y2="15.5666" gradientUnits="userSpaceOnUse">
<stop stop-opacity="0.2"/>
<stop offset="1" stop-opacity="0"/>
</linearGradient>
<linearGradient id="paint1_linear_895_14145" x1="64.8395" y1="10.0323" x2="70.0695" y2="15.456" gradientUnits="userSpaceOnUse">
<stop stop-opacity="0.2"/>
<stop offset="1" stop-opacity="0"/>
</linearGradient>
<linearGradient id="paint2_linear_895_14145" x1="105.912" y1="10.1403" x2="111.233" y2="15.5666" gradientUnits="userSpaceOnUse">
<stop stop-opacity="0.2"/>
<stop offset="1" stop-opacity="0"/>
</linearGradient>
<clipPath id="clip0_895_14145">
<rect width="28.746" height="28.1892" fill="white" transform="translate(3.90234 3.66187)"/>
</clipPath>
<clipPath id="clip1_895_14145">
<rect width="28.746" height="27.7194" fill="white" transform="translate(44.9746 3.66187)"/>
</clipPath>
</defs>
</svg>
