<svg width="24" height="24" viewBox="0 0 24 24" fill="none" xmlns="http://www.w3.org/2000/svg">
<circle cx="12" cy="12" r="12" fill="#03A9F4"/>
<path d="M17.2683 14.9769C17.6952 14.9769 18.0349 14.7082 18.3398 14.3324C18.9641 13.5633 17.9391 12.9487 17.5482 12.6477C17.1509 12.3417 16.7072 12.1683 16.2573 12.1276M15.6875 10.9879C16.4743 10.9879 17.1121 10.3501 17.1121 9.5633C17.1121 8.7765 16.4743 8.13867 15.6875 8.13867" stroke="white" stroke-linecap="round"/>
<path d="M7.26846 14.9769C6.84147 14.9769 6.50185 14.7082 6.19691 14.3324C5.57267 13.5633 6.59758 12.9487 6.98848 12.6477C7.38585 12.3417 7.82954 12.1683 8.27939 12.1276M8.56432 10.9879C7.77752 10.9879 7.1397 10.3501 7.1397 9.5633C7.1397 8.7765 7.77752 8.13867 8.56432 8.13867" stroke="white" stroke-linecap="round"/>
<path d="M10.0368 13.3334C9.45457 13.6934 7.92792 14.4286 8.85776 15.3485C9.31197 15.7979 9.81785 16.1193 10.4539 16.1193H14.0831C14.7191 16.1193 15.225 15.7979 15.6792 15.3485C16.609 14.4286 15.0824 13.6934 14.5001 13.3334C13.1347 12.4891 11.4022 12.4891 10.0368 13.3334Z" stroke="white" stroke-linecap="round" stroke-linejoin="round"/>
<path d="M14.2629 8.99448C14.2629 10.096 13.3699 10.989 12.2684 10.989C11.1669 10.989 10.2739 10.096 10.2739 8.99448C10.2739 7.89296 11.1669 7 12.2684 7C13.3699 7 14.2629 7.89296 14.2629 8.99448Z" stroke="white"/>
</svg>
