<svg width="17" height="17" viewBox="0 0 17 17" fill="none" xmlns="http://www.w3.org/2000/svg">
<path d="M0.98999 8.1875C0.98999 4.65197 0.98999 2.8842 2.08834 1.78585C3.18669 0.6875 4.95446 0.6875 8.48999 0.6875C12.0255 0.6875 13.7933 0.6875 14.8917 1.78585C15.99 2.8842 15.99 4.65197 15.99 8.1875C15.99 11.723 15.99 13.4908 14.8917 14.5892C13.7933 15.6875 12.0255 15.6875 8.48999 15.6875C4.95446 15.6875 3.18669 15.6875 2.08834 14.5892C0.98999 13.4908 0.98999 11.723 0.98999 8.1875Z" fill="#616161" stroke="#616161" stroke-width="1.18421"/>
<path d="M8.68108 12.1348V8.18742C8.68108 7.81527 8.68108 7.62919 8.56542 7.51353C8.44984 7.39795 8.26376 7.39795 7.8916 7.39795" stroke="#EFEFEF" stroke-width="1.18421" stroke-linecap="round" stroke-linejoin="round"/>
<path d="M8.48364 5.02979H8.49075" stroke="#EFEFEF" stroke-width="1.57895" stroke-linecap="round" stroke-linejoin="round"/>
</svg>
