<svg width="17" height="19" viewBox="0 0 17 19" fill="none" xmlns="http://www.w3.org/2000/svg">
<path fill-rule="evenodd" clip-rule="evenodd" d="M15.9343 3.63522C16.2782 3.63522 16.5644 3.92074 16.5644 4.28405V4.61995C16.5644 4.97442 16.2782 5.26877 15.9343 5.26877H1.2841C0.939357 5.26877 0.653076 4.97442 0.653076 4.61995V4.28405C0.653076 3.92074 0.939357 3.63522 1.2841 3.63522H3.86148C4.38504 3.63522 4.84069 3.26308 4.95847 2.73801L5.09344 2.13515C5.30321 1.31396 5.99355 0.768555 6.78361 0.768555H10.4339C11.2154 0.768555 11.9135 1.31396 12.1155 2.09184L12.2599 2.73712C12.3768 3.26308 12.8325 3.63522 13.3569 3.63522H15.9343ZM14.6236 15.9145C14.8926 13.4067 15.3638 7.44882 15.3638 7.38871C15.3809 7.20662 15.3216 7.03425 15.2039 6.89546C15.0775 6.76552 14.9176 6.68862 14.7413 6.68862H2.48026C2.30316 6.68862 2.13466 6.76552 2.01774 6.89546C1.8991 7.03425 1.84064 7.20662 1.84924 7.38871C1.85082 7.39976 1.86772 7.60962 1.89598 7.96048C2.02153 9.51912 2.37122 13.8603 2.59718 15.9145C2.75708 17.4278 3.75004 18.3789 5.18832 18.4134C6.29819 18.439 7.4416 18.4479 8.61079 18.4479C9.71207 18.4479 10.8305 18.439 11.9748 18.4134C13.463 18.3878 14.455 17.4534 14.6236 15.9145Z" fill="#E71D36"/>
</svg>
