<svg width="91" height="54" viewBox="0 0 91 54" fill="none" xmlns="http://www.w3.org/2000/svg">
<path d="M64.37 42.3399C62.37 37.3399 57.71 32.8899 54.25 30.1499C60.5 28.6599 62.91 24.9299 63.73 23.1499C64.5394 21.3177 64.8093 19.2926 64.5082 17.3124C64.2071 15.3321 63.3474 13.4788 62.03 11.9699L61.9 11.8199C58.11 8.02992 53.6 6.81992 47.69 7.97992C44.726 8.63069 41.8323 9.56843 39.05 10.7799C35.2524 13.0708 31.1933 14.8972 26.96 16.2199C26.45 16.3799 25.96 16.5099 25.44 16.6199C24.4918 16.8482 23.5298 17.0152 22.56 17.1199C22.13 17.1699 21.68 17.2099 21.22 17.2399C15.55 17.6099 7.77003 16.1399 0.0300293 8.39991C2.29527 12.1221 5.49401 15.1876 9.30914 17.2925C13.1243 19.3974 17.4233 20.4686 21.78 20.3999C25.8234 20.1349 29.7863 19.1459 33.48 17.4799L35.4 16.5699C47.53 10.8799 53.95 9.32993 59.12 14.4199C59.9653 15.3768 60.5205 16.5546 60.7206 17.8156C60.9207 19.0765 60.7575 20.3684 60.25 21.5399C58.77 24.7599 54.61 26.7799 49.13 26.9499C48.7192 26.9558 48.3212 27.094 47.9951 27.344C47.6691 27.594 47.4323 27.9425 47.32 28.3378C47.2078 28.733 47.2259 29.1539 47.3718 29.538C47.5177 29.9221 47.7836 30.2489 48.13 30.4699C51.0748 32.3624 53.7896 34.5907 56.22 37.1099C57.11 38.0599 61.49 43.1099 59.88 48.3999C58.15 53.1799 59.57 53.9799 61.97 53.5799C64.08 53.1299 66.19 49.8899 64.97 44.5799C64.8326 43.8179 64.6319 43.0686 64.37 42.3399Z" fill="#8DC640"/>
<path d="M61.8 10.3798C63.05 9.77976 65.61 10.8398 67.12 11.5698L67.22 11.6298C67.5407 11.8322 67.8748 12.0127 68.22 12.1698C69.8511 12.841 71.6043 13.1646 73.3675 13.1198C75.1307 13.075 76.8651 12.6629 78.46 11.9098C79.5214 11.3912 80.4437 10.6266 81.15 9.67978C81.59 10.0298 82.07 10.3698 82.61 10.6798C85.17 12.5098 86.67 13.5198 87.5 14.0498C86.92 14.7098 86.33 15.1598 86.11 15.1298C85 14.6198 80.35 13.0698 77.97 14.8798C77.16 15.4998 76.5901 16.8098 75.8701 18.4698C75.1181 20.5014 74.0444 22.399 72.69 24.0898C73.69 19.7598 71.2 18.3598 71.2 18.3598C71.664 19.6437 71.7302 21.0377 71.39 22.3598C71.2483 24.3712 70.5564 26.305 69.39 27.9498L69.79 27.8598C74.21 26.8598 76.13 22.4498 77.54 19.1998C77.8931 18.1654 78.4133 17.1959 79.08 16.3298C80.51 15.2398 84.08 16.1998 85.38 16.7798C87.19 17.6198 89.05 15.1198 89.58 14.3298L90.13 13.5098L89.26 13.0398C89.21 13.0398 88.05 12.3698 83.66 9.21976C83.1123 8.85994 82.5879 8.46583 82.09 8.03976C82.1787 7.71176 82.2423 7.37745 82.28 7.03976C82.69 2.41976 79.78 0.539758 78.19 0.189758L77.36 0.00976562L77.13 0.819763C77.13 0.999763 76.1301 4.65977 79.9301 8.50977C79.3839 9.2931 78.6428 9.92042 77.78 10.3298C76.2764 11.0418 74.6272 11.3927 72.964 11.3545C71.3007 11.3163 69.6694 10.8901 68.2 10.1098L67.64 9.76978C61.77 6.21978 58.64 7.98978 58.64 7.98978C59.8539 8.54831 60.9321 9.36375 61.8 10.3798ZM78.73 2.37976C79.55 2.91976 80.56 4.07978 80.46 6.45978C79.4567 5.32303 78.8496 3.89123 78.73 2.37976Z" fill="#8DC640"/>
</svg>
