<svg width="20" height="21" viewBox="0 0 20 21" fill="none" xmlns="http://www.w3.org/2000/svg">
<path fill-rule="evenodd" clip-rule="evenodd" d="M4.34127 1.12433C8.10224 0.721578 11.8978 0.721578 15.6587 1.12433C17.7411 1.34982 19.4211 2.9341 19.6654 4.95292C20.1115 8.6382 20.1115 12.3612 19.6654 16.0464C19.4211 18.0653 17.7411 19.6495 15.6587 19.875C11.8978 20.2779 8.10223 20.2779 4.34127 19.875C2.25891 19.6495 0.578923 18.0653 0.334583 16.0464C-0.111528 12.3616 -0.111528 8.63899 0.334583 4.95409C0.458172 3.97331 0.920974 3.06158 1.64798 2.36668C2.37499 1.67177 3.32359 1.23442 4.34006 1.1255M10 4.63583C10.2418 4.63583 10.4737 4.72863 10.6447 4.89381C10.8157 5.059 10.9117 5.28303 10.9117 5.51664V9.61887H15.1579C15.3997 9.61887 15.6316 9.71167 15.8026 9.87685C15.9735 10.042 16.0696 10.2661 16.0696 10.4997C16.0696 10.7333 15.9735 10.9573 15.8026 11.1225C15.6316 11.2877 15.3997 11.3805 15.1579 11.3805H10.9117V15.4827C10.9117 15.7163 10.8157 15.9404 10.6447 16.1056C10.4737 16.2707 10.2418 16.3635 10 16.3635C9.7582 16.3635 9.5263 16.2707 9.35532 16.1056C9.18434 15.9404 9.08828 15.7163 9.08828 15.4827V11.3805H4.84211C4.60031 11.3805 4.36841 11.2877 4.19743 11.1225C4.02645 10.9573 3.93039 10.7333 3.93039 10.4997C3.93039 10.2661 4.02645 10.042 4.19743 9.87685C4.36841 9.71167 4.60031 9.61887 4.84211 9.61887H9.08828V5.51664C9.08828 5.28303 9.18434 5.059 9.35532 4.89381C9.5263 4.72863 9.7582 4.63583 10 4.63583Z" fill="white"/>
</svg>
