<svg width="129" height="56" viewBox="0 0 129 56" fill="none" xmlns="http://www.w3.org/2000/svg">
<path d="M39.4573 52.9766C48.4927 51.3729 57.7054 50.6837 66.877 50.5567C69.853 50.5311 73.1291 50.5557 76.0764 50.8568L79.1291 51.1896C80.6018 51.3811 82.2065 51.674 83.6771 51.9198C85.1794 52.2341 86.6766 52.5885 88.1595 52.9766L88.1349 53.1138C81.0462 52.5076 73.9586 52.0826 66.8647 51.7897C61.7884 51.6586 56.711 51.7436 51.6367 52.0385C47.5762 52.2587 43.5188 52.6079 39.4808 53.1138L39.4573 52.9766Z" fill="#4D4D4D"/>
<path d="M94.3022 43.6964C94.2981 43.6862 94.2961 43.6769 94.292 43.6677L94.2899 43.6667C92.2684 38.4859 87.4153 33.9174 83.8484 31.0889C90.295 29.5446 92.7856 25.7033 93.6304 23.864C95.3519 20.1159 94.6975 15.8004 91.8803 12.3206C91.8373 12.2674 91.7912 12.2162 91.742 12.167C87.8352 8.26013 83.1756 7.00051 77.0762 8.20176C74.3542 8.73838 71.3731 9.76246 68.1646 11.0948C62.7524 14.2203 58.6397 15.8486 55.6852 16.7098C55.1608 16.8737 54.6386 17.0109 54.1183 17.1246C52.8403 17.4257 51.8541 17.566 51.1454 17.6356C50.6979 17.6899 50.235 17.7329 49.7578 17.7646C49.7404 17.7728 49.7342 17.7738 49.7414 17.7656C43.8857 18.1466 35.8631 16.6279 27.8701 8.63494C27.8701 8.63494 34.628 21.1994 50.321 21.0581C51.1137 21.0294 56.2361 20.7447 62.3898 18.0432C63.0657 17.7185 63.7252 17.4062 64.3704 17.1041C64.3827 17.0979 64.395 17.0918 64.4073 17.0857V17.0867C76.9236 11.2238 83.5473 9.62011 88.8808 14.8777C90.7077 17.1829 91.1337 19.8538 90.0482 22.2184C88.5203 25.5466 84.2325 27.6327 78.5785 27.7996C77.7111 27.8252 76.9625 28.4161 76.7352 29.2538C76.5078 30.0915 76.856 30.9794 77.5923 31.4392C79.6589 32.7316 83.0507 35.2467 85.9406 38.2852C86.8572 39.2693 91.3795 44.4819 89.7195 49.9351C87.9345 54.8722 89.4 55.6956 91.8752 55.2839C94.0575 54.8169 96.2347 51.4743 94.9822 45.9821C94.8245 45.21 94.5931 44.4471 94.3022 43.6964Z" fill="#8CC63F"/>
<path d="M91.6441 10.7129C92.9406 10.0985 95.5827 11.1881 97.1363 11.9459C97.1701 11.9664 97.2049 11.9869 97.2387 12.0084C97.5756 12.2122 97.9351 12.3914 98.3047 12.5563C98.3344 12.5737 98.3529 12.5829 98.3529 12.5829C98.3529 12.5829 98.356 12.5819 98.3611 12.5819C101.54 13.9695 105.777 13.8998 108.92 12.3095C110.111 11.7063 111.05 10.9239 111.701 10.0104C112.155 10.3688 112.655 10.7262 113.205 11.0806C115.852 12.9772 117.398 14.0156 118.251 14.5655C117.657 15.2465 117.046 15.7104 116.821 15.6797C115.672 15.1503 110.877 13.5527 108.418 15.4216C107.581 16.0576 106.995 17.4114 106.253 19.1247C105.412 21.0684 104.443 23.306 102.97 24.92C103.985 20.4581 101.433 19.0162 101.433 19.0162C101.971 20.5513 101.929 21.9389 101.625 23.1196C101.459 24.9087 100.923 27.0194 99.5459 28.8862L99.9556 28.7972C104.518 27.8007 106.504 23.2118 107.954 19.861C108.512 18.5727 109.088 17.2404 109.539 16.8973C111.017 15.7749 114.74 16.7622 116.045 17.3623C117.912 18.2225 119.835 15.6428 120.381 14.8318L120.945 13.9848L120.051 13.4984C120.002 13.4718 118.803 12.8102 114.266 9.55877L114.227 9.53215C113.587 9.12149 113.026 8.70776 112.533 8.2971C112.631 7.96018 112.695 7.61302 112.728 7.25766C113.159 2.48544 110.157 0.545835 108.51 0.187407L107.657 0L107.42 0.839746C107.367 1.02818 106.37 4.80499 110.306 8.7692C109.739 9.65913 108.856 10.2633 108.085 10.6545C105.135 12.1466 100.885 12.0473 98.2064 10.4262C98.0139 10.3074 97.8204 10.1927 97.6258 10.078C97.6207 10.0739 97.6166 10.0708 97.6114 10.0667C91.553 6.39846 88.3486 8.22235 88.3486 8.22235C89.8981 8.6924 91.6441 10.7129 91.6441 10.7129ZM109.124 2.45575C109.967 3.01489 111.014 4.20897 110.909 6.67189C109.52 4.97294 109.173 3.43784 109.124 2.45575Z" fill="#8CC63F"/>
<path d="M0.131836 49.2338V42.8538H1.13646V49.2338H0.131836Z" fill="#8CC63F"/>
<path d="M2.15039 46.9184C2.15039 45.5789 3.12634 44.4985 4.49349 44.4985C5.88009 44.4985 6.77002 45.5605 6.77002 47.0137V47.2533H3.20315C3.27995 47.9517 3.80531 48.5252 4.67577 48.5252C5.12535 48.5252 5.66094 48.344 5.9866 48.0183L6.44539 48.6788C5.9866 49.1192 5.30763 49.3486 4.57029 49.3486C3.18369 49.3486 2.15039 48.3819 2.15039 46.9184ZM4.49451 45.3209C3.63326 45.3209 3.24104 45.9814 3.19393 46.5457H5.79612C5.77564 46.0009 5.40287 45.3209 4.49451 45.3209Z" fill="#8CC63F"/>
<path d="M10.5881 49.2336V48.7359C10.244 49.1281 9.70844 49.3483 9.09604 49.3483C8.34027 49.3483 7.48926 48.8414 7.48926 47.8183C7.48926 46.7563 8.34027 46.316 9.09604 46.316C9.71766 46.316 10.2533 46.5167 10.5881 46.9089V46.2207C10.5881 45.6852 10.1478 45.3595 9.50772 45.3595C8.99158 45.3595 8.54201 45.551 8.13955 45.9432L7.72787 45.2448C8.26346 44.7379 8.93321 44.4993 9.66953 44.4993C10.6926 44.4993 11.5917 44.9294 11.5917 46.1726V49.2336H10.5881ZM10.5881 48.1808V47.4824C10.3587 47.167 9.92759 47.0042 9.48826 47.0042C8.924 47.0042 8.5031 47.3298 8.5031 47.8367C8.5031 48.3344 8.924 48.6591 9.48826 48.6591C9.92862 48.6591 10.3587 48.4973 10.5881 48.1808Z" fill="#8CC63F"/>
<path d="M13.8977 48.5925V50.994H12.8931V44.614H13.8977V45.2448C14.2418 44.786 14.7774 44.4993 15.3806 44.4993C16.5767 44.4993 17.4277 45.3984 17.4277 46.9192C17.4277 48.4399 16.5767 49.3483 15.3806 49.3483C14.7968 49.3483 14.2715 49.0902 13.8977 48.5925ZM16.3852 46.9181C16.3852 46.0282 15.8783 45.3871 15.0846 45.3871C14.6156 45.3871 14.1189 45.6647 13.8987 46.0088V47.8357C14.1189 48.1706 14.6166 48.4573 15.0846 48.4573C15.8783 48.4584 16.3852 47.8173 16.3852 46.9181Z" fill="#8CC63F"/>
<path d="M20.7571 43.4273C20.7571 43.0832 21.0438 42.8057 21.3787 42.8057C21.7228 42.8057 22.0003 43.0832 22.0003 43.4273C22.0003 43.7714 21.7228 44.0489 21.3787 44.0489C21.0438 44.0489 20.7571 43.7714 20.7571 43.4273ZM20.882 49.2338V44.6142H21.8866V49.2338H20.882Z" fill="#8CC63F"/>
<path d="M26.3058 49.2336V46.3447C26.3058 45.6268 25.9423 45.3882 25.378 45.3882C24.8619 45.3882 24.4215 45.6944 24.1921 46.0098V49.2336H23.1875V44.614H24.1921V45.2448C24.4983 44.8812 25.0913 44.4993 25.8184 44.4993C26.8127 44.4993 27.3104 45.0349 27.3104 45.9821V49.2346H26.3058V49.2336Z" fill="#8CC63F"/>
<path d="M28.8121 48.1615V45.4927H28.0471V44.613H28.8121V43.3503H29.8167V44.613H30.7538V45.4927H29.8167V47.9126C29.8167 48.228 29.9703 48.4574 30.2571 48.4574C30.4486 48.4574 30.6299 48.3806 30.7067 48.2946L30.9463 49.0504C30.765 49.2224 30.468 49.3474 29.999 49.3474C29.2228 49.3484 28.8121 48.9275 28.8121 48.1615Z" fill="#8CC63F"/>
<path d="M31.376 46.9184C31.376 45.5984 32.2843 44.4985 33.7477 44.4985C35.2306 44.4985 36.1298 45.5984 36.1298 46.9184C36.1298 48.2477 35.2306 49.3476 33.7477 49.3476C32.2843 49.3486 31.376 48.2487 31.376 46.9184ZM35.0872 46.9184C35.0872 46.1053 34.609 45.3874 33.7477 45.3874C32.8967 45.3874 32.4185 46.1053 32.4185 46.9184C32.4185 47.7408 32.8967 48.4587 33.7477 48.4587C34.609 48.4587 35.0872 47.7418 35.0872 46.9184Z" fill="#8CC63F"/>
<path d="M42.6635 49.2336L41.2482 47.3298L40.6072 47.9893V49.2326H39.6025V42.8525H40.6072V46.8413L42.6441 44.6129H43.8873L41.9651 46.7082L43.9262 49.2336H42.6635Z" fill="#8CC63F"/>
<path d="M47.7531 49.2336V46.3447C47.7531 45.6268 47.3895 45.3882 46.8253 45.3882C46.3091 45.3882 45.8688 45.6944 45.6394 46.0098V49.2336H44.6348V44.614H45.6394V45.2448C45.9456 44.8812 46.5385 44.4993 47.2656 44.4993C48.26 44.4993 48.7577 45.0349 48.7577 45.9821V49.2346H47.7531V49.2336Z" fill="#8CC63F"/>
<path d="M49.771 46.9184C49.771 45.5984 50.6794 44.4985 52.1428 44.4985C53.6256 44.4985 54.5248 45.5984 54.5248 46.9184C54.5248 48.2477 53.6256 49.3476 52.1428 49.3476C50.6804 49.3486 49.771 48.2487 49.771 46.9184ZM53.4823 46.9184C53.4823 46.1053 53.004 45.3874 52.1428 45.3874C51.2918 45.3874 50.8135 46.1053 50.8135 46.9184C50.8135 47.7408 51.2918 48.4587 52.1428 48.4587C53.004 48.4587 53.4823 47.7418 53.4823 46.9184Z" fill="#8CC63F"/>
<path d="M59.5669 49.2336L58.4957 45.847L57.4245 49.2336H56.3717L54.937 44.614H55.9795L56.9555 47.971L58.0553 44.614H58.935L60.0349 47.971L61.0108 44.614H62.0533L60.6186 49.2336H59.5669Z" fill="#8CC63F"/>
<path d="M62.7534 49.2338V42.8538H63.758V49.2338H62.7534Z" fill="#8CC63F"/>
<path d="M64.7725 46.9184C64.7725 45.5789 65.7484 44.4985 67.1156 44.4985C68.5022 44.4985 69.3921 45.5605 69.3921 47.0137V47.2533H65.8242C65.901 47.9517 66.4264 48.5252 67.2968 48.5252C67.7464 48.5252 68.282 48.344 68.6076 48.0183L69.0664 48.6788C68.6076 49.1192 67.9287 49.3486 67.1913 49.3486C65.8047 49.3486 64.7725 48.3819 64.7725 46.9184ZM67.1156 45.3209C66.2543 45.3209 65.8631 45.9814 65.815 46.5457H68.4172C68.3977 46.0009 68.0239 45.3209 67.1156 45.3209Z" fill="#8CC63F"/>
<path d="M73.6393 49.2335V48.6016C73.286 49.0604 72.7494 49.3482 72.1564 49.3482C70.9706 49.3482 70.1001 48.449 70.1001 46.9283C70.1001 45.4362 70.9613 44.4992 72.1564 44.4992C72.7299 44.4992 73.2666 44.7665 73.6393 45.2549V42.8545H74.6439V49.2345H73.6393V49.2335ZM73.6393 47.8459V46.0097C73.4099 45.6656 72.9214 45.3881 72.4432 45.3881C71.6495 45.3881 71.1426 46.0291 71.1426 46.9283C71.1426 47.8182 71.6495 48.4583 72.4432 48.4583C72.9214 48.4583 73.4089 48.191 73.6393 47.8459Z" fill="#8CC63F"/>
<path d="M75.8876 50.4198L76.3566 49.6927C76.7294 50.1228 77.2076 50.2856 77.82 50.2856C78.4796 50.2856 79.1882 49.9794 79.1882 49.0321V48.4771C78.8339 48.9359 78.3085 49.2421 77.7053 49.2421C76.5287 49.2421 75.6582 48.3911 75.6582 46.8703C75.6582 45.3782 76.5195 44.4985 77.7053 44.4985C78.2891 44.4985 78.8154 44.7658 79.1882 45.2543V44.6132H80.1928V48.9943C80.1928 50.6584 78.9588 51.108 77.8211 51.108C77.0356 51.108 76.4519 50.9359 75.8876 50.4198ZM79.1882 47.7316V46.0101C78.968 45.666 78.4703 45.3885 78.0023 45.3885C77.2087 45.3885 76.7017 45.9814 76.7017 46.8713C76.7017 47.7613 77.2087 48.3542 78.0023 48.3542C78.4703 48.3532 78.968 48.0757 79.1882 47.7316Z" fill="#8CC63F"/>
<path d="M81.2065 46.9184C81.2065 45.5789 82.1825 44.4985 83.5496 44.4985C84.9362 44.4985 85.8262 45.5605 85.8262 47.0137V47.2533H82.2583C82.3351 47.9517 82.8615 48.5252 83.7309 48.5252C84.1805 48.5252 84.7161 48.344 85.0417 48.0183L85.5005 48.6788C85.0417 49.1192 84.3628 49.3486 83.6254 49.3486C82.2398 49.3486 81.2065 48.3819 81.2065 46.9184ZM83.5496 45.3209C82.6884 45.3209 82.2962 45.9814 82.2491 46.5457H84.8512C84.8318 46.0009 84.459 45.3209 83.5496 45.3209Z" fill="#8CC63F"/>
<path d="M8.2321 27.1902L17.2727 16.6821H12.904L-0.000488281 32.6557V38.9487H3.71385V31.8375L5.78966 29.4043L13.3986 38.9487H17.9537L8.2321 27.1902Z" fill="#8CC63F"/>
<path d="M43.7372 21.7832C39.5477 21.7832 35.0264 25.1791 35.0264 30.6661C35.0264 35.3574 39.0152 39.3206 43.7372 39.3206C48.49 39.3206 52.5054 35.3052 52.5054 30.5524C52.5064 25.7986 48.491 21.7832 43.7372 21.7832ZM43.7659 36.3641C40.6865 36.3641 38.1826 33.7957 38.1826 30.6374C38.1826 27.8007 40.3178 24.7397 43.7659 24.7397C46.0178 24.7397 49.3502 26.5595 49.3502 30.4664C49.3502 33.3656 47.2611 36.3641 43.7659 36.3641Z" fill="#4D4D4D"/>
<path d="M68.9187 34.1603L65.6734 24.0659H63.0875L59.873 34.1459L55.3803 22.1826H52.0562L58.4321 38.9489H61.5115L64.3717 29.8161L67.2822 38.9489H70.3585L76.7642 22.1826H73.4687L68.9187 34.1603Z" fill="#4D4D4D"/>
<path d="M26.2758 21.7832C24.4304 21.7832 22.9865 22.454 22.0044 23.2978V22.1826H18.8481V38.9488H22.0044V29.7731C21.9808 28.1069 22.4355 26.7377 23.2845 25.9164C24.4058 24.8247 25.858 24.7397 26.2758 24.7397C26.6936 24.7397 28.1458 24.8247 29.2682 25.9184C30.111 26.7326 30.5749 28.1049 30.5749 29.7813V38.9488H33.7311V29.7813C33.7311 27.2569 32.9999 25.2098 31.6215 23.8652C30.2011 22.4448 28.5032 21.7832 26.2758 21.7832Z" fill="#4D4D4D"/>
<path d="M3.71385 16.6821H-0.000488281V30.4427L3.71385 25.8446V16.6821Z" fill="#4D4D4D"/>
<path d="M120.232 21.7832C116.043 21.7832 111.521 25.1791 111.521 30.6661C111.521 35.3574 115.51 39.3206 120.232 39.3206C124.985 39.3206 129.001 35.3052 129.001 30.5524C129.001 25.7986 124.985 21.7832 120.232 21.7832ZM120.261 36.3641C117.182 36.3641 114.677 33.7957 114.677 30.6374C114.677 27.8007 116.812 24.7397 120.261 24.7397C122.513 24.7397 125.844 26.5595 125.844 30.4664C125.844 33.3656 123.756 36.3641 120.261 36.3641Z" fill="#4D4D4D"/>
<path d="M107.451 24.1386C106.963 25.006 106.403 25.8662 105.745 26.6589C106.58 27.5805 107.156 28.8422 107.156 30.4664C107.156 33.3656 105.067 36.3641 101.573 36.3641C98.4936 36.3641 95.9887 33.7957 95.9887 30.6374C95.9887 28.2994 97.4399 25.8109 99.8813 25.007C100.055 24.3711 100.178 23.6982 100.244 22.9896C100.251 22.9158 100.263 22.8431 100.282 22.7714C100.36 22.4693 100.409 22.1662 100.435 21.8621C96.595 22.3977 92.8325 25.6614 92.8325 30.6651C92.8325 35.3564 96.8223 39.3196 101.544 39.3196C106.297 39.3196 110.313 35.3041 110.313 30.5514C110.312 28.0496 109.198 25.7536 107.451 24.1386Z" fill="#4D4D4D"/>
</svg>
